M48
; DRILL file {KiCad 9.0.0} date 2025-03-28T16:47:31+0200
; FORMAT={-:-/ absolute / metric / decimal}
; #@! TF.CreationDate,2025-03-28T16:47:31+02:00
; #@! TF.GenerationSoftware,Kicad,Pcbnew,9.0.0
; #@! TF.FileFunction,Plated,1,2,PTH
FMAT,2
METRIC
; #@! TA.AperFunction,Plated,PTH,ComponentDrill
T1C0.200
; #@! TA.AperFunction,Plated,PTH,ComponentDrill
T2C0.250
%
G90
G05
T1
X125.5Y-118.5
X125.5Y-120.0
X125.5Y-121.5
X127.0Y-118.5
X127.0Y-120.0
X127.0Y-121.5
X129.09Y-94.06
X130.2Y-92.985
X130.2Y-94.06
X130.2Y-95.135
X131.31Y-94.06
X132.725Y-92.985
X132.725Y-94.06
X132.725Y-95.135
X144.75Y-116.92
X144.75Y-118.42
X144.75Y-119.92
X146.25Y-116.92
X146.25Y-118.42
X146.25Y-119.92
T2
X118.5Y-103.815
X118.5Y-104.815
M30
