%TF.GenerationSoftware,KiCad,Pcbnew,9.0.0*%
%TF.CreationDate,2025-03-28T16:47:02+02:00*%
%TF.ProjectId,design_project,64657369-676e-45f7-9072-6f6a6563742e,rev?*%
%TF.SameCoordinates,Original*%
%TF.FileFunction,Legend,Top*%
%TF.FilePolarity,Positive*%
%FSLAX46Y46*%
G04 Gerber Fmt 4.6, Leading zero omitted, Abs format (unit mm)*
G04 Created by KiCad (PCBNEW 9.0.0) date 2025-03-28 16:47:02*
%MOMM*%
%LPD*%
G01*
G04 APERTURE LIST*
%ADD10C,0.150000*%
%ADD11C,0.120000*%
G04 APERTURE END LIST*
D10*
X125488095Y-116004819D02*
X125488095Y-116814342D01*
X125488095Y-116814342D02*
X125535714Y-116909580D01*
X125535714Y-116909580D02*
X125583333Y-116957200D01*
X125583333Y-116957200D02*
X125678571Y-117004819D01*
X125678571Y-117004819D02*
X125869047Y-117004819D01*
X125869047Y-117004819D02*
X125964285Y-116957200D01*
X125964285Y-116957200D02*
X126011904Y-116909580D01*
X126011904Y-116909580D02*
X126059523Y-116814342D01*
X126059523Y-116814342D02*
X126059523Y-116004819D01*
X126488095Y-116100057D02*
X126535714Y-116052438D01*
X126535714Y-116052438D02*
X126630952Y-116004819D01*
X126630952Y-116004819D02*
X126869047Y-116004819D01*
X126869047Y-116004819D02*
X126964285Y-116052438D01*
X126964285Y-116052438D02*
X127011904Y-116100057D01*
X127011904Y-116100057D02*
X127059523Y-116195295D01*
X127059523Y-116195295D02*
X127059523Y-116290533D01*
X127059523Y-116290533D02*
X127011904Y-116433390D01*
X127011904Y-116433390D02*
X126440476Y-117004819D01*
X126440476Y-117004819D02*
X127059523Y-117004819D01*
X118118095Y-101869819D02*
X118118095Y-102679342D01*
X118118095Y-102679342D02*
X118165714Y-102774580D01*
X118165714Y-102774580D02*
X118213333Y-102822200D01*
X118213333Y-102822200D02*
X118308571Y-102869819D01*
X118308571Y-102869819D02*
X118499047Y-102869819D01*
X118499047Y-102869819D02*
X118594285Y-102822200D01*
X118594285Y-102822200D02*
X118641904Y-102774580D01*
X118641904Y-102774580D02*
X118689523Y-102679342D01*
X118689523Y-102679342D02*
X118689523Y-101869819D01*
X119070476Y-101869819D02*
X119737142Y-101869819D01*
X119737142Y-101869819D02*
X119308571Y-102869819D01*
X134600595Y-117104819D02*
X134600595Y-117914342D01*
X134600595Y-117914342D02*
X134648214Y-118009580D01*
X134648214Y-118009580D02*
X134695833Y-118057200D01*
X134695833Y-118057200D02*
X134791071Y-118104819D01*
X134791071Y-118104819D02*
X134981547Y-118104819D01*
X134981547Y-118104819D02*
X135076785Y-118057200D01*
X135076785Y-118057200D02*
X135124404Y-118009580D01*
X135124404Y-118009580D02*
X135172023Y-117914342D01*
X135172023Y-117914342D02*
X135172023Y-117104819D01*
X136076785Y-117104819D02*
X135886309Y-117104819D01*
X135886309Y-117104819D02*
X135791071Y-117152438D01*
X135791071Y-117152438D02*
X135743452Y-117200057D01*
X135743452Y-117200057D02*
X135648214Y-117342914D01*
X135648214Y-117342914D02*
X135600595Y-117533390D01*
X135600595Y-117533390D02*
X135600595Y-117914342D01*
X135600595Y-117914342D02*
X135648214Y-118009580D01*
X135648214Y-118009580D02*
X135695833Y-118057200D01*
X135695833Y-118057200D02*
X135791071Y-118104819D01*
X135791071Y-118104819D02*
X135981547Y-118104819D01*
X135981547Y-118104819D02*
X136076785Y-118057200D01*
X136076785Y-118057200D02*
X136124404Y-118009580D01*
X136124404Y-118009580D02*
X136172023Y-117914342D01*
X136172023Y-117914342D02*
X136172023Y-117676247D01*
X136172023Y-117676247D02*
X136124404Y-117581009D01*
X136124404Y-117581009D02*
X136076785Y-117533390D01*
X136076785Y-117533390D02*
X135981547Y-117485771D01*
X135981547Y-117485771D02*
X135791071Y-117485771D01*
X135791071Y-117485771D02*
X135695833Y-117533390D01*
X135695833Y-117533390D02*
X135648214Y-117581009D01*
X135648214Y-117581009D02*
X135600595Y-117676247D01*
X130403095Y-90514819D02*
X130403095Y-91324342D01*
X130403095Y-91324342D02*
X130450714Y-91419580D01*
X130450714Y-91419580D02*
X130498333Y-91467200D01*
X130498333Y-91467200D02*
X130593571Y-91514819D01*
X130593571Y-91514819D02*
X130784047Y-91514819D01*
X130784047Y-91514819D02*
X130879285Y-91467200D01*
X130879285Y-91467200D02*
X130926904Y-91419580D01*
X130926904Y-91419580D02*
X130974523Y-91324342D01*
X130974523Y-91324342D02*
X130974523Y-90514819D01*
X131926904Y-90514819D02*
X131450714Y-90514819D01*
X131450714Y-90514819D02*
X131403095Y-90991009D01*
X131403095Y-90991009D02*
X131450714Y-90943390D01*
X131450714Y-90943390D02*
X131545952Y-90895771D01*
X131545952Y-90895771D02*
X131784047Y-90895771D01*
X131784047Y-90895771D02*
X131879285Y-90943390D01*
X131879285Y-90943390D02*
X131926904Y-90991009D01*
X131926904Y-90991009D02*
X131974523Y-91086247D01*
X131974523Y-91086247D02*
X131974523Y-91324342D01*
X131974523Y-91324342D02*
X131926904Y-91419580D01*
X131926904Y-91419580D02*
X131879285Y-91467200D01*
X131879285Y-91467200D02*
X131784047Y-91514819D01*
X131784047Y-91514819D02*
X131545952Y-91514819D01*
X131545952Y-91514819D02*
X131450714Y-91467200D01*
X131450714Y-91467200D02*
X131403095Y-91419580D01*
X136838095Y-102524819D02*
X136838095Y-103334342D01*
X136838095Y-103334342D02*
X136885714Y-103429580D01*
X136885714Y-103429580D02*
X136933333Y-103477200D01*
X136933333Y-103477200D02*
X137028571Y-103524819D01*
X137028571Y-103524819D02*
X137219047Y-103524819D01*
X137219047Y-103524819D02*
X137314285Y-103477200D01*
X137314285Y-103477200D02*
X137361904Y-103429580D01*
X137361904Y-103429580D02*
X137409523Y-103334342D01*
X137409523Y-103334342D02*
X137409523Y-102524819D01*
X138314285Y-102858152D02*
X138314285Y-103524819D01*
X138076190Y-102477200D02*
X137838095Y-103191485D01*
X137838095Y-103191485D02*
X138457142Y-103191485D01*
X143600595Y-101379819D02*
X143600595Y-102189342D01*
X143600595Y-102189342D02*
X143648214Y-102284580D01*
X143648214Y-102284580D02*
X143695833Y-102332200D01*
X143695833Y-102332200D02*
X143791071Y-102379819D01*
X143791071Y-102379819D02*
X143981547Y-102379819D01*
X143981547Y-102379819D02*
X144076785Y-102332200D01*
X144076785Y-102332200D02*
X144124404Y-102284580D01*
X144124404Y-102284580D02*
X144172023Y-102189342D01*
X144172023Y-102189342D02*
X144172023Y-101379819D01*
X145172023Y-102379819D02*
X144600595Y-102379819D01*
X144886309Y-102379819D02*
X144886309Y-101379819D01*
X144886309Y-101379819D02*
X144791071Y-101522676D01*
X144791071Y-101522676D02*
X144695833Y-101617914D01*
X144695833Y-101617914D02*
X144600595Y-101665533D01*
X144738095Y-114424819D02*
X144738095Y-115234342D01*
X144738095Y-115234342D02*
X144785714Y-115329580D01*
X144785714Y-115329580D02*
X144833333Y-115377200D01*
X144833333Y-115377200D02*
X144928571Y-115424819D01*
X144928571Y-115424819D02*
X145119047Y-115424819D01*
X145119047Y-115424819D02*
X145214285Y-115377200D01*
X145214285Y-115377200D02*
X145261904Y-115329580D01*
X145261904Y-115329580D02*
X145309523Y-115234342D01*
X145309523Y-115234342D02*
X145309523Y-114424819D01*
X145690476Y-114424819D02*
X146309523Y-114424819D01*
X146309523Y-114424819D02*
X145976190Y-114805771D01*
X145976190Y-114805771D02*
X146119047Y-114805771D01*
X146119047Y-114805771D02*
X146214285Y-114853390D01*
X146214285Y-114853390D02*
X146261904Y-114901009D01*
X146261904Y-114901009D02*
X146309523Y-114996247D01*
X146309523Y-114996247D02*
X146309523Y-115234342D01*
X146309523Y-115234342D02*
X146261904Y-115329580D01*
X146261904Y-115329580D02*
X146214285Y-115377200D01*
X146214285Y-115377200D02*
X146119047Y-115424819D01*
X146119047Y-115424819D02*
X145833333Y-115424819D01*
X145833333Y-115424819D02*
X145738095Y-115377200D01*
X145738095Y-115377200D02*
X145690476Y-115329580D01*
D11*
%TO.C,U2*%
X126250000Y-117240000D02*
X124050000Y-117240000D01*
X126250000Y-117240000D02*
X128450000Y-117240000D01*
X126250000Y-122760000D02*
X124050000Y-122760000D01*
X126250000Y-122760000D02*
X128450000Y-122760000D01*
X122340000Y-117725000D02*
X122010000Y-117965000D01*
X122010000Y-117485000D01*
X122340000Y-117725000D01*
G36*
X122340000Y-117725000D02*
G01*
X122010000Y-117965000D01*
X122010000Y-117485000D01*
X122340000Y-117725000D01*
G37*
%TO.C,U7*%
X117490000Y-103175000D02*
X119490000Y-103175000D01*
X117500000Y-105455000D02*
X119500000Y-105455000D01*
X117130000Y-103245000D02*
X116850000Y-103245000D01*
X117130000Y-102965000D01*
X117130000Y-103245000D01*
G36*
X117130000Y-103245000D02*
G01*
X116850000Y-103245000D01*
X117130000Y-102965000D01*
X117130000Y-103245000D01*
G37*
%TO.C,U6*%
X135362500Y-118490000D02*
X134562500Y-118490000D01*
X135362500Y-118490000D02*
X136162500Y-118490000D01*
X135362500Y-121610000D02*
X134562500Y-121610000D01*
X135362500Y-121610000D02*
X136162500Y-121610000D01*
X134062500Y-118540000D02*
X133822500Y-118210000D01*
X134302500Y-118210000D01*
X134062500Y-118540000D01*
G36*
X134062500Y-118540000D02*
G01*
X133822500Y-118210000D01*
X134302500Y-118210000D01*
X134062500Y-118540000D01*
G37*
%TO.C,U5*%
X128055000Y-92700000D02*
X128055000Y-92190000D01*
X128055000Y-96170000D02*
X128055000Y-95420000D01*
X128055000Y-96170000D02*
X128405000Y-96170000D01*
X128405000Y-91950000D02*
X128355000Y-91950000D01*
X133925000Y-91950000D02*
X134275000Y-91950000D01*
X133925000Y-96170000D02*
X134275000Y-96170000D01*
X134275000Y-92550000D02*
X134275000Y-91950000D01*
X134275000Y-96170000D02*
X134275000Y-95570000D01*
X128055000Y-91950000D02*
X127815000Y-91620000D01*
X128295000Y-91620000D01*
X128055000Y-91950000D01*
G36*
X128055000Y-91950000D02*
G01*
X127815000Y-91620000D01*
X128295000Y-91620000D01*
X128055000Y-91950000D01*
G37*
%TO.C,U4*%
X135990000Y-104765000D02*
X135990000Y-104530000D01*
X135990000Y-107510000D02*
X135990000Y-107035000D01*
X136465000Y-104290000D02*
X136290000Y-104290000D01*
X136465000Y-107510000D02*
X135990000Y-107510000D01*
X138735000Y-104290000D02*
X139210000Y-104290000D01*
X138735000Y-107510000D02*
X139210000Y-107510000D01*
X139210000Y-104290000D02*
X139210000Y-104765000D01*
X139210000Y-107510000D02*
X139210000Y-107035000D01*
X135990000Y-104290000D02*
X135750000Y-103960000D01*
X136230000Y-103960000D01*
X135990000Y-104290000D01*
G36*
X135990000Y-104290000D02*
G01*
X135750000Y-103960000D01*
X136230000Y-103960000D01*
X135990000Y-104290000D01*
G37*
%TO.C,U1*%
X144362500Y-102765000D02*
X143562500Y-102765000D01*
X144362500Y-102765000D02*
X145162500Y-102765000D01*
X144362500Y-105885000D02*
X143562500Y-105885000D01*
X144362500Y-105885000D02*
X145162500Y-105885000D01*
X143062500Y-102840000D02*
X142822500Y-102510000D01*
X143302500Y-102510000D01*
X143062500Y-102840000D01*
G36*
X143062500Y-102840000D02*
G01*
X142822500Y-102510000D01*
X143302500Y-102510000D01*
X143062500Y-102840000D01*
G37*
%TO.C,U3*%
X145500000Y-115660000D02*
X143300000Y-115660000D01*
X145500000Y-115660000D02*
X147700000Y-115660000D01*
X145500000Y-121180000D02*
X143300000Y-121180000D01*
X145500000Y-121180000D02*
X147700000Y-121180000D01*
X141590000Y-116145000D02*
X141260000Y-116385000D01*
X141260000Y-115905000D01*
X141590000Y-116145000D01*
G36*
X141590000Y-116145000D02*
G01*
X141260000Y-116385000D01*
X141260000Y-115905000D01*
X141590000Y-116145000D01*
G37*
%TD*%
M02*
