%TF.GenerationSoftware,KiCad,Pcbnew,9.0.0*%
%TF.CreationDate,2025-03-28T16:47:02+02:00*%
%TF.ProjectId,design_project,64657369-676e-45f7-9072-6f6a6563742e,rev?*%
%TF.SameCoordinates,Original*%
%TF.FileFunction,Soldermask,Top*%
%TF.FilePolarity,Negative*%
%FSLAX46Y46*%
G04 Gerber Fmt 4.6, Leading zero omitted, Abs format (unit mm)*
G04 Created by KiCad (PCBNEW 9.0.0) date 2025-03-28 16:47:02*
%MOMM*%
%LPD*%
G01*
G04 APERTURE LIST*
G04 Aperture macros list*
%AMRoundRect*
0 Rectangle with rounded corners*
0 $1 Rounding radius*
0 $2 $3 $4 $5 $6 $7 $8 $9 X,Y pos of 4 corners*
0 Add a 4 corners polygon primitive as box body*
4,1,4,$2,$3,$4,$5,$6,$7,$8,$9,$2,$3,0*
0 Add four circle primitives for the rounded corners*
1,1,$1+$1,$2,$3*
1,1,$1+$1,$4,$5*
1,1,$1+$1,$6,$7*
1,1,$1+$1,$8,$9*
0 Add four rect primitives between the rounded corners*
20,1,$1+$1,$2,$3,$4,$5,0*
20,1,$1+$1,$4,$5,$6,$7,0*
20,1,$1+$1,$6,$7,$8,$9,0*
20,1,$1+$1,$8,$9,$2,$3,0*%
G04 Aperture macros list end*
%ADD10C,0.100000*%
%ADD11R,2.460000X2.310000*%
%ADD12RoundRect,0.100000X-0.687500X-0.100000X0.687500X-0.100000X0.687500X0.100000X-0.687500X0.100000X0*%
%ADD13RoundRect,0.062500X-0.187500X-0.062500X0.187500X-0.062500X0.187500X0.062500X-0.187500X0.062500X0*%
%ADD14R,0.900000X1.600000*%
%ADD15RoundRect,0.150000X-0.512500X-0.150000X0.512500X-0.150000X0.512500X0.150000X-0.512500X0.150000X0*%
%ADD16RoundRect,0.050000X-0.225000X-0.050000X0.225000X-0.050000X0.225000X0.050000X-0.225000X0.050000X0*%
%ADD17RoundRect,0.050000X0.050000X-0.225000X0.050000X0.225000X-0.050000X0.225000X-0.050000X-0.225000X0*%
%ADD18RoundRect,0.250000X1.110000X1.075000X-1.110000X1.075000X-1.110000X-1.075000X1.110000X-1.075000X0*%
%ADD19RoundRect,0.250000X0.515000X1.075000X-0.515000X1.075000X-0.515000X-1.075000X0.515000X-1.075000X0*%
%ADD20RoundRect,0.062500X-0.375000X-0.062500X0.375000X-0.062500X0.375000X0.062500X-0.375000X0.062500X0*%
%ADD21RoundRect,0.062500X-0.062500X-0.375000X0.062500X-0.375000X0.062500X0.375000X-0.062500X0.375000X0*%
%ADD22R,1.600000X1.600000*%
%ADD23RoundRect,0.125000X-0.537500X-0.125000X0.537500X-0.125000X0.537500X0.125000X-0.537500X0.125000X0*%
G04 APERTURE END LIST*
D10*
%TO.C,U5*%
X130015000Y-92260000D02*
X130315000Y-92260000D01*
X130315000Y-91910000D01*
X130415000Y-91910000D01*
X130415000Y-92360000D01*
X129915000Y-92360000D01*
X129915000Y-91910000D01*
X130015000Y-91910000D01*
X130015000Y-92260000D01*
G36*
X130015000Y-92260000D02*
G01*
X130315000Y-92260000D01*
X130315000Y-91910000D01*
X130415000Y-91910000D01*
X130415000Y-92360000D01*
X129915000Y-92360000D01*
X129915000Y-91910000D01*
X130015000Y-91910000D01*
X130015000Y-92260000D01*
G37*
X130815000Y-92260000D02*
X131115000Y-92260000D01*
X131115000Y-91910000D01*
X131215000Y-91910000D01*
X131215000Y-92360000D01*
X130715000Y-92360000D01*
X130715000Y-91910000D01*
X130815000Y-91910000D01*
X130815000Y-92260000D01*
G36*
X130815000Y-92260000D02*
G01*
X131115000Y-92260000D01*
X131115000Y-91910000D01*
X131215000Y-91910000D01*
X131215000Y-92360000D01*
X130715000Y-92360000D01*
X130715000Y-91910000D01*
X130815000Y-91910000D01*
X130815000Y-92260000D01*
G37*
X134315000Y-92997500D02*
X133965000Y-92997500D01*
X133965000Y-93347500D01*
X134315000Y-93347500D01*
X134315000Y-93447500D01*
X133965000Y-93447500D01*
X133965000Y-93797500D01*
X134315000Y-93797500D01*
X134315000Y-93897500D01*
X133865000Y-93897500D01*
X133865000Y-92897500D01*
X134315000Y-92897500D01*
X134315000Y-92997500D01*
G36*
X134315000Y-92997500D02*
G01*
X133965000Y-92997500D01*
X133965000Y-93347500D01*
X134315000Y-93347500D01*
X134315000Y-93447500D01*
X133965000Y-93447500D01*
X133965000Y-93797500D01*
X134315000Y-93797500D01*
X134315000Y-93897500D01*
X133865000Y-93897500D01*
X133865000Y-92897500D01*
X134315000Y-92897500D01*
X134315000Y-92997500D01*
G37*
X134315000Y-94322500D02*
X133965000Y-94322500D01*
X133965000Y-94672500D01*
X134315000Y-94672500D01*
X134315000Y-94772500D01*
X133965000Y-94772500D01*
X133965000Y-95122500D01*
X134315000Y-95122500D01*
X134315000Y-95222500D01*
X133865000Y-95222500D01*
X133865000Y-94222500D01*
X134315000Y-94222500D01*
X134315000Y-94322500D01*
G36*
X134315000Y-94322500D02*
G01*
X133965000Y-94322500D01*
X133965000Y-94672500D01*
X134315000Y-94672500D01*
X134315000Y-94772500D01*
X133965000Y-94772500D01*
X133965000Y-95122500D01*
X134315000Y-95122500D01*
X134315000Y-95222500D01*
X133865000Y-95222500D01*
X133865000Y-94222500D01*
X134315000Y-94222500D01*
X134315000Y-94322500D01*
G37*
%TD*%
D11*
%TO.C,U2*%
X126250000Y-120000000D03*
D12*
X123387500Y-117725000D03*
X123387500Y-118375000D03*
X123387500Y-119025000D03*
X123387500Y-119675000D03*
X123387500Y-120325000D03*
X123387500Y-120975000D03*
X123387500Y-121625000D03*
X123387500Y-122275000D03*
X129112500Y-122275000D03*
X129112500Y-121625000D03*
X129112500Y-120975000D03*
X129112500Y-120325000D03*
X129112500Y-119675000D03*
X129112500Y-119025000D03*
X129112500Y-118375000D03*
X129112500Y-117725000D03*
%TD*%
D13*
%TO.C,U7*%
X117550000Y-103565000D03*
X117550000Y-104065000D03*
X117550000Y-104565000D03*
X117550000Y-105065000D03*
X119450000Y-105065000D03*
X119450000Y-104565000D03*
X119450000Y-104065000D03*
X119450000Y-103565000D03*
D14*
X118500000Y-104315000D03*
%TD*%
D15*
%TO.C,U6*%
X134225000Y-119100000D03*
X134225000Y-120050000D03*
X134225000Y-121000000D03*
X136500000Y-121000000D03*
X136500000Y-120050000D03*
X136500000Y-119100000D03*
%TD*%
D16*
%TO.C,U5*%
X128240000Y-93060000D03*
X128240000Y-93460000D03*
X128240000Y-93860000D03*
X128240000Y-94260000D03*
X128240000Y-94660000D03*
X128240000Y-95060000D03*
D17*
X128765000Y-95985000D03*
X129165000Y-95985000D03*
X129565000Y-95985000D03*
X129965000Y-95985000D03*
X130365000Y-95985000D03*
X130765000Y-95985000D03*
X131165000Y-95985000D03*
X131565000Y-95985000D03*
X131965000Y-95985000D03*
X132365000Y-95985000D03*
X132765000Y-95985000D03*
X133165000Y-95985000D03*
X133565000Y-95985000D03*
X133565000Y-92135000D03*
X133165000Y-92135000D03*
X132765000Y-92135000D03*
X132365000Y-92135000D03*
X131965000Y-92135000D03*
X131565000Y-92135000D03*
X129565000Y-92135000D03*
X129165000Y-92135000D03*
X128765000Y-92135000D03*
D18*
X130200000Y-94060000D03*
D19*
X132725000Y-94060000D03*
%TD*%
D20*
%TO.C,U4*%
X136162500Y-105150000D03*
X136162500Y-105650000D03*
X136162500Y-106150000D03*
X136162500Y-106650000D03*
D21*
X136850000Y-107337500D03*
X137350000Y-107337500D03*
X137850000Y-107337500D03*
X138350000Y-107337500D03*
D20*
X139037500Y-106650000D03*
X139037500Y-106150000D03*
X139037500Y-105650000D03*
X139037500Y-105150000D03*
D21*
X138350000Y-104462500D03*
X137850000Y-104462500D03*
X137350000Y-104462500D03*
X136850000Y-104462500D03*
D22*
X137600000Y-105900000D03*
%TD*%
D23*
%TO.C,U1*%
X143225000Y-103350000D03*
X143225000Y-104000000D03*
X143225000Y-104650000D03*
X143225000Y-105300000D03*
X145500000Y-105300000D03*
X145500000Y-104650000D03*
X145500000Y-104000000D03*
X145500000Y-103350000D03*
%TD*%
D11*
%TO.C,U3*%
X145500000Y-118420000D03*
D12*
X142637500Y-116145000D03*
X142637500Y-116795000D03*
X142637500Y-117445000D03*
X142637500Y-118095000D03*
X142637500Y-118745000D03*
X142637500Y-119395000D03*
X142637500Y-120045000D03*
X142637500Y-120695000D03*
X148362500Y-120695000D03*
X148362500Y-120045000D03*
X148362500Y-119395000D03*
X148362500Y-118745000D03*
X148362500Y-118095000D03*
X148362500Y-117445000D03*
X148362500Y-116795000D03*
X148362500Y-116145000D03*
%TD*%
M02*
