%TF.GenerationSoftware,KiCad,Pcbnew,9.0.0*%
%TF.CreationDate,2025-03-31T04:39:52+02:00*%
%TF.ProjectId,design_project,64657369-676e-45f7-9072-6f6a6563742e,rev?*%
%TF.SameCoordinates,Original*%
%TF.FileFunction,Paste,Top*%
%TF.FilePolarity,Positive*%
%FSLAX46Y46*%
G04 Gerber Fmt 4.6, Leading zero omitted, Abs format (unit mm)*
G04 Created by KiCad (PCBNEW 9.0.0) date 2025-03-31 04:39:52*
%MOMM*%
%LPD*%
G01*
G04 APERTURE LIST*
G04 Aperture macros list*
%AMRoundRect*
0 Rectangle with rounded corners*
0 $1 Rounding radius*
0 $2 $3 $4 $5 $6 $7 $8 $9 X,Y pos of 4 corners*
0 Add a 4 corners polygon primitive as box body*
4,1,4,$2,$3,$4,$5,$6,$7,$8,$9,$2,$3,0*
0 Add four circle primitives for the rounded corners*
1,1,$1+$1,$2,$3*
1,1,$1+$1,$4,$5*
1,1,$1+$1,$6,$7*
1,1,$1+$1,$8,$9*
0 Add four rect primitives between the rounded corners*
20,1,$1+$1,$2,$3,$4,$5,0*
20,1,$1+$1,$4,$5,$6,$7,0*
20,1,$1+$1,$6,$7,$8,$9,0*
20,1,$1+$1,$8,$9,$2,$3,0*%
G04 Aperture macros list end*
%ADD10C,0.100000*%
%ADD11RoundRect,0.243600X-1.406400X-0.771400X1.406400X-0.771400X1.406400X0.771400X-1.406400X0.771400X0*%
%ADD12RoundRect,0.190000X-0.510000X-0.190000X0.510000X-0.190000X0.510000X0.190000X-0.510000X0.190000X0*%
%ADD13RoundRect,0.225000X-0.225000X-0.250000X0.225000X-0.250000X0.225000X0.250000X-0.225000X0.250000X0*%
%ADD14RoundRect,0.218750X-0.218750X-0.256250X0.218750X-0.256250X0.218750X0.256250X-0.218750X0.256250X0*%
%ADD15R,0.300000X0.700000*%
%ADD16C,0.650000*%
%ADD17O,0.950000X2.280000*%
%ADD18O,1.330000X1.980000*%
%ADD19O,0.950000X1.800000*%
%ADD20R,0.700000X0.350000*%
%ADD21RoundRect,0.232500X-0.757500X-0.232500X0.757500X-0.232500X0.757500X0.232500X-0.757500X0.232500X0*%
%ADD22RoundRect,0.100000X-0.687500X-0.100000X0.687500X-0.100000X0.687500X0.100000X-0.687500X0.100000X0*%
%ADD23RoundRect,0.150000X-0.512500X-0.150000X0.512500X-0.150000X0.512500X0.150000X-0.512500X0.150000X0*%
%ADD24R,0.750000X0.650000*%
%ADD25RoundRect,0.062500X-0.187500X-0.062500X0.187500X-0.062500X0.187500X0.062500X-0.187500X0.062500X0*%
%ADD26RoundRect,0.250000X-0.595000X-1.080000X0.595000X-1.080000X0.595000X1.080000X-0.595000X1.080000X0*%
%ADD27RoundRect,0.150000X-0.687500X-0.150000X0.687500X-0.150000X0.687500X0.150000X-0.687500X0.150000X0*%
%ADD28RoundRect,0.250000X0.335000X0.335000X-0.335000X0.335000X-0.335000X-0.335000X0.335000X-0.335000X0*%
%ADD29RoundRect,0.250000X0.345000X0.335000X-0.345000X0.335000X-0.345000X-0.335000X0.345000X-0.335000X0*%
%ADD30RoundRect,0.250000X0.450000X0.335000X-0.450000X0.335000X-0.450000X-0.335000X0.450000X-0.335000X0*%
%ADD31RoundRect,0.050000X-0.225000X-0.050000X0.225000X-0.050000X0.225000X0.050000X-0.225000X0.050000X0*%
%ADD32RoundRect,0.050000X0.050000X-0.225000X0.050000X0.225000X-0.050000X0.225000X-0.050000X-0.225000X0*%
%ADD33RoundRect,0.160000X-0.160000X-0.160000X0.160000X-0.160000X0.160000X0.160000X-0.160000X0.160000X0*%
%ADD34RoundRect,0.062500X-0.375000X-0.062500X0.375000X-0.062500X0.375000X0.062500X-0.375000X0.062500X0*%
%ADD35RoundRect,0.062500X-0.062500X-0.375000X0.062500X-0.375000X0.062500X0.375000X-0.062500X0.375000X0*%
%ADD36RoundRect,0.125000X-0.537500X-0.125000X0.537500X-0.125000X0.537500X0.125000X-0.537500X0.125000X0*%
%ADD37RoundRect,0.250000X-0.255000X-0.440000X0.255000X-0.440000X0.255000X0.440000X-0.255000X0.440000X0*%
%ADD38RoundRect,0.150000X-0.825000X-0.150000X0.825000X-0.150000X0.825000X0.150000X-0.825000X0.150000X0*%
%ADD39RoundRect,0.150000X-0.587500X-0.150000X0.587500X-0.150000X0.587500X0.150000X-0.587500X0.150000X0*%
%ADD40RoundRect,0.232500X0.757500X0.232500X-0.757500X0.232500X-0.757500X-0.232500X0.757500X-0.232500X0*%
%ADD41RoundRect,0.100000X0.687500X0.100000X-0.687500X0.100000X-0.687500X-0.100000X0.687500X-0.100000X0*%
%ADD42RoundRect,0.250000X-0.850000X-0.350000X0.850000X-0.350000X0.850000X0.350000X-0.850000X0.350000X0*%
%ADD43RoundRect,0.250000X-1.275000X-1.125000X1.275000X-1.125000X1.275000X1.125000X-1.275000X1.125000X0*%
G04 APERTURE END LIST*
D10*
%TO.C,U5*%
X114120000Y-97510000D02*
X114420000Y-97510000D01*
X114420000Y-97160000D01*
X114520000Y-97160000D01*
X114520000Y-97610000D01*
X114020000Y-97610000D01*
X114020000Y-97160000D01*
X114120000Y-97160000D01*
X114120000Y-97510000D01*
G36*
X114120000Y-97510000D02*
G01*
X114420000Y-97510000D01*
X114420000Y-97160000D01*
X114520000Y-97160000D01*
X114520000Y-97610000D01*
X114020000Y-97610000D01*
X114020000Y-97160000D01*
X114120000Y-97160000D01*
X114120000Y-97510000D01*
G37*
X114920000Y-97510000D02*
X115220000Y-97510000D01*
X115220000Y-97160000D01*
X115320000Y-97160000D01*
X115320000Y-97610000D01*
X114820000Y-97610000D01*
X114820000Y-97160000D01*
X114920000Y-97160000D01*
X114920000Y-97510000D01*
G36*
X114920000Y-97510000D02*
G01*
X115220000Y-97510000D01*
X115220000Y-97160000D01*
X115320000Y-97160000D01*
X115320000Y-97610000D01*
X114820000Y-97610000D01*
X114820000Y-97160000D01*
X114920000Y-97160000D01*
X114920000Y-97510000D01*
G37*
X118420000Y-98247500D02*
X118070000Y-98247500D01*
X118070000Y-98597500D01*
X118420000Y-98597500D01*
X118420000Y-98697500D01*
X118070000Y-98697500D01*
X118070000Y-99047500D01*
X118420000Y-99047500D01*
X118420000Y-99147500D01*
X117970000Y-99147500D01*
X117970000Y-98147500D01*
X118420000Y-98147500D01*
X118420000Y-98247500D01*
G36*
X118420000Y-98247500D02*
G01*
X118070000Y-98247500D01*
X118070000Y-98597500D01*
X118420000Y-98597500D01*
X118420000Y-98697500D01*
X118070000Y-98697500D01*
X118070000Y-99047500D01*
X118420000Y-99047500D01*
X118420000Y-99147500D01*
X117970000Y-99147500D01*
X117970000Y-98147500D01*
X118420000Y-98147500D01*
X118420000Y-98247500D01*
G37*
X118420000Y-99572500D02*
X118070000Y-99572500D01*
X118070000Y-99922500D01*
X118420000Y-99922500D01*
X118420000Y-100022500D01*
X118070000Y-100022500D01*
X118070000Y-100372500D01*
X118420000Y-100372500D01*
X118420000Y-100472500D01*
X117970000Y-100472500D01*
X117970000Y-99472500D01*
X118420000Y-99472500D01*
X118420000Y-99572500D01*
G36*
X118420000Y-99572500D02*
G01*
X118070000Y-99572500D01*
X118070000Y-99922500D01*
X118420000Y-99922500D01*
X118420000Y-100022500D01*
X118070000Y-100022500D01*
X118070000Y-100372500D01*
X118420000Y-100372500D01*
X118420000Y-100472500D01*
X117970000Y-100472500D01*
X117970000Y-99472500D01*
X118420000Y-99472500D01*
X118420000Y-99572500D01*
G37*
%TD*%
D11*
%TO.C,R10*%
X136020000Y-93365000D03*
D12*
X135070000Y-95270000D03*
X141930000Y-92730000D03*
D11*
X140980000Y-94635000D03*
%TD*%
%TO.C,R9*%
X129500000Y-82500000D03*
D12*
X128550000Y-84405000D03*
X135410000Y-81865000D03*
D11*
X134460000Y-83770000D03*
%TD*%
D13*
%TO.C,R1*%
X146000000Y-105500000D03*
X147550000Y-105500000D03*
%TD*%
D14*
%TO.C,L1*%
X122925000Y-83000000D03*
X124500000Y-83000000D03*
%TD*%
D15*
%TO.C,J3*%
X90850000Y-81490000D03*
X91350000Y-81490000D03*
X91850000Y-81490000D03*
X92350000Y-81490000D03*
X92850000Y-81490000D03*
X93350000Y-81490000D03*
X93850000Y-81490000D03*
X94350000Y-81490000D03*
X94850000Y-81490000D03*
X95350000Y-81490000D03*
X95850000Y-81490000D03*
X96350000Y-81490000D03*
D16*
X96400000Y-82600000D03*
X96000000Y-83500000D03*
X95200000Y-83500000D03*
X94800000Y-82600000D03*
X94400000Y-83500000D03*
X94000000Y-82600000D03*
X93200000Y-82600000D03*
X92800000Y-83500000D03*
X92400000Y-82600000D03*
X92000000Y-83500000D03*
X91200000Y-83500000D03*
X90800000Y-82600000D03*
D17*
X89025000Y-86660000D03*
D18*
X89210000Y-83750000D03*
D19*
X89305000Y-81770000D03*
D20*
X90225000Y-80705000D03*
X96975000Y-80705000D03*
D19*
X97895000Y-81770000D03*
D18*
X97990000Y-83750000D03*
D17*
X98175000Y-86660000D03*
%TD*%
D13*
%TO.C,C10*%
X109225000Y-94500000D03*
X110775000Y-94500000D03*
%TD*%
%TO.C,C9*%
X152000000Y-84500000D03*
X153550000Y-84500000D03*
%TD*%
%TO.C,C8*%
X151725000Y-89280000D03*
X153275000Y-89280000D03*
%TD*%
%TO.C,C7*%
X141990000Y-105500000D03*
X143540000Y-105500000D03*
%TD*%
%TO.C,C6*%
X118927500Y-83000000D03*
X120477500Y-83000000D03*
%TD*%
%TO.C,C5*%
X114337500Y-115535000D03*
X115887500Y-115535000D03*
%TD*%
%TO.C,C2*%
X114337500Y-113025000D03*
X115887500Y-113025000D03*
%TD*%
%TO.C,C1*%
X145725000Y-98990000D03*
X147275000Y-98990000D03*
%TD*%
D21*
%TO.C,U2*%
X115362500Y-112445000D03*
X115362500Y-113605000D03*
D22*
X112500000Y-110750000D03*
X112500000Y-111400000D03*
X112500000Y-112050000D03*
X112500000Y-112700000D03*
X112500000Y-113350000D03*
X112500000Y-114000000D03*
X112500000Y-114650000D03*
X112500000Y-115300000D03*
X118225000Y-115300000D03*
X118225000Y-114650000D03*
X118225000Y-114000000D03*
X118225000Y-113350000D03*
X118225000Y-112700000D03*
X118225000Y-112050000D03*
X118225000Y-111400000D03*
X118225000Y-110750000D03*
%TD*%
D23*
%TO.C,U7*%
X128862500Y-92550000D03*
X128862500Y-93500000D03*
X128862500Y-94450000D03*
X131137500Y-94450000D03*
X131137500Y-92550000D03*
%TD*%
D24*
%TO.C,U7*%
X142000000Y-85600000D03*
X142000000Y-86400000D03*
D25*
X141050000Y-85250000D03*
X141050000Y-85750000D03*
X141050000Y-86250000D03*
X141050000Y-86750000D03*
X142950000Y-86750000D03*
X142950000Y-86250000D03*
X142950000Y-85750000D03*
X142950000Y-85250000D03*
%TD*%
D23*
%TO.C,U6*%
X141500000Y-80000000D03*
X141500000Y-80950000D03*
X141500000Y-81900000D03*
X143775000Y-81900000D03*
X143775000Y-80950000D03*
X143775000Y-80000000D03*
%TD*%
D26*
%TO.C,U8*%
X106362500Y-83000000D03*
D27*
X103725000Y-81000000D03*
X103725000Y-82000000D03*
X103725000Y-83000000D03*
X103725000Y-84000000D03*
X103725000Y-85000000D03*
X109000000Y-85000000D03*
X109000000Y-84000000D03*
X109000000Y-83000000D03*
X109000000Y-82000000D03*
X109000000Y-81000000D03*
%TD*%
D28*
%TO.C,U5*%
X113610000Y-98620000D03*
D29*
X113610000Y-100000000D03*
D28*
X115000000Y-98620000D03*
D29*
X115000000Y-100000000D03*
D30*
X116830000Y-98620000D03*
X116830000Y-100000000D03*
D31*
X112345000Y-98310000D03*
X112345000Y-98710000D03*
X112345000Y-99110000D03*
X112345000Y-99510000D03*
X112345000Y-99910000D03*
X112345000Y-100310000D03*
D32*
X112870000Y-101235000D03*
X113270000Y-101235000D03*
X113670000Y-101235000D03*
X114070000Y-101235000D03*
X114470000Y-101235000D03*
X114870000Y-101235000D03*
X115270000Y-101235000D03*
X115670000Y-101235000D03*
X116070000Y-101235000D03*
X116470000Y-101235000D03*
X116870000Y-101235000D03*
X117270000Y-101235000D03*
X117670000Y-101235000D03*
X117670000Y-97385000D03*
X117270000Y-97385000D03*
X116870000Y-97385000D03*
X116470000Y-97385000D03*
X116070000Y-97385000D03*
X115670000Y-97385000D03*
X113670000Y-97385000D03*
X113270000Y-97385000D03*
X112870000Y-97385000D03*
%TD*%
D23*
%TO.C,U9*%
X122225000Y-98050000D03*
X122225000Y-99000000D03*
X122225000Y-99950000D03*
X124500000Y-99950000D03*
X124500000Y-99000000D03*
X124500000Y-98050000D03*
%TD*%
D33*
%TO.C,U4*%
X147662500Y-92850000D03*
X147662500Y-93650000D03*
X148462500Y-92850000D03*
X148462500Y-93650000D03*
D34*
X146625000Y-92500000D03*
X146625000Y-93000000D03*
X146625000Y-93500000D03*
X146625000Y-94000000D03*
D35*
X147312500Y-94687500D03*
X147812500Y-94687500D03*
X148312500Y-94687500D03*
X148812500Y-94687500D03*
D34*
X149500000Y-94000000D03*
X149500000Y-93500000D03*
X149500000Y-93000000D03*
X149500000Y-92500000D03*
D35*
X148812500Y-91812500D03*
X148312500Y-91812500D03*
X147812500Y-91812500D03*
X147312500Y-91812500D03*
%TD*%
D36*
%TO.C,U1*%
X141225000Y-87550000D03*
X141225000Y-88200000D03*
X141225000Y-88850000D03*
X141225000Y-89500000D03*
X143500000Y-89500000D03*
X143500000Y-88850000D03*
X143500000Y-88200000D03*
X143500000Y-87550000D03*
%TD*%
D37*
%TO.C,U6*%
X127100000Y-112375000D03*
X127100000Y-114025000D03*
X128300000Y-112375000D03*
X128300000Y-114025000D03*
D38*
X125225000Y-111295000D03*
X125225000Y-112565000D03*
X125225000Y-113835000D03*
X125225000Y-115105000D03*
X130175000Y-115105000D03*
X130175000Y-113835000D03*
X130175000Y-112565000D03*
X130175000Y-111295000D03*
%TD*%
D39*
%TO.C,Q3*%
X106062500Y-102050000D03*
X106062500Y-103950000D03*
X107937500Y-103000000D03*
%TD*%
D40*
%TO.C,U3*%
X142750000Y-114080000D03*
X142750000Y-112920000D03*
D41*
X145612500Y-115775000D03*
X145612500Y-115125000D03*
X145612500Y-114475000D03*
X145612500Y-113825000D03*
X145612500Y-113175000D03*
X145612500Y-112525000D03*
X145612500Y-111875000D03*
X145612500Y-111225000D03*
X139887500Y-111225000D03*
X139887500Y-111875000D03*
X139887500Y-112525000D03*
X139887500Y-113175000D03*
X139887500Y-113825000D03*
X139887500Y-114475000D03*
X139887500Y-115125000D03*
X139887500Y-115775000D03*
%TD*%
D39*
%TO.C,Q1*%
X120125000Y-90550000D03*
X120125000Y-92450000D03*
X122000000Y-91500000D03*
%TD*%
D42*
%TO.C,U5*%
X130025000Y-101195000D03*
X130025000Y-103475000D03*
D43*
X134650000Y-101950000D03*
X134650000Y-105000000D03*
X138000000Y-101950000D03*
X138000000Y-105000000D03*
D42*
X130025000Y-105755000D03*
%TD*%
D23*
%TO.C,U10*%
X103862500Y-95550000D03*
X103862500Y-96500000D03*
X103862500Y-97450000D03*
X106137500Y-97450000D03*
X106137500Y-95550000D03*
%TD*%
M02*
