%TF.GenerationSoftware,KiCad,Pcbnew,9.0.0*%
%TF.CreationDate,2025-03-31T04:39:53+02:00*%
%TF.ProjectId,design_project,64657369-676e-45f7-9072-6f6a6563742e,rev?*%
%TF.SameCoordinates,Original*%
%TF.FileFunction,Soldermask,Bot*%
%TF.FilePolarity,Negative*%
%FSLAX46Y46*%
G04 Gerber Fmt 4.6, Leading zero omitted, Abs format (unit mm)*
G04 Created by KiCad (PCBNEW 9.0.0) date 2025-03-31 04:39:53*
%MOMM*%
%LPD*%
G01*
G04 APERTURE LIST*
G04 Aperture macros list*
%AMRoundRect*
0 Rectangle with rounded corners*
0 $1 Rounding radius*
0 $2 $3 $4 $5 $6 $7 $8 $9 X,Y pos of 4 corners*
0 Add a 4 corners polygon primitive as box body*
4,1,4,$2,$3,$4,$5,$6,$7,$8,$9,$2,$3,0*
0 Add four circle primitives for the rounded corners*
1,1,$1+$1,$2,$3*
1,1,$1+$1,$4,$5*
1,1,$1+$1,$6,$7*
1,1,$1+$1,$8,$9*
0 Add four rect primitives between the rounded corners*
20,1,$1+$1,$2,$3,$4,$5,0*
20,1,$1+$1,$4,$5,$6,$7,0*
20,1,$1+$1,$6,$7,$8,$9,0*
20,1,$1+$1,$8,$9,$2,$3,0*%
G04 Aperture macros list end*
%ADD10R,1.350000X1.350000*%
%ADD11O,1.350000X1.350000*%
%ADD12RoundRect,0.250000X-0.350000X-0.625000X0.350000X-0.625000X0.350000X0.625000X-0.350000X0.625000X0*%
%ADD13O,1.200000X1.750000*%
%ADD14C,1.600000*%
%ADD15O,1.600000X1.600000*%
%ADD16C,0.650000*%
%ADD17O,0.950000X2.280000*%
%ADD18O,1.330000X1.980000*%
%ADD19O,0.950000X1.800000*%
%ADD20R,1.500000X1.500000*%
G04 APERTURE END LIST*
D10*
%TO.C,J2*%
X113000000Y-123000000D03*
D11*
X113000000Y-121000000D03*
X115000000Y-123000000D03*
X115000000Y-121000000D03*
X117000000Y-123000000D03*
X117000000Y-121000000D03*
X119000000Y-123000000D03*
X119000000Y-121000000D03*
X121000000Y-123000000D03*
X121000000Y-121000000D03*
X123000000Y-123000000D03*
X123000000Y-121000000D03*
X125000000Y-123000000D03*
X125000000Y-121000000D03*
X127000000Y-123000000D03*
X127000000Y-121000000D03*
X129000000Y-123000000D03*
X129000000Y-121000000D03*
X131000000Y-123000000D03*
X131000000Y-121000000D03*
X133000000Y-123000000D03*
X133000000Y-121000000D03*
X135000000Y-123000000D03*
X135000000Y-121000000D03*
X137000000Y-123000000D03*
X137000000Y-121000000D03*
X139000000Y-123000000D03*
X139000000Y-121000000D03*
X141000000Y-123000000D03*
X141000000Y-121000000D03*
X143000000Y-123000000D03*
X143000000Y-121000000D03*
%TD*%
D12*
%TO.C,J1*%
X104500000Y-114550000D03*
D13*
X106500000Y-114550000D03*
%TD*%
D14*
%TO.C,R17*%
X157690000Y-108600000D03*
D15*
X165310000Y-108600000D03*
%TD*%
D14*
%TO.C,R16*%
X157690000Y-104550000D03*
D15*
X165310000Y-104550000D03*
%TD*%
D14*
%TO.C,R15*%
X157690000Y-100500000D03*
D15*
X165310000Y-100500000D03*
%TD*%
D14*
%TO.C,R14*%
X157690000Y-96450000D03*
D15*
X165310000Y-96450000D03*
%TD*%
D14*
%TO.C,R13*%
X157690000Y-92400000D03*
D15*
X165310000Y-92400000D03*
%TD*%
D14*
%TO.C,R12*%
X157690000Y-88350000D03*
D15*
X165310000Y-88350000D03*
%TD*%
D14*
%TO.C,R11*%
X157880000Y-83400000D03*
D15*
X165500000Y-83400000D03*
%TD*%
D14*
%TO.C,R8*%
X90190000Y-119000000D03*
D15*
X97810000Y-119000000D03*
%TD*%
D14*
%TO.C,R7*%
X90380000Y-114500000D03*
D15*
X98000000Y-114500000D03*
%TD*%
D14*
%TO.C,R6*%
X90380000Y-110450000D03*
D15*
X98000000Y-110450000D03*
%TD*%
D14*
%TO.C,R5*%
X90380000Y-106400000D03*
D15*
X98000000Y-106400000D03*
%TD*%
D14*
%TO.C,R4*%
X90380000Y-102350000D03*
D15*
X98000000Y-102350000D03*
%TD*%
D14*
%TO.C,R3*%
X90380000Y-98300000D03*
D15*
X98000000Y-98300000D03*
%TD*%
D14*
%TO.C,R2*%
X90190000Y-94500000D03*
D15*
X97810000Y-94500000D03*
%TD*%
D16*
%TO.C,J3*%
X96400000Y-82600000D03*
X96000000Y-83500000D03*
X95200000Y-83500000D03*
X94800000Y-82600000D03*
X94400000Y-83500000D03*
X94000000Y-82600000D03*
X93200000Y-82600000D03*
X92800000Y-83500000D03*
X92400000Y-82600000D03*
X92000000Y-83500000D03*
X91200000Y-83500000D03*
X90800000Y-82600000D03*
D17*
X89025000Y-86660000D03*
D18*
X89210000Y-83750000D03*
D19*
X89305000Y-81770000D03*
X97895000Y-81770000D03*
D18*
X97990000Y-83750000D03*
D17*
X98175000Y-86660000D03*
%TD*%
D20*
%TO.C,SW1*%
X120460000Y-106000000D03*
D14*
X117920000Y-106000000D03*
X123000000Y-106000000D03*
%TD*%
M02*
