%TF.GenerationSoftware,KiCad,Pcbnew,9.0.0*%
%TF.CreationDate,2025-03-31T04:39:52+02:00*%
%TF.ProjectId,design_project,64657369-676e-45f7-9072-6f6a6563742e,rev?*%
%TF.SameCoordinates,Original*%
%TF.FileFunction,Copper,L2,Bot*%
%TF.FilePolarity,Positive*%
%FSLAX46Y46*%
G04 Gerber Fmt 4.6, Leading zero omitted, Abs format (unit mm)*
G04 Created by KiCad (PCBNEW 9.0.0) date 2025-03-31 04:39:52*
%MOMM*%
%LPD*%
G01*
G04 APERTURE LIST*
G04 Aperture macros list*
%AMRoundRect*
0 Rectangle with rounded corners*
0 $1 Rounding radius*
0 $2 $3 $4 $5 $6 $7 $8 $9 X,Y pos of 4 corners*
0 Add a 4 corners polygon primitive as box body*
4,1,4,$2,$3,$4,$5,$6,$7,$8,$9,$2,$3,0*
0 Add four circle primitives for the rounded corners*
1,1,$1+$1,$2,$3*
1,1,$1+$1,$4,$5*
1,1,$1+$1,$6,$7*
1,1,$1+$1,$8,$9*
0 Add four rect primitives between the rounded corners*
20,1,$1+$1,$2,$3,$4,$5,0*
20,1,$1+$1,$4,$5,$6,$7,0*
20,1,$1+$1,$6,$7,$8,$9,0*
20,1,$1+$1,$8,$9,$2,$3,0*%
G04 Aperture macros list end*
%ADD10C,0.300000*%
%TA.AperFunction,NonConductor*%
%ADD11C,0.300000*%
%TD*%
%TA.AperFunction,ComponentPad*%
%ADD12R,1.350000X1.350000*%
%TD*%
%TA.AperFunction,ComponentPad*%
%ADD13O,1.350000X1.350000*%
%TD*%
%TA.AperFunction,ComponentPad*%
%ADD14RoundRect,0.250000X-0.350000X-0.625000X0.350000X-0.625000X0.350000X0.625000X-0.350000X0.625000X0*%
%TD*%
%TA.AperFunction,ComponentPad*%
%ADD15O,1.200000X1.750000*%
%TD*%
%TA.AperFunction,ComponentPad*%
%ADD16C,1.600000*%
%TD*%
%TA.AperFunction,ComponentPad*%
%ADD17O,1.600000X1.600000*%
%TD*%
%TA.AperFunction,HeatsinkPad*%
%ADD18C,0.650000*%
%TD*%
%TA.AperFunction,HeatsinkPad*%
%ADD19O,0.950000X2.280000*%
%TD*%
%TA.AperFunction,HeatsinkPad*%
%ADD20O,1.330000X1.980000*%
%TD*%
%TA.AperFunction,HeatsinkPad*%
%ADD21O,0.950000X1.800000*%
%TD*%
%TA.AperFunction,HeatsinkPad*%
%ADD22C,0.500000*%
%TD*%
%TA.AperFunction,HeatsinkPad*%
%ADD23R,2.000000X3.500000*%
%TD*%
%TA.AperFunction,HeatsinkPad*%
%ADD24C,0.600000*%
%TD*%
%TA.AperFunction,SMDPad,CuDef*%
%ADD25R,0.900000X1.600000*%
%TD*%
%TA.AperFunction,HeatsinkPad*%
%ADD26RoundRect,0.250000X1.110000X1.075000X-1.110000X1.075000X-1.110000X-1.075000X1.110000X-1.075000X0*%
%TD*%
%TA.AperFunction,HeatsinkPad*%
%ADD27RoundRect,0.250000X0.515000X1.075000X-0.515000X1.075000X-0.515000X-1.075000X0.515000X-1.075000X0*%
%TD*%
%TA.AperFunction,ComponentPad*%
%ADD28R,1.500000X1.500000*%
%TD*%
%TA.AperFunction,HeatsinkPad*%
%ADD29R,1.900000X2.900000*%
%TD*%
%TA.AperFunction,Conductor*%
%ADD30C,0.200000*%
%TD*%
G04 APERTURE END LIST*
D10*
D11*
X112911653Y-132114087D02*
X112411653Y-132828373D01*
X112054510Y-132114087D02*
X112054510Y-133614087D01*
X112054510Y-133614087D02*
X112625939Y-133614087D01*
X112625939Y-133614087D02*
X112768796Y-133542658D01*
X112768796Y-133542658D02*
X112840225Y-133471230D01*
X112840225Y-133471230D02*
X112911653Y-133328373D01*
X112911653Y-133328373D02*
X112911653Y-133114087D01*
X112911653Y-133114087D02*
X112840225Y-132971230D01*
X112840225Y-132971230D02*
X112768796Y-132899801D01*
X112768796Y-132899801D02*
X112625939Y-132828373D01*
X112625939Y-132828373D02*
X112054510Y-132828373D01*
X114197368Y-132114087D02*
X114197368Y-132899801D01*
X114197368Y-132899801D02*
X114125939Y-133042658D01*
X114125939Y-133042658D02*
X113983082Y-133114087D01*
X113983082Y-133114087D02*
X113697368Y-133114087D01*
X113697368Y-133114087D02*
X113554510Y-133042658D01*
X114197368Y-132185516D02*
X114054510Y-132114087D01*
X114054510Y-132114087D02*
X113697368Y-132114087D01*
X113697368Y-132114087D02*
X113554510Y-132185516D01*
X113554510Y-132185516D02*
X113483082Y-132328373D01*
X113483082Y-132328373D02*
X113483082Y-132471230D01*
X113483082Y-132471230D02*
X113554510Y-132614087D01*
X113554510Y-132614087D02*
X113697368Y-132685516D01*
X113697368Y-132685516D02*
X114054510Y-132685516D01*
X114054510Y-132685516D02*
X114197368Y-132756944D01*
X115554511Y-132114087D02*
X115554511Y-133614087D01*
X115554511Y-132185516D02*
X115411653Y-132114087D01*
X115411653Y-132114087D02*
X115125939Y-132114087D01*
X115125939Y-132114087D02*
X114983082Y-132185516D01*
X114983082Y-132185516D02*
X114911653Y-132256944D01*
X114911653Y-132256944D02*
X114840225Y-132399801D01*
X114840225Y-132399801D02*
X114840225Y-132828373D01*
X114840225Y-132828373D02*
X114911653Y-132971230D01*
X114911653Y-132971230D02*
X114983082Y-133042658D01*
X114983082Y-133042658D02*
X115125939Y-133114087D01*
X115125939Y-133114087D02*
X115411653Y-133114087D01*
X115411653Y-133114087D02*
X115554511Y-133042658D01*
X116268796Y-133114087D02*
X116268796Y-131828373D01*
X116268796Y-131828373D02*
X116197368Y-131685516D01*
X116197368Y-131685516D02*
X116054511Y-131614087D01*
X116054511Y-131614087D02*
X115983082Y-131614087D01*
X116268796Y-133614087D02*
X116197368Y-133542658D01*
X116197368Y-133542658D02*
X116268796Y-133471230D01*
X116268796Y-133471230D02*
X116340225Y-133542658D01*
X116340225Y-133542658D02*
X116268796Y-133614087D01*
X116268796Y-133614087D02*
X116268796Y-133471230D01*
X117625940Y-132114087D02*
X117625940Y-132899801D01*
X117625940Y-132899801D02*
X117554511Y-133042658D01*
X117554511Y-133042658D02*
X117411654Y-133114087D01*
X117411654Y-133114087D02*
X117125940Y-133114087D01*
X117125940Y-133114087D02*
X116983082Y-133042658D01*
X117625940Y-132185516D02*
X117483082Y-132114087D01*
X117483082Y-132114087D02*
X117125940Y-132114087D01*
X117125940Y-132114087D02*
X116983082Y-132185516D01*
X116983082Y-132185516D02*
X116911654Y-132328373D01*
X116911654Y-132328373D02*
X116911654Y-132471230D01*
X116911654Y-132471230D02*
X116983082Y-132614087D01*
X116983082Y-132614087D02*
X117125940Y-132685516D01*
X117125940Y-132685516D02*
X117483082Y-132685516D01*
X117483082Y-132685516D02*
X117625940Y-132756944D01*
X118983083Y-132114087D02*
X118983083Y-133614087D01*
X118983083Y-132185516D02*
X118840225Y-132114087D01*
X118840225Y-132114087D02*
X118554511Y-132114087D01*
X118554511Y-132114087D02*
X118411654Y-132185516D01*
X118411654Y-132185516D02*
X118340225Y-132256944D01*
X118340225Y-132256944D02*
X118268797Y-132399801D01*
X118268797Y-132399801D02*
X118268797Y-132828373D01*
X118268797Y-132828373D02*
X118340225Y-132971230D01*
X118340225Y-132971230D02*
X118411654Y-133042658D01*
X118411654Y-133042658D02*
X118554511Y-133114087D01*
X118554511Y-133114087D02*
X118840225Y-133114087D01*
X118840225Y-133114087D02*
X118983083Y-133042658D01*
X119697368Y-133114087D02*
X119697368Y-131828373D01*
X119697368Y-131828373D02*
X119625940Y-131685516D01*
X119625940Y-131685516D02*
X119483083Y-131614087D01*
X119483083Y-131614087D02*
X119411654Y-131614087D01*
X119697368Y-133614087D02*
X119625940Y-133542658D01*
X119625940Y-133542658D02*
X119697368Y-133471230D01*
X119697368Y-133471230D02*
X119768797Y-133542658D01*
X119768797Y-133542658D02*
X119697368Y-133614087D01*
X119697368Y-133614087D02*
X119697368Y-133471230D01*
X120411654Y-132114087D02*
X120411654Y-133114087D01*
X120411654Y-133614087D02*
X120340226Y-133542658D01*
X120340226Y-133542658D02*
X120411654Y-133471230D01*
X120411654Y-133471230D02*
X120483083Y-133542658D01*
X120483083Y-133542658D02*
X120411654Y-133614087D01*
X120411654Y-133614087D02*
X120411654Y-133471230D01*
X122054512Y-133614087D02*
X122911655Y-133614087D01*
X122483083Y-132114087D02*
X122483083Y-133614087D01*
X123411654Y-132114087D02*
X123411654Y-133614087D01*
X124054512Y-132114087D02*
X124054512Y-132899801D01*
X124054512Y-132899801D02*
X123983083Y-133042658D01*
X123983083Y-133042658D02*
X123840226Y-133114087D01*
X123840226Y-133114087D02*
X123625940Y-133114087D01*
X123625940Y-133114087D02*
X123483083Y-133042658D01*
X123483083Y-133042658D02*
X123411654Y-132971230D01*
X125411655Y-132114087D02*
X125411655Y-132899801D01*
X125411655Y-132899801D02*
X125340226Y-133042658D01*
X125340226Y-133042658D02*
X125197369Y-133114087D01*
X125197369Y-133114087D02*
X124911655Y-133114087D01*
X124911655Y-133114087D02*
X124768797Y-133042658D01*
X125411655Y-132185516D02*
X125268797Y-132114087D01*
X125268797Y-132114087D02*
X124911655Y-132114087D01*
X124911655Y-132114087D02*
X124768797Y-132185516D01*
X124768797Y-132185516D02*
X124697369Y-132328373D01*
X124697369Y-132328373D02*
X124697369Y-132471230D01*
X124697369Y-132471230D02*
X124768797Y-132614087D01*
X124768797Y-132614087D02*
X124911655Y-132685516D01*
X124911655Y-132685516D02*
X125268797Y-132685516D01*
X125268797Y-132685516D02*
X125411655Y-132756944D01*
X126125940Y-132114087D02*
X126125940Y-133614087D01*
X126125940Y-133042658D02*
X126268798Y-133114087D01*
X126268798Y-133114087D02*
X126554512Y-133114087D01*
X126554512Y-133114087D02*
X126697369Y-133042658D01*
X126697369Y-133042658D02*
X126768798Y-132971230D01*
X126768798Y-132971230D02*
X126840226Y-132828373D01*
X126840226Y-132828373D02*
X126840226Y-132399801D01*
X126840226Y-132399801D02*
X126768798Y-132256944D01*
X126768798Y-132256944D02*
X126697369Y-132185516D01*
X126697369Y-132185516D02*
X126554512Y-132114087D01*
X126554512Y-132114087D02*
X126268798Y-132114087D01*
X126268798Y-132114087D02*
X126125940Y-132185516D01*
X127697369Y-132114087D02*
X127554512Y-132185516D01*
X127554512Y-132185516D02*
X127483083Y-132256944D01*
X127483083Y-132256944D02*
X127411655Y-132399801D01*
X127411655Y-132399801D02*
X127411655Y-132828373D01*
X127411655Y-132828373D02*
X127483083Y-132971230D01*
X127483083Y-132971230D02*
X127554512Y-133042658D01*
X127554512Y-133042658D02*
X127697369Y-133114087D01*
X127697369Y-133114087D02*
X127911655Y-133114087D01*
X127911655Y-133114087D02*
X128054512Y-133042658D01*
X128054512Y-133042658D02*
X128125941Y-132971230D01*
X128125941Y-132971230D02*
X128197369Y-132828373D01*
X128197369Y-132828373D02*
X128197369Y-132399801D01*
X128197369Y-132399801D02*
X128125941Y-132256944D01*
X128125941Y-132256944D02*
X128054512Y-132185516D01*
X128054512Y-132185516D02*
X127911655Y-132114087D01*
X127911655Y-132114087D02*
X127697369Y-132114087D01*
X130840226Y-132114087D02*
X130340226Y-132828373D01*
X129983083Y-132114087D02*
X129983083Y-133614087D01*
X129983083Y-133614087D02*
X130554512Y-133614087D01*
X130554512Y-133614087D02*
X130697369Y-133542658D01*
X130697369Y-133542658D02*
X130768798Y-133471230D01*
X130768798Y-133471230D02*
X130840226Y-133328373D01*
X130840226Y-133328373D02*
X130840226Y-133114087D01*
X130840226Y-133114087D02*
X130768798Y-132971230D01*
X130768798Y-132971230D02*
X130697369Y-132899801D01*
X130697369Y-132899801D02*
X130554512Y-132828373D01*
X130554512Y-132828373D02*
X129983083Y-132828373D01*
X131483083Y-132114087D02*
X131483083Y-133614087D01*
X131483083Y-133614087D02*
X131840226Y-133614087D01*
X131840226Y-133614087D02*
X132054512Y-133542658D01*
X132054512Y-133542658D02*
X132197369Y-133399801D01*
X132197369Y-133399801D02*
X132268798Y-133256944D01*
X132268798Y-133256944D02*
X132340226Y-132971230D01*
X132340226Y-132971230D02*
X132340226Y-132756944D01*
X132340226Y-132756944D02*
X132268798Y-132471230D01*
X132268798Y-132471230D02*
X132197369Y-132328373D01*
X132197369Y-132328373D02*
X132054512Y-132185516D01*
X132054512Y-132185516D02*
X131840226Y-132114087D01*
X131840226Y-132114087D02*
X131483083Y-132114087D01*
X133411655Y-133614087D02*
X133411655Y-132542658D01*
X133411655Y-132542658D02*
X133340226Y-132328373D01*
X133340226Y-132328373D02*
X133197369Y-132185516D01*
X133197369Y-132185516D02*
X132983083Y-132114087D01*
X132983083Y-132114087D02*
X132840226Y-132114087D01*
X133911655Y-133614087D02*
X134768798Y-133614087D01*
X134340226Y-132114087D02*
X134340226Y-133614087D01*
X135268797Y-132114087D02*
X135268797Y-133614087D01*
X135268797Y-132899801D02*
X136125940Y-132899801D01*
X136125940Y-132114087D02*
X136125940Y-133614087D01*
X136768798Y-132542658D02*
X137483084Y-132542658D01*
X136625941Y-132114087D02*
X137125941Y-133614087D01*
X137125941Y-133614087D02*
X137625941Y-132114087D01*
X138411655Y-133614087D02*
X138554512Y-133614087D01*
X138554512Y-133614087D02*
X138697369Y-133542658D01*
X138697369Y-133542658D02*
X138768798Y-133471230D01*
X138768798Y-133471230D02*
X138840226Y-133328373D01*
X138840226Y-133328373D02*
X138911655Y-133042658D01*
X138911655Y-133042658D02*
X138911655Y-132685516D01*
X138911655Y-132685516D02*
X138840226Y-132399801D01*
X138840226Y-132399801D02*
X138768798Y-132256944D01*
X138768798Y-132256944D02*
X138697369Y-132185516D01*
X138697369Y-132185516D02*
X138554512Y-132114087D01*
X138554512Y-132114087D02*
X138411655Y-132114087D01*
X138411655Y-132114087D02*
X138268798Y-132185516D01*
X138268798Y-132185516D02*
X138197369Y-132256944D01*
X138197369Y-132256944D02*
X138125940Y-132399801D01*
X138125940Y-132399801D02*
X138054512Y-132685516D01*
X138054512Y-132685516D02*
X138054512Y-133042658D01*
X138054512Y-133042658D02*
X138125940Y-133328373D01*
X138125940Y-133328373D02*
X138197369Y-133471230D01*
X138197369Y-133471230D02*
X138268798Y-133542658D01*
X138268798Y-133542658D02*
X138411655Y-133614087D01*
X139840226Y-133614087D02*
X139983083Y-133614087D01*
X139983083Y-133614087D02*
X140125940Y-133542658D01*
X140125940Y-133542658D02*
X140197369Y-133471230D01*
X140197369Y-133471230D02*
X140268797Y-133328373D01*
X140268797Y-133328373D02*
X140340226Y-133042658D01*
X140340226Y-133042658D02*
X140340226Y-132685516D01*
X140340226Y-132685516D02*
X140268797Y-132399801D01*
X140268797Y-132399801D02*
X140197369Y-132256944D01*
X140197369Y-132256944D02*
X140125940Y-132185516D01*
X140125940Y-132185516D02*
X139983083Y-132114087D01*
X139983083Y-132114087D02*
X139840226Y-132114087D01*
X139840226Y-132114087D02*
X139697369Y-132185516D01*
X139697369Y-132185516D02*
X139625940Y-132256944D01*
X139625940Y-132256944D02*
X139554511Y-132399801D01*
X139554511Y-132399801D02*
X139483083Y-132685516D01*
X139483083Y-132685516D02*
X139483083Y-133042658D01*
X139483083Y-133042658D02*
X139554511Y-133328373D01*
X139554511Y-133328373D02*
X139625940Y-133471230D01*
X139625940Y-133471230D02*
X139697369Y-133542658D01*
X139697369Y-133542658D02*
X139840226Y-133614087D01*
X141768797Y-132114087D02*
X140911654Y-132114087D01*
X141340225Y-132114087D02*
X141340225Y-133614087D01*
X141340225Y-133614087D02*
X141197368Y-133399801D01*
X141197368Y-133399801D02*
X141054511Y-133256944D01*
X141054511Y-133256944D02*
X140911654Y-133185516D01*
X112483082Y-131199171D02*
X112483082Y-130127742D01*
X112483082Y-130127742D02*
X112411653Y-129913457D01*
X112411653Y-129913457D02*
X112268796Y-129770600D01*
X112268796Y-129770600D02*
X112054510Y-129699171D01*
X112054510Y-129699171D02*
X111911653Y-129699171D01*
X113840225Y-129699171D02*
X113840225Y-130484885D01*
X113840225Y-130484885D02*
X113768796Y-130627742D01*
X113768796Y-130627742D02*
X113625939Y-130699171D01*
X113625939Y-130699171D02*
X113340225Y-130699171D01*
X113340225Y-130699171D02*
X113197367Y-130627742D01*
X113840225Y-129770600D02*
X113697367Y-129699171D01*
X113697367Y-129699171D02*
X113340225Y-129699171D01*
X113340225Y-129699171D02*
X113197367Y-129770600D01*
X113197367Y-129770600D02*
X113125939Y-129913457D01*
X113125939Y-129913457D02*
X113125939Y-130056314D01*
X113125939Y-130056314D02*
X113197367Y-130199171D01*
X113197367Y-130199171D02*
X113340225Y-130270600D01*
X113340225Y-130270600D02*
X113697367Y-130270600D01*
X113697367Y-130270600D02*
X113840225Y-130342028D01*
X114554510Y-129699171D02*
X114554510Y-130699171D01*
X114554510Y-130556314D02*
X114625939Y-130627742D01*
X114625939Y-130627742D02*
X114768796Y-130699171D01*
X114768796Y-130699171D02*
X114983082Y-130699171D01*
X114983082Y-130699171D02*
X115125939Y-130627742D01*
X115125939Y-130627742D02*
X115197368Y-130484885D01*
X115197368Y-130484885D02*
X115197368Y-129699171D01*
X115197368Y-130484885D02*
X115268796Y-130627742D01*
X115268796Y-130627742D02*
X115411653Y-130699171D01*
X115411653Y-130699171D02*
X115625939Y-130699171D01*
X115625939Y-130699171D02*
X115768796Y-130627742D01*
X115768796Y-130627742D02*
X115840225Y-130484885D01*
X115840225Y-130484885D02*
X115840225Y-129699171D01*
X117125939Y-129770600D02*
X116983082Y-129699171D01*
X116983082Y-129699171D02*
X116697368Y-129699171D01*
X116697368Y-129699171D02*
X116554510Y-129770600D01*
X116554510Y-129770600D02*
X116483082Y-129913457D01*
X116483082Y-129913457D02*
X116483082Y-130484885D01*
X116483082Y-130484885D02*
X116554510Y-130627742D01*
X116554510Y-130627742D02*
X116697368Y-130699171D01*
X116697368Y-130699171D02*
X116983082Y-130699171D01*
X116983082Y-130699171D02*
X117125939Y-130627742D01*
X117125939Y-130627742D02*
X117197368Y-130484885D01*
X117197368Y-130484885D02*
X117197368Y-130342028D01*
X117197368Y-130342028D02*
X116483082Y-130199171D01*
X117768796Y-129770600D02*
X117911653Y-129699171D01*
X117911653Y-129699171D02*
X118197367Y-129699171D01*
X118197367Y-129699171D02*
X118340224Y-129770600D01*
X118340224Y-129770600D02*
X118411653Y-129913457D01*
X118411653Y-129913457D02*
X118411653Y-129984885D01*
X118411653Y-129984885D02*
X118340224Y-130127742D01*
X118340224Y-130127742D02*
X118197367Y-130199171D01*
X118197367Y-130199171D02*
X117983082Y-130199171D01*
X117983082Y-130199171D02*
X117840224Y-130270600D01*
X117840224Y-130270600D02*
X117768796Y-130413457D01*
X117768796Y-130413457D02*
X117768796Y-130484885D01*
X117768796Y-130484885D02*
X117840224Y-130627742D01*
X117840224Y-130627742D02*
X117983082Y-130699171D01*
X117983082Y-130699171D02*
X118197367Y-130699171D01*
X118197367Y-130699171D02*
X118340224Y-130627742D01*
X119268796Y-129699171D02*
X119125939Y-129770600D01*
X119125939Y-129770600D02*
X119054510Y-129842028D01*
X119054510Y-129842028D02*
X118983082Y-129984885D01*
X118983082Y-129984885D02*
X118983082Y-130413457D01*
X118983082Y-130413457D02*
X119054510Y-130556314D01*
X119054510Y-130556314D02*
X119125939Y-130627742D01*
X119125939Y-130627742D02*
X119268796Y-130699171D01*
X119268796Y-130699171D02*
X119483082Y-130699171D01*
X119483082Y-130699171D02*
X119625939Y-130627742D01*
X119625939Y-130627742D02*
X119697368Y-130556314D01*
X119697368Y-130556314D02*
X119768796Y-130413457D01*
X119768796Y-130413457D02*
X119768796Y-129984885D01*
X119768796Y-129984885D02*
X119697368Y-129842028D01*
X119697368Y-129842028D02*
X119625939Y-129770600D01*
X119625939Y-129770600D02*
X119483082Y-129699171D01*
X119483082Y-129699171D02*
X119268796Y-129699171D01*
X120411653Y-130699171D02*
X120411653Y-129699171D01*
X120411653Y-130556314D02*
X120483082Y-130627742D01*
X120483082Y-130627742D02*
X120625939Y-130699171D01*
X120625939Y-130699171D02*
X120840225Y-130699171D01*
X120840225Y-130699171D02*
X120983082Y-130627742D01*
X120983082Y-130627742D02*
X121054511Y-130484885D01*
X121054511Y-130484885D02*
X121054511Y-129699171D01*
X123768796Y-129699171D02*
X123268796Y-130413457D01*
X122911653Y-129699171D02*
X122911653Y-131199171D01*
X122911653Y-131199171D02*
X123483082Y-131199171D01*
X123483082Y-131199171D02*
X123625939Y-131127742D01*
X123625939Y-131127742D02*
X123697368Y-131056314D01*
X123697368Y-131056314D02*
X123768796Y-130913457D01*
X123768796Y-130913457D02*
X123768796Y-130699171D01*
X123768796Y-130699171D02*
X123697368Y-130556314D01*
X123697368Y-130556314D02*
X123625939Y-130484885D01*
X123625939Y-130484885D02*
X123483082Y-130413457D01*
X123483082Y-130413457D02*
X122911653Y-130413457D01*
X124625939Y-129699171D02*
X124483082Y-129770600D01*
X124483082Y-129770600D02*
X124411653Y-129842028D01*
X124411653Y-129842028D02*
X124340225Y-129984885D01*
X124340225Y-129984885D02*
X124340225Y-130413457D01*
X124340225Y-130413457D02*
X124411653Y-130556314D01*
X124411653Y-130556314D02*
X124483082Y-130627742D01*
X124483082Y-130627742D02*
X124625939Y-130699171D01*
X124625939Y-130699171D02*
X124840225Y-130699171D01*
X124840225Y-130699171D02*
X124983082Y-130627742D01*
X124983082Y-130627742D02*
X125054511Y-130556314D01*
X125054511Y-130556314D02*
X125125939Y-130413457D01*
X125125939Y-130413457D02*
X125125939Y-129984885D01*
X125125939Y-129984885D02*
X125054511Y-129842028D01*
X125054511Y-129842028D02*
X124983082Y-129770600D01*
X124983082Y-129770600D02*
X124840225Y-129699171D01*
X124840225Y-129699171D02*
X124625939Y-129699171D01*
X125768796Y-130699171D02*
X125768796Y-129413457D01*
X125768796Y-129413457D02*
X125697368Y-129270600D01*
X125697368Y-129270600D02*
X125554511Y-129199171D01*
X125554511Y-129199171D02*
X125483082Y-129199171D01*
X125768796Y-131199171D02*
X125697368Y-131127742D01*
X125697368Y-131127742D02*
X125768796Y-131056314D01*
X125768796Y-131056314D02*
X125840225Y-131127742D01*
X125840225Y-131127742D02*
X125768796Y-131199171D01*
X125768796Y-131199171D02*
X125768796Y-131056314D01*
X127125940Y-129699171D02*
X127125940Y-130484885D01*
X127125940Y-130484885D02*
X127054511Y-130627742D01*
X127054511Y-130627742D02*
X126911654Y-130699171D01*
X126911654Y-130699171D02*
X126625940Y-130699171D01*
X126625940Y-130699171D02*
X126483082Y-130627742D01*
X127125940Y-129770600D02*
X126983082Y-129699171D01*
X126983082Y-129699171D02*
X126625940Y-129699171D01*
X126625940Y-129699171D02*
X126483082Y-129770600D01*
X126483082Y-129770600D02*
X126411654Y-129913457D01*
X126411654Y-129913457D02*
X126411654Y-130056314D01*
X126411654Y-130056314D02*
X126483082Y-130199171D01*
X126483082Y-130199171D02*
X126625940Y-130270600D01*
X126625940Y-130270600D02*
X126983082Y-130270600D01*
X126983082Y-130270600D02*
X127125940Y-130342028D01*
X127840225Y-130699171D02*
X127840225Y-129699171D01*
X127840225Y-130556314D02*
X127911654Y-130627742D01*
X127911654Y-130627742D02*
X128054511Y-130699171D01*
X128054511Y-130699171D02*
X128268797Y-130699171D01*
X128268797Y-130699171D02*
X128411654Y-130627742D01*
X128411654Y-130627742D02*
X128483083Y-130484885D01*
X128483083Y-130484885D02*
X128483083Y-129699171D01*
X130340225Y-130699171D02*
X130340225Y-129413457D01*
X130340225Y-129413457D02*
X130268797Y-129270600D01*
X130268797Y-129270600D02*
X130125940Y-129199171D01*
X130125940Y-129199171D02*
X130054511Y-129199171D01*
X130340225Y-131199171D02*
X130268797Y-131127742D01*
X130268797Y-131127742D02*
X130340225Y-131056314D01*
X130340225Y-131056314D02*
X130411654Y-131127742D01*
X130411654Y-131127742D02*
X130340225Y-131199171D01*
X130340225Y-131199171D02*
X130340225Y-131056314D01*
X131054511Y-129699171D02*
X131054511Y-130699171D01*
X131054511Y-130556314D02*
X131125940Y-130627742D01*
X131125940Y-130627742D02*
X131268797Y-130699171D01*
X131268797Y-130699171D02*
X131483083Y-130699171D01*
X131483083Y-130699171D02*
X131625940Y-130627742D01*
X131625940Y-130627742D02*
X131697369Y-130484885D01*
X131697369Y-130484885D02*
X131697369Y-129699171D01*
X131697369Y-130484885D02*
X131768797Y-130627742D01*
X131768797Y-130627742D02*
X131911654Y-130699171D01*
X131911654Y-130699171D02*
X132125940Y-130699171D01*
X132125940Y-130699171D02*
X132268797Y-130627742D01*
X132268797Y-130627742D02*
X132340226Y-130484885D01*
X132340226Y-130484885D02*
X132340226Y-129699171D01*
X132983083Y-129770600D02*
X133125940Y-129699171D01*
X133125940Y-129699171D02*
X133411654Y-129699171D01*
X133411654Y-129699171D02*
X133554511Y-129770600D01*
X133554511Y-129770600D02*
X133625940Y-129913457D01*
X133625940Y-129913457D02*
X133625940Y-129984885D01*
X133625940Y-129984885D02*
X133554511Y-130127742D01*
X133554511Y-130127742D02*
X133411654Y-130199171D01*
X133411654Y-130199171D02*
X133197369Y-130199171D01*
X133197369Y-130199171D02*
X133054511Y-130270600D01*
X133054511Y-130270600D02*
X132983083Y-130413457D01*
X132983083Y-130413457D02*
X132983083Y-130484885D01*
X132983083Y-130484885D02*
X133054511Y-130627742D01*
X133054511Y-130627742D02*
X133197369Y-130699171D01*
X133197369Y-130699171D02*
X133411654Y-130699171D01*
X133411654Y-130699171D02*
X133554511Y-130627742D01*
X134268797Y-129699171D02*
X134268797Y-130699171D01*
X134268797Y-130413457D02*
X134340226Y-130556314D01*
X134340226Y-130556314D02*
X134411655Y-130627742D01*
X134411655Y-130627742D02*
X134554512Y-130699171D01*
X134554512Y-130699171D02*
X134697369Y-130699171D01*
X135411654Y-129699171D02*
X135268797Y-129770600D01*
X135268797Y-129770600D02*
X135197368Y-129842028D01*
X135197368Y-129842028D02*
X135125940Y-129984885D01*
X135125940Y-129984885D02*
X135125940Y-130413457D01*
X135125940Y-130413457D02*
X135197368Y-130556314D01*
X135197368Y-130556314D02*
X135268797Y-130627742D01*
X135268797Y-130627742D02*
X135411654Y-130699171D01*
X135411654Y-130699171D02*
X135625940Y-130699171D01*
X135625940Y-130699171D02*
X135768797Y-130627742D01*
X135768797Y-130627742D02*
X135840226Y-130556314D01*
X135840226Y-130556314D02*
X135911654Y-130413457D01*
X135911654Y-130413457D02*
X135911654Y-129984885D01*
X135911654Y-129984885D02*
X135840226Y-129842028D01*
X135840226Y-129842028D02*
X135768797Y-129770600D01*
X135768797Y-129770600D02*
X135625940Y-129699171D01*
X135625940Y-129699171D02*
X135411654Y-129699171D01*
X136554511Y-130699171D02*
X136554511Y-129413457D01*
X136554511Y-129413457D02*
X136483083Y-129270600D01*
X136483083Y-129270600D02*
X136340226Y-129199171D01*
X136340226Y-129199171D02*
X136268797Y-129199171D01*
X136554511Y-131199171D02*
X136483083Y-131127742D01*
X136483083Y-131127742D02*
X136554511Y-131056314D01*
X136554511Y-131056314D02*
X136625940Y-131127742D01*
X136625940Y-131127742D02*
X136554511Y-131199171D01*
X136554511Y-131199171D02*
X136554511Y-131056314D01*
X137554512Y-131199171D02*
X137697369Y-131199171D01*
X137697369Y-131199171D02*
X137840226Y-131127742D01*
X137840226Y-131127742D02*
X137911655Y-131056314D01*
X137911655Y-131056314D02*
X137983083Y-130913457D01*
X137983083Y-130913457D02*
X138054512Y-130627742D01*
X138054512Y-130627742D02*
X138054512Y-130270600D01*
X138054512Y-130270600D02*
X137983083Y-129984885D01*
X137983083Y-129984885D02*
X137911655Y-129842028D01*
X137911655Y-129842028D02*
X137840226Y-129770600D01*
X137840226Y-129770600D02*
X137697369Y-129699171D01*
X137697369Y-129699171D02*
X137554512Y-129699171D01*
X137554512Y-129699171D02*
X137411655Y-129770600D01*
X137411655Y-129770600D02*
X137340226Y-129842028D01*
X137340226Y-129842028D02*
X137268797Y-129984885D01*
X137268797Y-129984885D02*
X137197369Y-130270600D01*
X137197369Y-130270600D02*
X137197369Y-130627742D01*
X137197369Y-130627742D02*
X137268797Y-130913457D01*
X137268797Y-130913457D02*
X137340226Y-131056314D01*
X137340226Y-131056314D02*
X137411655Y-131127742D01*
X137411655Y-131127742D02*
X137554512Y-131199171D01*
X138983083Y-131199171D02*
X139125940Y-131199171D01*
X139125940Y-131199171D02*
X139268797Y-131127742D01*
X139268797Y-131127742D02*
X139340226Y-131056314D01*
X139340226Y-131056314D02*
X139411654Y-130913457D01*
X139411654Y-130913457D02*
X139483083Y-130627742D01*
X139483083Y-130627742D02*
X139483083Y-130270600D01*
X139483083Y-130270600D02*
X139411654Y-129984885D01*
X139411654Y-129984885D02*
X139340226Y-129842028D01*
X139340226Y-129842028D02*
X139268797Y-129770600D01*
X139268797Y-129770600D02*
X139125940Y-129699171D01*
X139125940Y-129699171D02*
X138983083Y-129699171D01*
X138983083Y-129699171D02*
X138840226Y-129770600D01*
X138840226Y-129770600D02*
X138768797Y-129842028D01*
X138768797Y-129842028D02*
X138697368Y-129984885D01*
X138697368Y-129984885D02*
X138625940Y-130270600D01*
X138625940Y-130270600D02*
X138625940Y-130627742D01*
X138625940Y-130627742D02*
X138697368Y-130913457D01*
X138697368Y-130913457D02*
X138768797Y-131056314D01*
X138768797Y-131056314D02*
X138840226Y-131127742D01*
X138840226Y-131127742D02*
X138983083Y-131199171D01*
X140911654Y-129699171D02*
X140054511Y-129699171D01*
X140483082Y-129699171D02*
X140483082Y-131199171D01*
X140483082Y-131199171D02*
X140340225Y-130984885D01*
X140340225Y-130984885D02*
X140197368Y-130842028D01*
X140197368Y-130842028D02*
X140054511Y-130770600D01*
D12*
%TO.P,J2,1,Pin_1*%
%TO.N,MOTOR2_B_OUT*%
X113000000Y-123000000D03*
D13*
%TO.P,J2,2,Pin_2*%
%TO.N,MOTOR2_A_OUT*%
X113000000Y-121000000D03*
%TO.P,J2,3,Pin_3*%
%TO.N,MOTOR4_A_OUT*%
X115000000Y-123000000D03*
%TO.P,J2,4,Pin_4*%
%TO.N,MOTOR2_CTRL1*%
X115000000Y-121000000D03*
%TO.P,J2,5,Pin_5*%
%TO.N,MOTOR4_B_OUT*%
X117000000Y-123000000D03*
%TO.P,J2,6,Pin_6*%
%TO.N,MOTOR2_CTRL2*%
X117000000Y-121000000D03*
%TO.P,J2,7,Pin_7*%
%TO.N,CTRL_EXT_LOAD2*%
X119000000Y-123000000D03*
%TO.P,J2,8,Pin_8*%
%TO.N,MOTOR4_CTRL1*%
X119000000Y-121000000D03*
%TO.P,J2,9,Pin_9*%
%TO.N,unconnected-(J2-Pin_9-Pad9)*%
X121000000Y-123000000D03*
%TO.P,J2,10,Pin_10*%
%TO.N,MOTOR4_CTRL2*%
X121000000Y-121000000D03*
%TO.P,J2,11,Pin_11*%
%TO.N,EXT_LOAD2_OUT*%
X123000000Y-123000000D03*
%TO.P,J2,12,Pin_12*%
%TO.N,unconnected-(J2-Pin_12-Pad12)*%
X123000000Y-121000000D03*
%TO.P,J2,13,Pin_13*%
%TO.N,FAST_CHARGE-CTRL*%
X125000000Y-123000000D03*
%TO.P,J2,14,Pin_14*%
%TO.N,Battery*%
X125000000Y-121000000D03*
%TO.P,J2,15,Pin_15*%
%TO.N,unconnected-(J2-Pin_15-Pad15)*%
X127000000Y-123000000D03*
%TO.P,J2,16,Pin_16*%
%TO.N,I2C1_SCL *%
X127000000Y-121000000D03*
%TO.P,J2,17,Pin_17*%
%TO.N,I2C1_SDA*%
X129000000Y-123000000D03*
%TO.P,J2,18,Pin_18*%
%TO.N,3.3V*%
X129000000Y-121000000D03*
%TO.P,J2,19,Pin_19*%
%TO.N,GND*%
X131000000Y-123000000D03*
%TO.P,J2,20,Pin_20*%
%TO.N,5V*%
X131000000Y-121000000D03*
%TO.P,J2,21,Pin_21*%
%TO.N,EXT_LOAD1 _OUT*%
X133000000Y-123000000D03*
%TO.P,J2,22,Pin_22*%
%TO.N,High Voltage (9V)*%
X133000000Y-121000000D03*
%TO.P,J2,23,Pin_23*%
%TO.N,GND*%
X135000000Y-123000000D03*
%TO.P,J2,24,Pin_24*%
%TO.N,MOTOR3_CTRL1*%
X135000000Y-121000000D03*
%TO.P,J2,25,Pin_25*%
%TO.N,CTRL_EXT_LOAD1 *%
X137000000Y-123000000D03*
%TO.P,J2,26,Pin_26*%
%TO.N,MOTOR3_CTRL2*%
X137000000Y-121000000D03*
%TO.P,J2,27,Pin_27*%
%TO.N,MOTOR3_A_OUT*%
X139000000Y-123000000D03*
%TO.P,J2,28,Pin_28*%
%TO.N,MOTOR1_CTRL1*%
X139000000Y-121000000D03*
%TO.P,J2,29,Pin_29*%
%TO.N,MOTOR3_B_OUT*%
X141000000Y-123000000D03*
%TO.P,J2,30,Pin_30*%
%TO.N,MOTOR1_CTRL2*%
X141000000Y-121000000D03*
%TO.P,J2,31,Pin_31*%
%TO.N,MOTOR1_B_OUT*%
X143000000Y-123000000D03*
%TO.P,J2,32,Pin_32*%
%TO.N,MOTOR1_A_OUT*%
X143000000Y-121000000D03*
%TD*%
D14*
%TO.P,J1,1,Pin_1*%
%TO.N,Battery*%
X104500000Y-114550000D03*
D15*
%TO.P,J1,2,Pin_2*%
%TO.N,GND*%
X106500000Y-114550000D03*
%TD*%
D16*
%TO.P,R17,1*%
%TO.N,3.3V*%
X157690000Y-108600000D03*
D17*
%TO.P,R17,2*%
%TO.N,I2C1_SCL *%
X165310000Y-108600000D03*
%TD*%
D16*
%TO.P,R16,1*%
%TO.N,3.3V*%
X157690000Y-104550000D03*
D17*
%TO.P,R16,2*%
%TO.N,I2C1_SDA*%
X165310000Y-104550000D03*
%TD*%
D16*
%TO.P,R15,1*%
%TO.N,CTRL_EXT_LOAD1 *%
X157690000Y-100500000D03*
D17*
%TO.P,R15,2*%
%TO.N,GND*%
X165310000Y-100500000D03*
%TD*%
D16*
%TO.P,R14,1*%
%TO.N,CTRL_EXT_LOAD2*%
X157690000Y-96450000D03*
D17*
%TO.P,R14,2*%
%TO.N,GND*%
X165310000Y-96450000D03*
%TD*%
D16*
%TO.P,R13,1*%
%TO.N,Net-(U6-PROG)*%
X157690000Y-92400000D03*
D17*
%TO.P,R13,2*%
%TO.N,Net-(Q3-D)*%
X165310000Y-92400000D03*
%TD*%
D16*
%TO.P,R12,1*%
%TO.N,5V*%
X157690000Y-88350000D03*
D17*
%TO.P,R12,2*%
%TO.N,GND*%
X165310000Y-88350000D03*
%TD*%
D16*
%TO.P,R11,1*%
%TO.N,Net-(U6-PROG)*%
X157880000Y-83400000D03*
D17*
%TO.P,R11,2*%
%TO.N,GND*%
X165500000Y-83400000D03*
%TD*%
D16*
%TO.P,R8,1*%
%TO.N,Net-(U9-FB)*%
X90190000Y-119000000D03*
D17*
%TO.P,R8,2*%
%TO.N,5V*%
X97810000Y-119000000D03*
%TD*%
D16*
%TO.P,R7,1*%
%TO.N,Net-(SW1-A)*%
X90380000Y-114500000D03*
D17*
%TO.P,R7,2*%
%TO.N,Battery*%
X98000000Y-114500000D03*
%TD*%
D16*
%TO.P,R6,1*%
%TO.N,Net-(U8-CC1)*%
X90380000Y-110450000D03*
D17*
%TO.P,R6,2*%
%TO.N,GND*%
X98000000Y-110450000D03*
%TD*%
D16*
%TO.P,R5,1*%
%TO.N,Net-(U8-CC2)*%
X90380000Y-106400000D03*
D17*
%TO.P,R5,2*%
%TO.N,GND*%
X98000000Y-106400000D03*
%TD*%
D16*
%TO.P,R4,1*%
%TO.N,GND*%
X90380000Y-102350000D03*
D17*
%TO.P,R4,2*%
%TO.N,Net-(U3-BISEN)*%
X98000000Y-102350000D03*
%TD*%
D16*
%TO.P,R3,1*%
%TO.N,GND*%
X90380000Y-98300000D03*
D17*
%TO.P,R3,2*%
%TO.N,Net-(U3-AISEN)*%
X98000000Y-98300000D03*
%TD*%
D16*
%TO.P,R2,1*%
%TO.N,GND*%
X90190000Y-94500000D03*
D17*
%TO.P,R2,2*%
%TO.N,Net-(U2-AISEN)*%
X97810000Y-94500000D03*
%TD*%
D18*
%TO.P,J3,B1*%
%TO.N,N/C*%
X96400000Y-82600000D03*
%TO.P,J3,B2*%
X96000000Y-83500000D03*
%TO.P,J3,B3*%
X95200000Y-83500000D03*
%TO.P,J3,B4*%
X94800000Y-82600000D03*
%TO.P,J3,B5,CC2*%
%TO.N,unconnected-(J3-CC2-PadB5)*%
X94400000Y-83500000D03*
%TO.P,J3,B6*%
%TO.N,N/C*%
X94000000Y-82600000D03*
%TO.P,J3,B7*%
X93200000Y-82600000D03*
%TO.P,J3,B8*%
X92800000Y-83500000D03*
%TO.P,J3,B9,VBUS*%
%TO.N,Net-(U8-VDD)*%
X92400000Y-82600000D03*
%TO.P,J3,B10*%
%TO.N,N/C*%
X92000000Y-83500000D03*
%TO.P,J3,B11*%
X91200000Y-83500000D03*
%TO.P,J3,B12,GND*%
%TO.N,GND*%
X90800000Y-82600000D03*
D19*
%TO.P,J3,S1,SHIELD*%
%TO.N,unconnected-(J3-SHIELD-PadS1)_4*%
X89025000Y-86660000D03*
D20*
%TO.N,unconnected-(J3-SHIELD-PadS1)*%
X89210000Y-83750000D03*
D21*
%TO.N,unconnected-(J3-SHIELD-PadS1)_7*%
X89305000Y-81770000D03*
%TO.N,unconnected-(J3-SHIELD-PadS1)_5*%
X97895000Y-81770000D03*
D20*
%TO.N,unconnected-(J3-SHIELD-PadS1)_6*%
X97990000Y-83750000D03*
D19*
%TO.N,unconnected-(J3-SHIELD-PadS1)_2*%
X98175000Y-86660000D03*
%TD*%
D22*
%TO.P,U2,17,GND*%
%TO.N,GND*%
X114612500Y-111525000D03*
X114612500Y-113025000D03*
X114612500Y-114525000D03*
D23*
X115362500Y-113025000D03*
D22*
X116112500Y-111525000D03*
X116112500Y-113025000D03*
X116112500Y-114525000D03*
%TD*%
D24*
%TO.P,U7,9,PAD*%
%TO.N,GND*%
X142000000Y-85500000D03*
D25*
X142000000Y-86000000D03*
D24*
X142000000Y-86500000D03*
%TD*%
D22*
%TO.P,U5,39,GND*%
%TO.N,Net-(U5-GND-Pad11)*%
X113195000Y-99310000D03*
X114305000Y-98235000D03*
X114305000Y-99310000D03*
D26*
X114305000Y-99310000D03*
D22*
X114305000Y-100385000D03*
X115415000Y-99310000D03*
%TO.P,U5,40,DRAIN*%
%TO.N,unconnected-(U5-DRAIN-Pad40)*%
X116830000Y-98235000D03*
X116830000Y-99310000D03*
D27*
X116830000Y-99310000D03*
D22*
X116830000Y-100385000D03*
%TD*%
D28*
%TO.P,SW1,1,B*%
%TO.N,Net-(Q1-G)*%
X120460000Y-106000000D03*
D16*
%TO.P,SW1,2,C*%
%TO.N,GND*%
X117920000Y-106000000D03*
%TO.P,SW1,3,A*%
%TO.N,Net-(SW1-A)*%
X123000000Y-106000000D03*
%TD*%
D22*
%TO.P,U6,9,EPAD*%
%TO.N,unconnected-(U6-EPAD-Pad9)*%
X127000000Y-112000000D03*
X127000000Y-113200000D03*
X127000000Y-114400000D03*
D29*
X127700000Y-113200000D03*
D22*
X128400000Y-112000000D03*
X128400000Y-113200000D03*
X128400000Y-114400000D03*
%TD*%
%TO.P,U3,17,GND*%
%TO.N,GND*%
X143500000Y-115000000D03*
X143500000Y-113500000D03*
X143500000Y-112000000D03*
D23*
X142750000Y-113500000D03*
D22*
X142000000Y-115000000D03*
X142000000Y-113500000D03*
X142000000Y-112000000D03*
%TD*%
D30*
%TO.N,3.3V*%
X126024000Y-107476000D02*
X130000000Y-103500000D01*
X126024000Y-121404273D02*
X126024000Y-107476000D01*
%TO.N,Net-(U2-AISEN)*%
X89733950Y-120101000D02*
X90646050Y-120101000D01*
X98747050Y-112000000D02*
X113000000Y-112000000D01*
X88878000Y-119245050D02*
X89733950Y-120101000D01*
X88878000Y-113877850D02*
X88878000Y-119245050D01*
X95655850Y-107100000D02*
X88878000Y-113877850D01*
X90646050Y-120101000D02*
X98747050Y-112000000D01*
X95655850Y-96654150D02*
X95655850Y-107100000D01*
X97810000Y-94500000D02*
X95655850Y-96654150D01*
%TO.N,Net-(U9-FB)*%
X122862950Y-99500000D02*
X123000000Y-99500000D01*
X114861950Y-107501000D02*
X122862950Y-99500000D01*
X89279000Y-114043950D02*
X95821950Y-107501000D01*
X89279000Y-118089000D02*
X89279000Y-114043950D01*
X95821950Y-107501000D02*
X114861950Y-107501000D01*
X90190000Y-119000000D02*
X89279000Y-118089000D01*
%TO.N,Net-(U3-BISEN)*%
X146500000Y-112500000D02*
X145500000Y-112500000D01*
X146500000Y-91365800D02*
X146500000Y-112500000D01*
X143832200Y-88698000D02*
X146500000Y-91365800D01*
X111652000Y-88698000D02*
X143832200Y-88698000D01*
X98000000Y-102350000D02*
X111652000Y-88698000D01*
%TO.N,GND*%
X165310000Y-96450000D02*
X165310000Y-100500000D01*
X167000000Y-90040000D02*
X167000000Y-94760000D01*
X165310000Y-88350000D02*
X167000000Y-90040000D01*
X167000000Y-94760000D02*
X165310000Y-96450000D01*
X165500000Y-88160000D02*
X165310000Y-88350000D01*
X165500000Y-83400000D02*
X165500000Y-88160000D01*
%TO.N,CTRL_EXT_LOAD2*%
X143169373Y-124778000D02*
X118778000Y-124778000D01*
X158791000Y-109156373D02*
X143169373Y-124778000D01*
X158791000Y-97551000D02*
X158791000Y-109156373D01*
X157690000Y-96450000D02*
X158791000Y-97551000D01*
%TO.N,CTRL_EXT_LOAD1 *%
X136024000Y-122024000D02*
X137000000Y-123000000D01*
X134595727Y-122024000D02*
X136024000Y-122024000D01*
X134024000Y-122595727D02*
X134595727Y-122024000D01*
X134024000Y-123404273D02*
X134024000Y-122595727D01*
X143003273Y-124377000D02*
X134996727Y-124377000D01*
X156589000Y-110791273D02*
X143003273Y-124377000D01*
X156589000Y-101601000D02*
X156589000Y-110791273D01*
X134996727Y-124377000D02*
X134024000Y-123404273D01*
X157690000Y-100500000D02*
X156589000Y-101601000D01*
%TO.N,EXT_LOAD1 _OUT*%
X124595727Y-96404273D02*
X128500000Y-92500000D01*
X124595727Y-120024000D02*
X124595727Y-96404273D01*
X124024000Y-120595727D02*
X124595727Y-120024000D01*
X124024000Y-121404273D02*
X124024000Y-120595727D01*
X123452273Y-121976000D02*
X124024000Y-121404273D01*
X102343050Y-121976000D02*
X123452273Y-121976000D01*
X97353950Y-117899000D02*
X98266050Y-117899000D01*
X96709000Y-118543950D02*
X97353950Y-117899000D01*
X131623000Y-124377000D02*
X101629950Y-124377000D01*
X98266050Y-117899000D02*
X102343050Y-121976000D01*
X96709000Y-119456050D02*
X96709000Y-118543950D01*
X101629950Y-124377000D02*
X96709000Y-119456050D01*
X133000000Y-123000000D02*
X131623000Y-124377000D01*
%TO.N,GND*%
X138024000Y-115976000D02*
X140000000Y-114000000D01*
X138024000Y-123356273D02*
X138024000Y-115976000D01*
X137404273Y-123976000D02*
X138024000Y-123356273D01*
X135976000Y-123976000D02*
X137404273Y-123976000D01*
X135000000Y-123000000D02*
X135976000Y-123976000D01*
%TO.N,CTRL_EXT_LOAD1 *%
X136401000Y-89099000D02*
X131000000Y-94500000D01*
X143666100Y-89099000D02*
X136401000Y-89099000D01*
X143901000Y-104666100D02*
X143901000Y-89333900D01*
X135976000Y-112591100D02*
X143901000Y-104666100D01*
X143901000Y-89333900D02*
X143666100Y-89099000D01*
X135976000Y-121976000D02*
X135976000Y-112591100D01*
X137000000Y-123000000D02*
X135976000Y-121976000D01*
%TO.N,5V*%
X129404273Y-123976000D02*
X102786000Y-123976000D01*
X102786000Y-123976000D02*
X97810000Y-119000000D01*
X130024000Y-123356273D02*
X129404273Y-123976000D01*
X130024000Y-121976000D02*
X130024000Y-123356273D01*
X131000000Y-121000000D02*
X130024000Y-121976000D01*
%TO.N,3.3V*%
X135500000Y-108402000D02*
X135500000Y-103500000D01*
X126024000Y-121404273D02*
X126024000Y-117878000D01*
X126024000Y-117878000D02*
X135500000Y-108402000D01*
X126595727Y-121976000D02*
X126024000Y-121404273D01*
X128024000Y-121976000D02*
X126595727Y-121976000D01*
X129000000Y-121000000D02*
X128024000Y-121976000D01*
%TO.N,I2C1_SCL *%
X143500000Y-104500000D02*
X143500000Y-89500000D01*
X127000000Y-121000000D02*
X143500000Y-104500000D01*
%TO.N,MOTOR4_CTRL2*%
X121000000Y-117000000D02*
X118500000Y-114500000D01*
X121000000Y-121000000D02*
X121000000Y-117000000D01*
%TO.N,MOTOR4_CTRL1*%
X119000000Y-116500000D02*
X118000000Y-115500000D01*
X119000000Y-121000000D02*
X119000000Y-116500000D01*
%TO.N,MOTOR2_CTRL2*%
X118000000Y-111500000D02*
X118500000Y-111500000D01*
X117000000Y-112500000D02*
X118000000Y-111500000D01*
X117000000Y-121000000D02*
X117000000Y-112500000D01*
%TO.N,Net-(SW1-A)*%
X119651000Y-109349000D02*
X95531000Y-109349000D01*
X123000000Y-106000000D02*
X119651000Y-109349000D01*
X95531000Y-109349000D02*
X90380000Y-114500000D01*
%TD*%
M02*
