M48
; DRILL file {KiCad 9.0.0} date 2025-03-31T04:39:57+0200
; FORMAT={-:-/ absolute / metric / decimal}
; #@! TF.CreationDate,2025-03-31T04:39:57+02:00
; #@! TF.GenerationSoftware,Kicad,Pcbnew,9.0.0
; #@! TF.FileFunction,Plated,1,2,PTH
FMAT,2
METRIC
; #@! TA.AperFunction,Plated,PTH,ComponentDrill
T1C0.200
; #@! TA.AperFunction,Plated,PTH,ComponentDrill
T2C0.250
; #@! TA.AperFunction,Plated,PTH,ComponentDrill
T3C0.400
; #@! TA.AperFunction,Plated,PTH,ComponentDrill
T4C0.550
; #@! TA.AperFunction,Plated,PTH,ComponentDrill
T5C0.750
; #@! TA.AperFunction,Plated,PTH,ComponentDrill
T6C0.800
; #@! TA.AperFunction,Plated,PTH,ComponentDrill
T7C0.930
%
G90
G05
T1
X113.195Y-99.31
X114.305Y-98.235
X114.305Y-99.31
X114.305Y-100.385
X114.612Y-111.525
X114.612Y-113.025
X114.612Y-114.525
X115.415Y-99.31
X116.112Y-111.525
X116.112Y-113.025
X116.112Y-114.525
X116.83Y-98.235
X116.83Y-99.31
X116.83Y-100.385
X127.0Y-112.0
X127.0Y-113.2
X127.0Y-114.4
X128.4Y-112.0
X128.4Y-113.2
X128.4Y-114.4
X142.0Y-112.0
X142.0Y-113.5
X142.0Y-115.0
X143.5Y-112.0
X143.5Y-113.5
X143.5Y-115.0
T2
X142.0Y-85.5
X142.0Y-86.5
T3
X90.8Y-82.6
X91.2Y-83.5
X92.0Y-83.5
X92.4Y-82.6
X92.8Y-83.5
X93.2Y-82.6
X94.0Y-82.6
X94.4Y-83.5
X94.8Y-82.6
X95.2Y-83.5
X96.0Y-83.5
X96.4Y-82.6
T5
X104.5Y-114.55
X106.5Y-114.55
T6
X90.19Y-94.5
X90.19Y-119.0
X90.38Y-98.3
X90.38Y-102.35
X90.38Y-106.4
X90.38Y-110.45
X90.38Y-114.5
X97.81Y-94.5
X97.81Y-119.0
X98.0Y-98.3
X98.0Y-102.35
X98.0Y-106.4
X98.0Y-110.45
X98.0Y-114.5
X113.0Y-121.0
X113.0Y-123.0
X115.0Y-121.0
X115.0Y-123.0
X117.0Y-121.0
X117.0Y-123.0
X117.92Y-106.0
X119.0Y-121.0
X119.0Y-123.0
X120.46Y-106.0
X121.0Y-121.0
X121.0Y-123.0
X123.0Y-106.0
X123.0Y-121.0
X123.0Y-123.0
X125.0Y-121.0
X125.0Y-123.0
X127.0Y-121.0
X127.0Y-123.0
X129.0Y-121.0
X129.0Y-123.0
X131.0Y-121.0
X131.0Y-123.0
X133.0Y-121.0
X133.0Y-123.0
X135.0Y-121.0
X135.0Y-123.0
X137.0Y-121.0
X137.0Y-123.0
X139.0Y-121.0
X139.0Y-123.0
X141.0Y-121.0
X141.0Y-123.0
X143.0Y-121.0
X143.0Y-123.0
X157.69Y-88.35
X157.69Y-92.4
X157.69Y-96.45
X157.69Y-100.5
X157.69Y-104.55
X157.69Y-108.6
X157.88Y-83.4
X165.31Y-88.35
X165.31Y-92.4
X165.31Y-96.45
X165.31Y-100.5
X165.31Y-104.55
X165.31Y-108.6
X165.5Y-83.4
T4
G00X89.025Y-86.275
M15
G01X89.025Y-87.325
M16
G05
G00X89.305Y-81.345
M15
G01X89.305Y-82.195
M16
G05
G00X97.895Y-81.345
M15
G01X97.895Y-82.195
M16
G05
G00X98.175Y-86.275
M15
G01X98.175Y-87.325
M16
G05
T7
G00X89.21Y-83.425
M15
G01X89.21Y-84.075
M16
G05
G00X97.99Y-83.425
M15
G01X97.99Y-84.075
M16
G05
M30
