%TF.GenerationSoftware,KiCad,Pcbnew,9.0.0*%
%TF.CreationDate,2025-03-31T16:57:01+02:00*%
%TF.ProjectId,design_project,64657369-676e-45f7-9072-6f6a6563742e,rev?*%
%TF.SameCoordinates,Original*%
%TF.FileFunction,Legend,Top*%
%TF.FilePolarity,Positive*%
%FSLAX46Y46*%
G04 Gerber Fmt 4.6, Leading zero omitted, Abs format (unit mm)*
G04 Created by KiCad (PCBNEW 9.0.0) date 2025-03-31 16:57:01*
%MOMM*%
%LPD*%
G01*
G04 APERTURE LIST*
G04 Aperture macros list*
%AMRoundRect*
0 Rectangle with rounded corners*
0 $1 Rounding radius*
0 $2 $3 $4 $5 $6 $7 $8 $9 X,Y pos of 4 corners*
0 Add a 4 corners polygon primitive as box body*
4,1,4,$2,$3,$4,$5,$6,$7,$8,$9,$2,$3,0*
0 Add four circle primitives for the rounded corners*
1,1,$1+$1,$2,$3*
1,1,$1+$1,$4,$5*
1,1,$1+$1,$6,$7*
1,1,$1+$1,$8,$9*
0 Add four rect primitives between the rounded corners*
20,1,$1+$1,$2,$3,$4,$5,0*
20,1,$1+$1,$4,$5,$6,$7,0*
20,1,$1+$1,$6,$7,$8,$9,0*
20,1,$1+$1,$8,$9,$2,$3,0*%
G04 Aperture macros list end*
%ADD10C,0.150000*%
%ADD11C,0.120000*%
%ADD12C,0.100000*%
%ADD13C,1.600000*%
%ADD14O,1.600000X1.600000*%
%ADD15C,2.500000*%
%ADD16R,2.460000X2.310000*%
%ADD17RoundRect,0.100000X-0.687500X-0.100000X0.687500X-0.100000X0.687500X0.100000X-0.687500X0.100000X0*%
%ADD18RoundRect,0.150000X-0.512500X-0.150000X0.512500X-0.150000X0.512500X0.150000X-0.512500X0.150000X0*%
%ADD19RoundRect,0.062500X-0.187500X-0.062500X0.187500X-0.062500X0.187500X0.062500X-0.187500X0.062500X0*%
%ADD20R,0.900000X1.600000*%
%ADD21RoundRect,0.225000X-0.225000X-0.250000X0.225000X-0.250000X0.225000X0.250000X-0.225000X0.250000X0*%
%ADD22RoundRect,0.150000X-0.687500X-0.150000X0.687500X-0.150000X0.687500X0.150000X-0.687500X0.150000X0*%
%ADD23R,2.100000X3.300000*%
%ADD24RoundRect,0.050000X-0.225000X-0.050000X0.225000X-0.050000X0.225000X0.050000X-0.225000X0.050000X0*%
%ADD25RoundRect,0.050000X0.050000X-0.225000X0.050000X0.225000X-0.050000X0.225000X-0.050000X-0.225000X0*%
%ADD26RoundRect,0.250000X1.110000X1.075000X-1.110000X1.075000X-1.110000X-1.075000X1.110000X-1.075000X0*%
%ADD27RoundRect,0.250000X0.515000X1.075000X-0.515000X1.075000X-0.515000X-1.075000X0.515000X-1.075000X0*%
%ADD28R,1.500000X1.500000*%
%ADD29RoundRect,0.243600X-1.406400X-0.771400X1.406400X-0.771400X1.406400X0.771400X-1.406400X0.771400X0*%
%ADD30RoundRect,0.190000X-0.510000X-0.190000X0.510000X-0.190000X0.510000X0.190000X-0.510000X0.190000X0*%
%ADD31RoundRect,0.062500X-0.375000X-0.062500X0.375000X-0.062500X0.375000X0.062500X-0.375000X0.062500X0*%
%ADD32RoundRect,0.062500X-0.062500X-0.375000X0.062500X-0.375000X0.062500X0.375000X-0.062500X0.375000X0*%
%ADD33R,1.600000X1.600000*%
%ADD34RoundRect,0.125000X-0.537500X-0.125000X0.537500X-0.125000X0.537500X0.125000X-0.537500X0.125000X0*%
%ADD35R,1.350000X1.350000*%
%ADD36O,1.350000X1.350000*%
%ADD37RoundRect,0.150000X-0.825000X-0.150000X0.825000X-0.150000X0.825000X0.150000X-0.825000X0.150000X0*%
%ADD38R,2.410000X3.300000*%
%ADD39RoundRect,0.218750X-0.218750X-0.256250X0.218750X-0.256250X0.218750X0.256250X-0.218750X0.256250X0*%
%ADD40RoundRect,0.150000X-0.587500X-0.150000X0.587500X-0.150000X0.587500X0.150000X-0.587500X0.150000X0*%
%ADD41RoundRect,0.100000X0.687500X0.100000X-0.687500X0.100000X-0.687500X-0.100000X0.687500X-0.100000X0*%
%ADD42RoundRect,0.250000X-0.350000X-0.625000X0.350000X-0.625000X0.350000X0.625000X-0.350000X0.625000X0*%
%ADD43O,1.200000X1.750000*%
%ADD44RoundRect,0.250000X-0.850000X-0.350000X0.850000X-0.350000X0.850000X0.350000X-0.850000X0.350000X0*%
%ADD45RoundRect,0.249997X-2.950003X-2.650003X2.950003X-2.650003X2.950003X2.650003X-2.950003X2.650003X0*%
%ADD46R,0.300000X0.700000*%
%ADD47C,0.650000*%
%ADD48O,0.950000X2.280000*%
%ADD49O,1.330000X1.980000*%
%ADD50O,0.950000X1.800000*%
%ADD51R,0.700000X0.350000*%
G04 APERTURE END LIST*
D10*
X94023333Y-96384819D02*
X93690000Y-95908628D01*
X93451905Y-96384819D02*
X93451905Y-95384819D01*
X93451905Y-95384819D02*
X93832857Y-95384819D01*
X93832857Y-95384819D02*
X93928095Y-95432438D01*
X93928095Y-95432438D02*
X93975714Y-95480057D01*
X93975714Y-95480057D02*
X94023333Y-95575295D01*
X94023333Y-95575295D02*
X94023333Y-95718152D01*
X94023333Y-95718152D02*
X93975714Y-95813390D01*
X93975714Y-95813390D02*
X93928095Y-95861009D01*
X93928095Y-95861009D02*
X93832857Y-95908628D01*
X93832857Y-95908628D02*
X93451905Y-95908628D01*
X94356667Y-95384819D02*
X94975714Y-95384819D01*
X94975714Y-95384819D02*
X94642381Y-95765771D01*
X94642381Y-95765771D02*
X94785238Y-95765771D01*
X94785238Y-95765771D02*
X94880476Y-95813390D01*
X94880476Y-95813390D02*
X94928095Y-95861009D01*
X94928095Y-95861009D02*
X94975714Y-95956247D01*
X94975714Y-95956247D02*
X94975714Y-96194342D01*
X94975714Y-96194342D02*
X94928095Y-96289580D01*
X94928095Y-96289580D02*
X94880476Y-96337200D01*
X94880476Y-96337200D02*
X94785238Y-96384819D01*
X94785238Y-96384819D02*
X94499524Y-96384819D01*
X94499524Y-96384819D02*
X94404286Y-96337200D01*
X94404286Y-96337200D02*
X94356667Y-96289580D01*
X139238095Y-96806819D02*
X139809523Y-96806819D01*
X139523809Y-97806819D02*
X139523809Y-96806819D01*
X140142857Y-97806819D02*
X140142857Y-96806819D01*
X140142857Y-96806819D02*
X140523809Y-96806819D01*
X140523809Y-96806819D02*
X140619047Y-96854438D01*
X140619047Y-96854438D02*
X140666666Y-96902057D01*
X140666666Y-96902057D02*
X140714285Y-96997295D01*
X140714285Y-96997295D02*
X140714285Y-97140152D01*
X140714285Y-97140152D02*
X140666666Y-97235390D01*
X140666666Y-97235390D02*
X140619047Y-97283009D01*
X140619047Y-97283009D02*
X140523809Y-97330628D01*
X140523809Y-97330628D02*
X140142857Y-97330628D01*
X141047619Y-96806819D02*
X141666666Y-96806819D01*
X141666666Y-96806819D02*
X141333333Y-97187771D01*
X141333333Y-97187771D02*
X141476190Y-97187771D01*
X141476190Y-97187771D02*
X141571428Y-97235390D01*
X141571428Y-97235390D02*
X141619047Y-97283009D01*
X141619047Y-97283009D02*
X141666666Y-97378247D01*
X141666666Y-97378247D02*
X141666666Y-97616342D01*
X141666666Y-97616342D02*
X141619047Y-97711580D01*
X141619047Y-97711580D02*
X141571428Y-97759200D01*
X141571428Y-97759200D02*
X141476190Y-97806819D01*
X141476190Y-97806819D02*
X141190476Y-97806819D01*
X141190476Y-97806819D02*
X141095238Y-97759200D01*
X141095238Y-97759200D02*
X141047619Y-97711580D01*
X114600595Y-109029819D02*
X114600595Y-109839342D01*
X114600595Y-109839342D02*
X114648214Y-109934580D01*
X114648214Y-109934580D02*
X114695833Y-109982200D01*
X114695833Y-109982200D02*
X114791071Y-110029819D01*
X114791071Y-110029819D02*
X114981547Y-110029819D01*
X114981547Y-110029819D02*
X115076785Y-109982200D01*
X115076785Y-109982200D02*
X115124404Y-109934580D01*
X115124404Y-109934580D02*
X115172023Y-109839342D01*
X115172023Y-109839342D02*
X115172023Y-109029819D01*
X115600595Y-109125057D02*
X115648214Y-109077438D01*
X115648214Y-109077438D02*
X115743452Y-109029819D01*
X115743452Y-109029819D02*
X115981547Y-109029819D01*
X115981547Y-109029819D02*
X116076785Y-109077438D01*
X116076785Y-109077438D02*
X116124404Y-109125057D01*
X116124404Y-109125057D02*
X116172023Y-109220295D01*
X116172023Y-109220295D02*
X116172023Y-109315533D01*
X116172023Y-109315533D02*
X116124404Y-109458390D01*
X116124404Y-109458390D02*
X115552976Y-110029819D01*
X115552976Y-110029819D02*
X116172023Y-110029819D01*
X160857142Y-94534819D02*
X160523809Y-94058628D01*
X160285714Y-94534819D02*
X160285714Y-93534819D01*
X160285714Y-93534819D02*
X160666666Y-93534819D01*
X160666666Y-93534819D02*
X160761904Y-93582438D01*
X160761904Y-93582438D02*
X160809523Y-93630057D01*
X160809523Y-93630057D02*
X160857142Y-93725295D01*
X160857142Y-93725295D02*
X160857142Y-93868152D01*
X160857142Y-93868152D02*
X160809523Y-93963390D01*
X160809523Y-93963390D02*
X160761904Y-94011009D01*
X160761904Y-94011009D02*
X160666666Y-94058628D01*
X160666666Y-94058628D02*
X160285714Y-94058628D01*
X161809523Y-94534819D02*
X161238095Y-94534819D01*
X161523809Y-94534819D02*
X161523809Y-93534819D01*
X161523809Y-93534819D02*
X161428571Y-93677676D01*
X161428571Y-93677676D02*
X161333333Y-93772914D01*
X161333333Y-93772914D02*
X161238095Y-93820533D01*
X162666666Y-93868152D02*
X162666666Y-94534819D01*
X162428571Y-93487200D02*
X162190476Y-94201485D01*
X162190476Y-94201485D02*
X162809523Y-94201485D01*
X129238095Y-90554819D02*
X129238095Y-91364342D01*
X129238095Y-91364342D02*
X129285714Y-91459580D01*
X129285714Y-91459580D02*
X129333333Y-91507200D01*
X129333333Y-91507200D02*
X129428571Y-91554819D01*
X129428571Y-91554819D02*
X129619047Y-91554819D01*
X129619047Y-91554819D02*
X129714285Y-91507200D01*
X129714285Y-91507200D02*
X129761904Y-91459580D01*
X129761904Y-91459580D02*
X129809523Y-91364342D01*
X129809523Y-91364342D02*
X129809523Y-90554819D01*
X130190476Y-90554819D02*
X130857142Y-90554819D01*
X130857142Y-90554819D02*
X130428571Y-91554819D01*
X93833333Y-92584819D02*
X93500000Y-92108628D01*
X93261905Y-92584819D02*
X93261905Y-91584819D01*
X93261905Y-91584819D02*
X93642857Y-91584819D01*
X93642857Y-91584819D02*
X93738095Y-91632438D01*
X93738095Y-91632438D02*
X93785714Y-91680057D01*
X93785714Y-91680057D02*
X93833333Y-91775295D01*
X93833333Y-91775295D02*
X93833333Y-91918152D01*
X93833333Y-91918152D02*
X93785714Y-92013390D01*
X93785714Y-92013390D02*
X93738095Y-92061009D01*
X93738095Y-92061009D02*
X93642857Y-92108628D01*
X93642857Y-92108628D02*
X93261905Y-92108628D01*
X94214286Y-91680057D02*
X94261905Y-91632438D01*
X94261905Y-91632438D02*
X94357143Y-91584819D01*
X94357143Y-91584819D02*
X94595238Y-91584819D01*
X94595238Y-91584819D02*
X94690476Y-91632438D01*
X94690476Y-91632438D02*
X94738095Y-91680057D01*
X94738095Y-91680057D02*
X94785714Y-91775295D01*
X94785714Y-91775295D02*
X94785714Y-91870533D01*
X94785714Y-91870533D02*
X94738095Y-92013390D01*
X94738095Y-92013390D02*
X94166667Y-92584819D01*
X94166667Y-92584819D02*
X94785714Y-92584819D01*
X141618095Y-83554819D02*
X141618095Y-84364342D01*
X141618095Y-84364342D02*
X141665714Y-84459580D01*
X141665714Y-84459580D02*
X141713333Y-84507200D01*
X141713333Y-84507200D02*
X141808571Y-84554819D01*
X141808571Y-84554819D02*
X141999047Y-84554819D01*
X141999047Y-84554819D02*
X142094285Y-84507200D01*
X142094285Y-84507200D02*
X142141904Y-84459580D01*
X142141904Y-84459580D02*
X142189523Y-84364342D01*
X142189523Y-84364342D02*
X142189523Y-83554819D01*
X142570476Y-83554819D02*
X143237142Y-83554819D01*
X143237142Y-83554819D02*
X142808571Y-84554819D01*
X145238095Y-80454819D02*
X145238095Y-81264342D01*
X145238095Y-81264342D02*
X145285714Y-81359580D01*
X145285714Y-81359580D02*
X145333333Y-81407200D01*
X145333333Y-81407200D02*
X145428571Y-81454819D01*
X145428571Y-81454819D02*
X145619047Y-81454819D01*
X145619047Y-81454819D02*
X145714285Y-81407200D01*
X145714285Y-81407200D02*
X145761904Y-81359580D01*
X145761904Y-81359580D02*
X145809523Y-81264342D01*
X145809523Y-81264342D02*
X145809523Y-80454819D01*
X146714285Y-80454819D02*
X146523809Y-80454819D01*
X146523809Y-80454819D02*
X146428571Y-80502438D01*
X146428571Y-80502438D02*
X146380952Y-80550057D01*
X146380952Y-80550057D02*
X146285714Y-80692914D01*
X146285714Y-80692914D02*
X146238095Y-80883390D01*
X146238095Y-80883390D02*
X146238095Y-81264342D01*
X146238095Y-81264342D02*
X146285714Y-81359580D01*
X146285714Y-81359580D02*
X146333333Y-81407200D01*
X146333333Y-81407200D02*
X146428571Y-81454819D01*
X146428571Y-81454819D02*
X146619047Y-81454819D01*
X146619047Y-81454819D02*
X146714285Y-81407200D01*
X146714285Y-81407200D02*
X146761904Y-81359580D01*
X146761904Y-81359580D02*
X146809523Y-81264342D01*
X146809523Y-81264342D02*
X146809523Y-81026247D01*
X146809523Y-81026247D02*
X146761904Y-80931009D01*
X146761904Y-80931009D02*
X146714285Y-80883390D01*
X146714285Y-80883390D02*
X146619047Y-80835771D01*
X146619047Y-80835771D02*
X146428571Y-80835771D01*
X146428571Y-80835771D02*
X146333333Y-80883390D01*
X146333333Y-80883390D02*
X146285714Y-80931009D01*
X146285714Y-80931009D02*
X146238095Y-81026247D01*
X146608333Y-104524819D02*
X146275000Y-104048628D01*
X146036905Y-104524819D02*
X146036905Y-103524819D01*
X146036905Y-103524819D02*
X146417857Y-103524819D01*
X146417857Y-103524819D02*
X146513095Y-103572438D01*
X146513095Y-103572438D02*
X146560714Y-103620057D01*
X146560714Y-103620057D02*
X146608333Y-103715295D01*
X146608333Y-103715295D02*
X146608333Y-103858152D01*
X146608333Y-103858152D02*
X146560714Y-103953390D01*
X146560714Y-103953390D02*
X146513095Y-104001009D01*
X146513095Y-104001009D02*
X146417857Y-104048628D01*
X146417857Y-104048628D02*
X146036905Y-104048628D01*
X147560714Y-104524819D02*
X146989286Y-104524819D01*
X147275000Y-104524819D02*
X147275000Y-103524819D01*
X147275000Y-103524819D02*
X147179762Y-103667676D01*
X147179762Y-103667676D02*
X147084524Y-103762914D01*
X147084524Y-103762914D02*
X146989286Y-103810533D01*
X105600595Y-79054819D02*
X105600595Y-79864342D01*
X105600595Y-79864342D02*
X105648214Y-79959580D01*
X105648214Y-79959580D02*
X105695833Y-80007200D01*
X105695833Y-80007200D02*
X105791071Y-80054819D01*
X105791071Y-80054819D02*
X105981547Y-80054819D01*
X105981547Y-80054819D02*
X106076785Y-80007200D01*
X106076785Y-80007200D02*
X106124404Y-79959580D01*
X106124404Y-79959580D02*
X106172023Y-79864342D01*
X106172023Y-79864342D02*
X106172023Y-79054819D01*
X106791071Y-79483390D02*
X106695833Y-79435771D01*
X106695833Y-79435771D02*
X106648214Y-79388152D01*
X106648214Y-79388152D02*
X106600595Y-79292914D01*
X106600595Y-79292914D02*
X106600595Y-79245295D01*
X106600595Y-79245295D02*
X106648214Y-79150057D01*
X106648214Y-79150057D02*
X106695833Y-79102438D01*
X106695833Y-79102438D02*
X106791071Y-79054819D01*
X106791071Y-79054819D02*
X106981547Y-79054819D01*
X106981547Y-79054819D02*
X107076785Y-79102438D01*
X107076785Y-79102438D02*
X107124404Y-79150057D01*
X107124404Y-79150057D02*
X107172023Y-79245295D01*
X107172023Y-79245295D02*
X107172023Y-79292914D01*
X107172023Y-79292914D02*
X107124404Y-79388152D01*
X107124404Y-79388152D02*
X107076785Y-79435771D01*
X107076785Y-79435771D02*
X106981547Y-79483390D01*
X106981547Y-79483390D02*
X106791071Y-79483390D01*
X106791071Y-79483390D02*
X106695833Y-79531009D01*
X106695833Y-79531009D02*
X106648214Y-79578628D01*
X106648214Y-79578628D02*
X106600595Y-79673866D01*
X106600595Y-79673866D02*
X106600595Y-79864342D01*
X106600595Y-79864342D02*
X106648214Y-79959580D01*
X106648214Y-79959580D02*
X106695833Y-80007200D01*
X106695833Y-80007200D02*
X106791071Y-80054819D01*
X106791071Y-80054819D02*
X106981547Y-80054819D01*
X106981547Y-80054819D02*
X107076785Y-80007200D01*
X107076785Y-80007200D02*
X107124404Y-79959580D01*
X107124404Y-79959580D02*
X107172023Y-79864342D01*
X107172023Y-79864342D02*
X107172023Y-79673866D01*
X107172023Y-79673866D02*
X107124404Y-79578628D01*
X107124404Y-79578628D02*
X107076785Y-79531009D01*
X107076785Y-79531009D02*
X106981547Y-79483390D01*
X114508095Y-95764819D02*
X114508095Y-96574342D01*
X114508095Y-96574342D02*
X114555714Y-96669580D01*
X114555714Y-96669580D02*
X114603333Y-96717200D01*
X114603333Y-96717200D02*
X114698571Y-96764819D01*
X114698571Y-96764819D02*
X114889047Y-96764819D01*
X114889047Y-96764819D02*
X114984285Y-96717200D01*
X114984285Y-96717200D02*
X115031904Y-96669580D01*
X115031904Y-96669580D02*
X115079523Y-96574342D01*
X115079523Y-96574342D02*
X115079523Y-95764819D01*
X116031904Y-95764819D02*
X115555714Y-95764819D01*
X115555714Y-95764819D02*
X115508095Y-96241009D01*
X115508095Y-96241009D02*
X115555714Y-96193390D01*
X115555714Y-96193390D02*
X115650952Y-96145771D01*
X115650952Y-96145771D02*
X115889047Y-96145771D01*
X115889047Y-96145771D02*
X115984285Y-96193390D01*
X115984285Y-96193390D02*
X116031904Y-96241009D01*
X116031904Y-96241009D02*
X116079523Y-96336247D01*
X116079523Y-96336247D02*
X116079523Y-96574342D01*
X116079523Y-96574342D02*
X116031904Y-96669580D01*
X116031904Y-96669580D02*
X115984285Y-96717200D01*
X115984285Y-96717200D02*
X115889047Y-96764819D01*
X115889047Y-96764819D02*
X115650952Y-96764819D01*
X115650952Y-96764819D02*
X115555714Y-96717200D01*
X115555714Y-96717200D02*
X115508095Y-96669580D01*
X94153333Y-107864819D02*
X93820000Y-107388628D01*
X93581905Y-107864819D02*
X93581905Y-106864819D01*
X93581905Y-106864819D02*
X93962857Y-106864819D01*
X93962857Y-106864819D02*
X94058095Y-106912438D01*
X94058095Y-106912438D02*
X94105714Y-106960057D01*
X94105714Y-106960057D02*
X94153333Y-107055295D01*
X94153333Y-107055295D02*
X94153333Y-107198152D01*
X94153333Y-107198152D02*
X94105714Y-107293390D01*
X94105714Y-107293390D02*
X94058095Y-107341009D01*
X94058095Y-107341009D02*
X93962857Y-107388628D01*
X93962857Y-107388628D02*
X93581905Y-107388628D01*
X95010476Y-106864819D02*
X94820000Y-106864819D01*
X94820000Y-106864819D02*
X94724762Y-106912438D01*
X94724762Y-106912438D02*
X94677143Y-106960057D01*
X94677143Y-106960057D02*
X94581905Y-107102914D01*
X94581905Y-107102914D02*
X94534286Y-107293390D01*
X94534286Y-107293390D02*
X94534286Y-107674342D01*
X94534286Y-107674342D02*
X94581905Y-107769580D01*
X94581905Y-107769580D02*
X94629524Y-107817200D01*
X94629524Y-107817200D02*
X94724762Y-107864819D01*
X94724762Y-107864819D02*
X94915238Y-107864819D01*
X94915238Y-107864819D02*
X95010476Y-107817200D01*
X95010476Y-107817200D02*
X95058095Y-107769580D01*
X95058095Y-107769580D02*
X95105714Y-107674342D01*
X95105714Y-107674342D02*
X95105714Y-107436247D01*
X95105714Y-107436247D02*
X95058095Y-107341009D01*
X95058095Y-107341009D02*
X95010476Y-107293390D01*
X95010476Y-107293390D02*
X94915238Y-107245771D01*
X94915238Y-107245771D02*
X94724762Y-107245771D01*
X94724762Y-107245771D02*
X94629524Y-107293390D01*
X94629524Y-107293390D02*
X94581905Y-107341009D01*
X94581905Y-107341009D02*
X94534286Y-107436247D01*
X119126667Y-103867200D02*
X119269524Y-103914819D01*
X119269524Y-103914819D02*
X119507619Y-103914819D01*
X119507619Y-103914819D02*
X119602857Y-103867200D01*
X119602857Y-103867200D02*
X119650476Y-103819580D01*
X119650476Y-103819580D02*
X119698095Y-103724342D01*
X119698095Y-103724342D02*
X119698095Y-103629104D01*
X119698095Y-103629104D02*
X119650476Y-103533866D01*
X119650476Y-103533866D02*
X119602857Y-103486247D01*
X119602857Y-103486247D02*
X119507619Y-103438628D01*
X119507619Y-103438628D02*
X119317143Y-103391009D01*
X119317143Y-103391009D02*
X119221905Y-103343390D01*
X119221905Y-103343390D02*
X119174286Y-103295771D01*
X119174286Y-103295771D02*
X119126667Y-103200533D01*
X119126667Y-103200533D02*
X119126667Y-103105295D01*
X119126667Y-103105295D02*
X119174286Y-103010057D01*
X119174286Y-103010057D02*
X119221905Y-102962438D01*
X119221905Y-102962438D02*
X119317143Y-102914819D01*
X119317143Y-102914819D02*
X119555238Y-102914819D01*
X119555238Y-102914819D02*
X119698095Y-102962438D01*
X120031429Y-102914819D02*
X120269524Y-103914819D01*
X120269524Y-103914819D02*
X120460000Y-103200533D01*
X120460000Y-103200533D02*
X120650476Y-103914819D01*
X120650476Y-103914819D02*
X120888572Y-102914819D01*
X121793333Y-103914819D02*
X121221905Y-103914819D01*
X121507619Y-103914819D02*
X121507619Y-102914819D01*
X121507619Y-102914819D02*
X121412381Y-103057676D01*
X121412381Y-103057676D02*
X121317143Y-103152914D01*
X121317143Y-103152914D02*
X121221905Y-103200533D01*
X152608333Y-83429580D02*
X152560714Y-83477200D01*
X152560714Y-83477200D02*
X152417857Y-83524819D01*
X152417857Y-83524819D02*
X152322619Y-83524819D01*
X152322619Y-83524819D02*
X152179762Y-83477200D01*
X152179762Y-83477200D02*
X152084524Y-83381961D01*
X152084524Y-83381961D02*
X152036905Y-83286723D01*
X152036905Y-83286723D02*
X151989286Y-83096247D01*
X151989286Y-83096247D02*
X151989286Y-82953390D01*
X151989286Y-82953390D02*
X152036905Y-82762914D01*
X152036905Y-82762914D02*
X152084524Y-82667676D01*
X152084524Y-82667676D02*
X152179762Y-82572438D01*
X152179762Y-82572438D02*
X152322619Y-82524819D01*
X152322619Y-82524819D02*
X152417857Y-82524819D01*
X152417857Y-82524819D02*
X152560714Y-82572438D01*
X152560714Y-82572438D02*
X152608333Y-82620057D01*
X153084524Y-83524819D02*
X153275000Y-83524819D01*
X153275000Y-83524819D02*
X153370238Y-83477200D01*
X153370238Y-83477200D02*
X153417857Y-83429580D01*
X153417857Y-83429580D02*
X153513095Y-83286723D01*
X153513095Y-83286723D02*
X153560714Y-83096247D01*
X153560714Y-83096247D02*
X153560714Y-82715295D01*
X153560714Y-82715295D02*
X153513095Y-82620057D01*
X153513095Y-82620057D02*
X153465476Y-82572438D01*
X153465476Y-82572438D02*
X153370238Y-82524819D01*
X153370238Y-82524819D02*
X153179762Y-82524819D01*
X153179762Y-82524819D02*
X153084524Y-82572438D01*
X153084524Y-82572438D02*
X153036905Y-82620057D01*
X153036905Y-82620057D02*
X152989286Y-82715295D01*
X152989286Y-82715295D02*
X152989286Y-82953390D01*
X152989286Y-82953390D02*
X153036905Y-83048628D01*
X153036905Y-83048628D02*
X153084524Y-83096247D01*
X153084524Y-83096247D02*
X153179762Y-83143866D01*
X153179762Y-83143866D02*
X153370238Y-83143866D01*
X153370238Y-83143866D02*
X153465476Y-83096247D01*
X153465476Y-83096247D02*
X153513095Y-83048628D01*
X153513095Y-83048628D02*
X153560714Y-82953390D01*
X160857142Y-106684819D02*
X160523809Y-106208628D01*
X160285714Y-106684819D02*
X160285714Y-105684819D01*
X160285714Y-105684819D02*
X160666666Y-105684819D01*
X160666666Y-105684819D02*
X160761904Y-105732438D01*
X160761904Y-105732438D02*
X160809523Y-105780057D01*
X160809523Y-105780057D02*
X160857142Y-105875295D01*
X160857142Y-105875295D02*
X160857142Y-106018152D01*
X160857142Y-106018152D02*
X160809523Y-106113390D01*
X160809523Y-106113390D02*
X160761904Y-106161009D01*
X160761904Y-106161009D02*
X160666666Y-106208628D01*
X160666666Y-106208628D02*
X160285714Y-106208628D01*
X161809523Y-106684819D02*
X161238095Y-106684819D01*
X161523809Y-106684819D02*
X161523809Y-105684819D01*
X161523809Y-105684819D02*
X161428571Y-105827676D01*
X161428571Y-105827676D02*
X161333333Y-105922914D01*
X161333333Y-105922914D02*
X161238095Y-105970533D01*
X162142857Y-105684819D02*
X162809523Y-105684819D01*
X162809523Y-105684819D02*
X162380952Y-106684819D01*
X122600595Y-96054819D02*
X122600595Y-96864342D01*
X122600595Y-96864342D02*
X122648214Y-96959580D01*
X122648214Y-96959580D02*
X122695833Y-97007200D01*
X122695833Y-97007200D02*
X122791071Y-97054819D01*
X122791071Y-97054819D02*
X122981547Y-97054819D01*
X122981547Y-97054819D02*
X123076785Y-97007200D01*
X123076785Y-97007200D02*
X123124404Y-96959580D01*
X123124404Y-96959580D02*
X123172023Y-96864342D01*
X123172023Y-96864342D02*
X123172023Y-96054819D01*
X123695833Y-97054819D02*
X123886309Y-97054819D01*
X123886309Y-97054819D02*
X123981547Y-97007200D01*
X123981547Y-97007200D02*
X124029166Y-96959580D01*
X124029166Y-96959580D02*
X124124404Y-96816723D01*
X124124404Y-96816723D02*
X124172023Y-96626247D01*
X124172023Y-96626247D02*
X124172023Y-96245295D01*
X124172023Y-96245295D02*
X124124404Y-96150057D01*
X124124404Y-96150057D02*
X124076785Y-96102438D01*
X124076785Y-96102438D02*
X123981547Y-96054819D01*
X123981547Y-96054819D02*
X123791071Y-96054819D01*
X123791071Y-96054819D02*
X123695833Y-96102438D01*
X123695833Y-96102438D02*
X123648214Y-96150057D01*
X123648214Y-96150057D02*
X123600595Y-96245295D01*
X123600595Y-96245295D02*
X123600595Y-96483390D01*
X123600595Y-96483390D02*
X123648214Y-96578628D01*
X123648214Y-96578628D02*
X123695833Y-96626247D01*
X123695833Y-96626247D02*
X123791071Y-96673866D01*
X123791071Y-96673866D02*
X123981547Y-96673866D01*
X123981547Y-96673866D02*
X124076785Y-96626247D01*
X124076785Y-96626247D02*
X124124404Y-96578628D01*
X124124404Y-96578628D02*
X124172023Y-96483390D01*
X94153333Y-103814819D02*
X93820000Y-103338628D01*
X93581905Y-103814819D02*
X93581905Y-102814819D01*
X93581905Y-102814819D02*
X93962857Y-102814819D01*
X93962857Y-102814819D02*
X94058095Y-102862438D01*
X94058095Y-102862438D02*
X94105714Y-102910057D01*
X94105714Y-102910057D02*
X94153333Y-103005295D01*
X94153333Y-103005295D02*
X94153333Y-103148152D01*
X94153333Y-103148152D02*
X94105714Y-103243390D01*
X94105714Y-103243390D02*
X94058095Y-103291009D01*
X94058095Y-103291009D02*
X93962857Y-103338628D01*
X93962857Y-103338628D02*
X93581905Y-103338628D01*
X95058095Y-102814819D02*
X94581905Y-102814819D01*
X94581905Y-102814819D02*
X94534286Y-103291009D01*
X94534286Y-103291009D02*
X94581905Y-103243390D01*
X94581905Y-103243390D02*
X94677143Y-103195771D01*
X94677143Y-103195771D02*
X94915238Y-103195771D01*
X94915238Y-103195771D02*
X95010476Y-103243390D01*
X95010476Y-103243390D02*
X95058095Y-103291009D01*
X95058095Y-103291009D02*
X95105714Y-103386247D01*
X95105714Y-103386247D02*
X95105714Y-103624342D01*
X95105714Y-103624342D02*
X95058095Y-103719580D01*
X95058095Y-103719580D02*
X95010476Y-103767200D01*
X95010476Y-103767200D02*
X94915238Y-103814819D01*
X94915238Y-103814819D02*
X94677143Y-103814819D01*
X94677143Y-103814819D02*
X94581905Y-103767200D01*
X94581905Y-103767200D02*
X94534286Y-103719580D01*
X106738095Y-107306819D02*
X107309523Y-107306819D01*
X107023809Y-108306819D02*
X107023809Y-107306819D01*
X107642857Y-108306819D02*
X107642857Y-107306819D01*
X107642857Y-107306819D02*
X108023809Y-107306819D01*
X108023809Y-107306819D02*
X108119047Y-107354438D01*
X108119047Y-107354438D02*
X108166666Y-107402057D01*
X108166666Y-107402057D02*
X108214285Y-107497295D01*
X108214285Y-107497295D02*
X108214285Y-107640152D01*
X108214285Y-107640152D02*
X108166666Y-107735390D01*
X108166666Y-107735390D02*
X108119047Y-107783009D01*
X108119047Y-107783009D02*
X108023809Y-107830628D01*
X108023809Y-107830628D02*
X107642857Y-107830628D01*
X108547619Y-107306819D02*
X109214285Y-107306819D01*
X109214285Y-107306819D02*
X108785714Y-108306819D01*
X148238095Y-118306819D02*
X148809523Y-118306819D01*
X148523809Y-119306819D02*
X148523809Y-118306819D01*
X149142857Y-119306819D02*
X149142857Y-118306819D01*
X149142857Y-118306819D02*
X149523809Y-118306819D01*
X149523809Y-118306819D02*
X149619047Y-118354438D01*
X149619047Y-118354438D02*
X149666666Y-118402057D01*
X149666666Y-118402057D02*
X149714285Y-118497295D01*
X149714285Y-118497295D02*
X149714285Y-118640152D01*
X149714285Y-118640152D02*
X149666666Y-118735390D01*
X149666666Y-118735390D02*
X149619047Y-118783009D01*
X149619047Y-118783009D02*
X149523809Y-118830628D01*
X149523809Y-118830628D02*
X149142857Y-118830628D01*
X150619047Y-118306819D02*
X150142857Y-118306819D01*
X150142857Y-118306819D02*
X150095238Y-118783009D01*
X150095238Y-118783009D02*
X150142857Y-118735390D01*
X150142857Y-118735390D02*
X150238095Y-118687771D01*
X150238095Y-118687771D02*
X150476190Y-118687771D01*
X150476190Y-118687771D02*
X150571428Y-118735390D01*
X150571428Y-118735390D02*
X150619047Y-118783009D01*
X150619047Y-118783009D02*
X150666666Y-118878247D01*
X150666666Y-118878247D02*
X150666666Y-119116342D01*
X150666666Y-119116342D02*
X150619047Y-119211580D01*
X150619047Y-119211580D02*
X150571428Y-119259200D01*
X150571428Y-119259200D02*
X150476190Y-119306819D01*
X150476190Y-119306819D02*
X150238095Y-119306819D01*
X150238095Y-119306819D02*
X150142857Y-119259200D01*
X150142857Y-119259200D02*
X150095238Y-119211580D01*
X160857142Y-90484819D02*
X160523809Y-90008628D01*
X160285714Y-90484819D02*
X160285714Y-89484819D01*
X160285714Y-89484819D02*
X160666666Y-89484819D01*
X160666666Y-89484819D02*
X160761904Y-89532438D01*
X160761904Y-89532438D02*
X160809523Y-89580057D01*
X160809523Y-89580057D02*
X160857142Y-89675295D01*
X160857142Y-89675295D02*
X160857142Y-89818152D01*
X160857142Y-89818152D02*
X160809523Y-89913390D01*
X160809523Y-89913390D02*
X160761904Y-89961009D01*
X160761904Y-89961009D02*
X160666666Y-90008628D01*
X160666666Y-90008628D02*
X160285714Y-90008628D01*
X161809523Y-90484819D02*
X161238095Y-90484819D01*
X161523809Y-90484819D02*
X161523809Y-89484819D01*
X161523809Y-89484819D02*
X161428571Y-89627676D01*
X161428571Y-89627676D02*
X161333333Y-89722914D01*
X161333333Y-89722914D02*
X161238095Y-89770533D01*
X162142857Y-89484819D02*
X162761904Y-89484819D01*
X162761904Y-89484819D02*
X162428571Y-89865771D01*
X162428571Y-89865771D02*
X162571428Y-89865771D01*
X162571428Y-89865771D02*
X162666666Y-89913390D01*
X162666666Y-89913390D02*
X162714285Y-89961009D01*
X162714285Y-89961009D02*
X162761904Y-90056247D01*
X162761904Y-90056247D02*
X162761904Y-90294342D01*
X162761904Y-90294342D02*
X162714285Y-90389580D01*
X162714285Y-90389580D02*
X162666666Y-90437200D01*
X162666666Y-90437200D02*
X162571428Y-90484819D01*
X162571428Y-90484819D02*
X162285714Y-90484819D01*
X162285714Y-90484819D02*
X162190476Y-90437200D01*
X162190476Y-90437200D02*
X162142857Y-90389580D01*
X114945833Y-111954580D02*
X114898214Y-112002200D01*
X114898214Y-112002200D02*
X114755357Y-112049819D01*
X114755357Y-112049819D02*
X114660119Y-112049819D01*
X114660119Y-112049819D02*
X114517262Y-112002200D01*
X114517262Y-112002200D02*
X114422024Y-111906961D01*
X114422024Y-111906961D02*
X114374405Y-111811723D01*
X114374405Y-111811723D02*
X114326786Y-111621247D01*
X114326786Y-111621247D02*
X114326786Y-111478390D01*
X114326786Y-111478390D02*
X114374405Y-111287914D01*
X114374405Y-111287914D02*
X114422024Y-111192676D01*
X114422024Y-111192676D02*
X114517262Y-111097438D01*
X114517262Y-111097438D02*
X114660119Y-111049819D01*
X114660119Y-111049819D02*
X114755357Y-111049819D01*
X114755357Y-111049819D02*
X114898214Y-111097438D01*
X114898214Y-111097438D02*
X114945833Y-111145057D01*
X115326786Y-111145057D02*
X115374405Y-111097438D01*
X115374405Y-111097438D02*
X115469643Y-111049819D01*
X115469643Y-111049819D02*
X115707738Y-111049819D01*
X115707738Y-111049819D02*
X115802976Y-111097438D01*
X115802976Y-111097438D02*
X115850595Y-111145057D01*
X115850595Y-111145057D02*
X115898214Y-111240295D01*
X115898214Y-111240295D02*
X115898214Y-111335533D01*
X115898214Y-111335533D02*
X115850595Y-111478390D01*
X115850595Y-111478390D02*
X115279167Y-112049819D01*
X115279167Y-112049819D02*
X115898214Y-112049819D01*
X137857142Y-91804819D02*
X137523809Y-91328628D01*
X137285714Y-91804819D02*
X137285714Y-90804819D01*
X137285714Y-90804819D02*
X137666666Y-90804819D01*
X137666666Y-90804819D02*
X137761904Y-90852438D01*
X137761904Y-90852438D02*
X137809523Y-90900057D01*
X137809523Y-90900057D02*
X137857142Y-90995295D01*
X137857142Y-90995295D02*
X137857142Y-91138152D01*
X137857142Y-91138152D02*
X137809523Y-91233390D01*
X137809523Y-91233390D02*
X137761904Y-91281009D01*
X137761904Y-91281009D02*
X137666666Y-91328628D01*
X137666666Y-91328628D02*
X137285714Y-91328628D01*
X138809523Y-91804819D02*
X138238095Y-91804819D01*
X138523809Y-91804819D02*
X138523809Y-90804819D01*
X138523809Y-90804819D02*
X138428571Y-90947676D01*
X138428571Y-90947676D02*
X138333333Y-91042914D01*
X138333333Y-91042914D02*
X138238095Y-91090533D01*
X139428571Y-90804819D02*
X139523809Y-90804819D01*
X139523809Y-90804819D02*
X139619047Y-90852438D01*
X139619047Y-90852438D02*
X139666666Y-90900057D01*
X139666666Y-90900057D02*
X139714285Y-90995295D01*
X139714285Y-90995295D02*
X139761904Y-91185771D01*
X139761904Y-91185771D02*
X139761904Y-91423866D01*
X139761904Y-91423866D02*
X139714285Y-91614342D01*
X139714285Y-91614342D02*
X139666666Y-91709580D01*
X139666666Y-91709580D02*
X139619047Y-91757200D01*
X139619047Y-91757200D02*
X139523809Y-91804819D01*
X139523809Y-91804819D02*
X139428571Y-91804819D01*
X139428571Y-91804819D02*
X139333333Y-91757200D01*
X139333333Y-91757200D02*
X139285714Y-91709580D01*
X139285714Y-91709580D02*
X139238095Y-91614342D01*
X139238095Y-91614342D02*
X139190476Y-91423866D01*
X139190476Y-91423866D02*
X139190476Y-91185771D01*
X139190476Y-91185771D02*
X139238095Y-90995295D01*
X139238095Y-90995295D02*
X139285714Y-90900057D01*
X139285714Y-90900057D02*
X139333333Y-90852438D01*
X139333333Y-90852438D02*
X139428571Y-90804819D01*
X147300595Y-89874819D02*
X147300595Y-90684342D01*
X147300595Y-90684342D02*
X147348214Y-90779580D01*
X147348214Y-90779580D02*
X147395833Y-90827200D01*
X147395833Y-90827200D02*
X147491071Y-90874819D01*
X147491071Y-90874819D02*
X147681547Y-90874819D01*
X147681547Y-90874819D02*
X147776785Y-90827200D01*
X147776785Y-90827200D02*
X147824404Y-90779580D01*
X147824404Y-90779580D02*
X147872023Y-90684342D01*
X147872023Y-90684342D02*
X147872023Y-89874819D01*
X148776785Y-90208152D02*
X148776785Y-90874819D01*
X148538690Y-89827200D02*
X148300595Y-90541485D01*
X148300595Y-90541485D02*
X148919642Y-90541485D01*
X119535833Y-81929580D02*
X119488214Y-81977200D01*
X119488214Y-81977200D02*
X119345357Y-82024819D01*
X119345357Y-82024819D02*
X119250119Y-82024819D01*
X119250119Y-82024819D02*
X119107262Y-81977200D01*
X119107262Y-81977200D02*
X119012024Y-81881961D01*
X119012024Y-81881961D02*
X118964405Y-81786723D01*
X118964405Y-81786723D02*
X118916786Y-81596247D01*
X118916786Y-81596247D02*
X118916786Y-81453390D01*
X118916786Y-81453390D02*
X118964405Y-81262914D01*
X118964405Y-81262914D02*
X119012024Y-81167676D01*
X119012024Y-81167676D02*
X119107262Y-81072438D01*
X119107262Y-81072438D02*
X119250119Y-81024819D01*
X119250119Y-81024819D02*
X119345357Y-81024819D01*
X119345357Y-81024819D02*
X119488214Y-81072438D01*
X119488214Y-81072438D02*
X119535833Y-81120057D01*
X120392976Y-81024819D02*
X120202500Y-81024819D01*
X120202500Y-81024819D02*
X120107262Y-81072438D01*
X120107262Y-81072438D02*
X120059643Y-81120057D01*
X120059643Y-81120057D02*
X119964405Y-81262914D01*
X119964405Y-81262914D02*
X119916786Y-81453390D01*
X119916786Y-81453390D02*
X119916786Y-81834342D01*
X119916786Y-81834342D02*
X119964405Y-81929580D01*
X119964405Y-81929580D02*
X120012024Y-81977200D01*
X120012024Y-81977200D02*
X120107262Y-82024819D01*
X120107262Y-82024819D02*
X120297738Y-82024819D01*
X120297738Y-82024819D02*
X120392976Y-81977200D01*
X120392976Y-81977200D02*
X120440595Y-81929580D01*
X120440595Y-81929580D02*
X120488214Y-81834342D01*
X120488214Y-81834342D02*
X120488214Y-81596247D01*
X120488214Y-81596247D02*
X120440595Y-81501009D01*
X120440595Y-81501009D02*
X120392976Y-81453390D01*
X120392976Y-81453390D02*
X120297738Y-81405771D01*
X120297738Y-81405771D02*
X120107262Y-81405771D01*
X120107262Y-81405771D02*
X120012024Y-81453390D01*
X120012024Y-81453390D02*
X119964405Y-81501009D01*
X119964405Y-81501009D02*
X119916786Y-81596247D01*
X141600595Y-85579819D02*
X141600595Y-86389342D01*
X141600595Y-86389342D02*
X141648214Y-86484580D01*
X141648214Y-86484580D02*
X141695833Y-86532200D01*
X141695833Y-86532200D02*
X141791071Y-86579819D01*
X141791071Y-86579819D02*
X141981547Y-86579819D01*
X141981547Y-86579819D02*
X142076785Y-86532200D01*
X142076785Y-86532200D02*
X142124404Y-86484580D01*
X142124404Y-86484580D02*
X142172023Y-86389342D01*
X142172023Y-86389342D02*
X142172023Y-85579819D01*
X143172023Y-86579819D02*
X142600595Y-86579819D01*
X142886309Y-86579819D02*
X142886309Y-85579819D01*
X142886309Y-85579819D02*
X142791071Y-85722676D01*
X142791071Y-85722676D02*
X142695833Y-85817914D01*
X142695833Y-85817914D02*
X142600595Y-85865533D01*
X114945833Y-114464580D02*
X114898214Y-114512200D01*
X114898214Y-114512200D02*
X114755357Y-114559819D01*
X114755357Y-114559819D02*
X114660119Y-114559819D01*
X114660119Y-114559819D02*
X114517262Y-114512200D01*
X114517262Y-114512200D02*
X114422024Y-114416961D01*
X114422024Y-114416961D02*
X114374405Y-114321723D01*
X114374405Y-114321723D02*
X114326786Y-114131247D01*
X114326786Y-114131247D02*
X114326786Y-113988390D01*
X114326786Y-113988390D02*
X114374405Y-113797914D01*
X114374405Y-113797914D02*
X114422024Y-113702676D01*
X114422024Y-113702676D02*
X114517262Y-113607438D01*
X114517262Y-113607438D02*
X114660119Y-113559819D01*
X114660119Y-113559819D02*
X114755357Y-113559819D01*
X114755357Y-113559819D02*
X114898214Y-113607438D01*
X114898214Y-113607438D02*
X114945833Y-113655057D01*
X115850595Y-113559819D02*
X115374405Y-113559819D01*
X115374405Y-113559819D02*
X115326786Y-114036009D01*
X115326786Y-114036009D02*
X115374405Y-113988390D01*
X115374405Y-113988390D02*
X115469643Y-113940771D01*
X115469643Y-113940771D02*
X115707738Y-113940771D01*
X115707738Y-113940771D02*
X115802976Y-113988390D01*
X115802976Y-113988390D02*
X115850595Y-114036009D01*
X115850595Y-114036009D02*
X115898214Y-114131247D01*
X115898214Y-114131247D02*
X115898214Y-114369342D01*
X115898214Y-114369342D02*
X115850595Y-114464580D01*
X115850595Y-114464580D02*
X115802976Y-114512200D01*
X115802976Y-114512200D02*
X115707738Y-114559819D01*
X115707738Y-114559819D02*
X115469643Y-114559819D01*
X115469643Y-114559819D02*
X115374405Y-114512200D01*
X115374405Y-114512200D02*
X115326786Y-114464580D01*
X131813333Y-83589819D02*
X131480000Y-83113628D01*
X131241905Y-83589819D02*
X131241905Y-82589819D01*
X131241905Y-82589819D02*
X131622857Y-82589819D01*
X131622857Y-82589819D02*
X131718095Y-82637438D01*
X131718095Y-82637438D02*
X131765714Y-82685057D01*
X131765714Y-82685057D02*
X131813333Y-82780295D01*
X131813333Y-82780295D02*
X131813333Y-82923152D01*
X131813333Y-82923152D02*
X131765714Y-83018390D01*
X131765714Y-83018390D02*
X131718095Y-83066009D01*
X131718095Y-83066009D02*
X131622857Y-83113628D01*
X131622857Y-83113628D02*
X131241905Y-83113628D01*
X132289524Y-83589819D02*
X132480000Y-83589819D01*
X132480000Y-83589819D02*
X132575238Y-83542200D01*
X132575238Y-83542200D02*
X132622857Y-83494580D01*
X132622857Y-83494580D02*
X132718095Y-83351723D01*
X132718095Y-83351723D02*
X132765714Y-83161247D01*
X132765714Y-83161247D02*
X132765714Y-82780295D01*
X132765714Y-82780295D02*
X132718095Y-82685057D01*
X132718095Y-82685057D02*
X132670476Y-82637438D01*
X132670476Y-82637438D02*
X132575238Y-82589819D01*
X132575238Y-82589819D02*
X132384762Y-82589819D01*
X132384762Y-82589819D02*
X132289524Y-82637438D01*
X132289524Y-82637438D02*
X132241905Y-82685057D01*
X132241905Y-82685057D02*
X132194286Y-82780295D01*
X132194286Y-82780295D02*
X132194286Y-83018390D01*
X132194286Y-83018390D02*
X132241905Y-83113628D01*
X132241905Y-83113628D02*
X132289524Y-83161247D01*
X132289524Y-83161247D02*
X132384762Y-83208866D01*
X132384762Y-83208866D02*
X132575238Y-83208866D01*
X132575238Y-83208866D02*
X132670476Y-83161247D01*
X132670476Y-83161247D02*
X132718095Y-83113628D01*
X132718095Y-83113628D02*
X132765714Y-83018390D01*
X148738095Y-108306819D02*
X149309523Y-108306819D01*
X149023809Y-109306819D02*
X149023809Y-108306819D01*
X149642857Y-109306819D02*
X149642857Y-108306819D01*
X149642857Y-108306819D02*
X150023809Y-108306819D01*
X150023809Y-108306819D02*
X150119047Y-108354438D01*
X150119047Y-108354438D02*
X150166666Y-108402057D01*
X150166666Y-108402057D02*
X150214285Y-108497295D01*
X150214285Y-108497295D02*
X150214285Y-108640152D01*
X150214285Y-108640152D02*
X150166666Y-108735390D01*
X150166666Y-108735390D02*
X150119047Y-108783009D01*
X150119047Y-108783009D02*
X150023809Y-108830628D01*
X150023809Y-108830628D02*
X149642857Y-108830628D01*
X151071428Y-108306819D02*
X150880952Y-108306819D01*
X150880952Y-108306819D02*
X150785714Y-108354438D01*
X150785714Y-108354438D02*
X150738095Y-108402057D01*
X150738095Y-108402057D02*
X150642857Y-108544914D01*
X150642857Y-108544914D02*
X150595238Y-108735390D01*
X150595238Y-108735390D02*
X150595238Y-109116342D01*
X150595238Y-109116342D02*
X150642857Y-109211580D01*
X150642857Y-109211580D02*
X150690476Y-109259200D01*
X150690476Y-109259200D02*
X150785714Y-109306819D01*
X150785714Y-109306819D02*
X150976190Y-109306819D01*
X150976190Y-109306819D02*
X151071428Y-109259200D01*
X151071428Y-109259200D02*
X151119047Y-109211580D01*
X151119047Y-109211580D02*
X151166666Y-109116342D01*
X151166666Y-109116342D02*
X151166666Y-108878247D01*
X151166666Y-108878247D02*
X151119047Y-108783009D01*
X151119047Y-108783009D02*
X151071428Y-108735390D01*
X151071428Y-108735390D02*
X150976190Y-108687771D01*
X150976190Y-108687771D02*
X150785714Y-108687771D01*
X150785714Y-108687771D02*
X150690476Y-108735390D01*
X150690476Y-108735390D02*
X150642857Y-108783009D01*
X150642857Y-108783009D02*
X150595238Y-108878247D01*
X110394819Y-122333333D02*
X111109104Y-122333333D01*
X111109104Y-122333333D02*
X111251961Y-122380952D01*
X111251961Y-122380952D02*
X111347200Y-122476190D01*
X111347200Y-122476190D02*
X111394819Y-122619047D01*
X111394819Y-122619047D02*
X111394819Y-122714285D01*
X110490057Y-121904761D02*
X110442438Y-121857142D01*
X110442438Y-121857142D02*
X110394819Y-121761904D01*
X110394819Y-121761904D02*
X110394819Y-121523809D01*
X110394819Y-121523809D02*
X110442438Y-121428571D01*
X110442438Y-121428571D02*
X110490057Y-121380952D01*
X110490057Y-121380952D02*
X110585295Y-121333333D01*
X110585295Y-121333333D02*
X110680533Y-121333333D01*
X110680533Y-121333333D02*
X110823390Y-121380952D01*
X110823390Y-121380952D02*
X111394819Y-121952380D01*
X111394819Y-121952380D02*
X111394819Y-121333333D01*
X126938095Y-109254819D02*
X126938095Y-110064342D01*
X126938095Y-110064342D02*
X126985714Y-110159580D01*
X126985714Y-110159580D02*
X127033333Y-110207200D01*
X127033333Y-110207200D02*
X127128571Y-110254819D01*
X127128571Y-110254819D02*
X127319047Y-110254819D01*
X127319047Y-110254819D02*
X127414285Y-110207200D01*
X127414285Y-110207200D02*
X127461904Y-110159580D01*
X127461904Y-110159580D02*
X127509523Y-110064342D01*
X127509523Y-110064342D02*
X127509523Y-109254819D01*
X128414285Y-109254819D02*
X128223809Y-109254819D01*
X128223809Y-109254819D02*
X128128571Y-109302438D01*
X128128571Y-109302438D02*
X128080952Y-109350057D01*
X128080952Y-109350057D02*
X127985714Y-109492914D01*
X127985714Y-109492914D02*
X127938095Y-109683390D01*
X127938095Y-109683390D02*
X127938095Y-110064342D01*
X127938095Y-110064342D02*
X127985714Y-110159580D01*
X127985714Y-110159580D02*
X128033333Y-110207200D01*
X128033333Y-110207200D02*
X128128571Y-110254819D01*
X128128571Y-110254819D02*
X128319047Y-110254819D01*
X128319047Y-110254819D02*
X128414285Y-110207200D01*
X128414285Y-110207200D02*
X128461904Y-110159580D01*
X128461904Y-110159580D02*
X128509523Y-110064342D01*
X128509523Y-110064342D02*
X128509523Y-109826247D01*
X128509523Y-109826247D02*
X128461904Y-109731009D01*
X128461904Y-109731009D02*
X128414285Y-109683390D01*
X128414285Y-109683390D02*
X128319047Y-109635771D01*
X128319047Y-109635771D02*
X128128571Y-109635771D01*
X128128571Y-109635771D02*
X128033333Y-109683390D01*
X128033333Y-109683390D02*
X127985714Y-109731009D01*
X127985714Y-109731009D02*
X127938095Y-109826247D01*
X87653333Y-116264819D02*
X87320000Y-115788628D01*
X87081905Y-116264819D02*
X87081905Y-115264819D01*
X87081905Y-115264819D02*
X87462857Y-115264819D01*
X87462857Y-115264819D02*
X87558095Y-115312438D01*
X87558095Y-115312438D02*
X87605714Y-115360057D01*
X87605714Y-115360057D02*
X87653333Y-115455295D01*
X87653333Y-115455295D02*
X87653333Y-115598152D01*
X87653333Y-115598152D02*
X87605714Y-115693390D01*
X87605714Y-115693390D02*
X87558095Y-115741009D01*
X87558095Y-115741009D02*
X87462857Y-115788628D01*
X87462857Y-115788628D02*
X87081905Y-115788628D01*
X88224762Y-115693390D02*
X88129524Y-115645771D01*
X88129524Y-115645771D02*
X88081905Y-115598152D01*
X88081905Y-115598152D02*
X88034286Y-115502914D01*
X88034286Y-115502914D02*
X88034286Y-115455295D01*
X88034286Y-115455295D02*
X88081905Y-115360057D01*
X88081905Y-115360057D02*
X88129524Y-115312438D01*
X88129524Y-115312438D02*
X88224762Y-115264819D01*
X88224762Y-115264819D02*
X88415238Y-115264819D01*
X88415238Y-115264819D02*
X88510476Y-115312438D01*
X88510476Y-115312438D02*
X88558095Y-115360057D01*
X88558095Y-115360057D02*
X88605714Y-115455295D01*
X88605714Y-115455295D02*
X88605714Y-115502914D01*
X88605714Y-115502914D02*
X88558095Y-115598152D01*
X88558095Y-115598152D02*
X88510476Y-115645771D01*
X88510476Y-115645771D02*
X88415238Y-115693390D01*
X88415238Y-115693390D02*
X88224762Y-115693390D01*
X88224762Y-115693390D02*
X88129524Y-115741009D01*
X88129524Y-115741009D02*
X88081905Y-115788628D01*
X88081905Y-115788628D02*
X88034286Y-115883866D01*
X88034286Y-115883866D02*
X88034286Y-116074342D01*
X88034286Y-116074342D02*
X88081905Y-116169580D01*
X88081905Y-116169580D02*
X88129524Y-116217200D01*
X88129524Y-116217200D02*
X88224762Y-116264819D01*
X88224762Y-116264819D02*
X88415238Y-116264819D01*
X88415238Y-116264819D02*
X88510476Y-116217200D01*
X88510476Y-116217200D02*
X88558095Y-116169580D01*
X88558095Y-116169580D02*
X88605714Y-116074342D01*
X88605714Y-116074342D02*
X88605714Y-115883866D01*
X88605714Y-115883866D02*
X88558095Y-115788628D01*
X88558095Y-115788628D02*
X88510476Y-115741009D01*
X88510476Y-115741009D02*
X88415238Y-115693390D01*
X152333333Y-88209580D02*
X152285714Y-88257200D01*
X152285714Y-88257200D02*
X152142857Y-88304819D01*
X152142857Y-88304819D02*
X152047619Y-88304819D01*
X152047619Y-88304819D02*
X151904762Y-88257200D01*
X151904762Y-88257200D02*
X151809524Y-88161961D01*
X151809524Y-88161961D02*
X151761905Y-88066723D01*
X151761905Y-88066723D02*
X151714286Y-87876247D01*
X151714286Y-87876247D02*
X151714286Y-87733390D01*
X151714286Y-87733390D02*
X151761905Y-87542914D01*
X151761905Y-87542914D02*
X151809524Y-87447676D01*
X151809524Y-87447676D02*
X151904762Y-87352438D01*
X151904762Y-87352438D02*
X152047619Y-87304819D01*
X152047619Y-87304819D02*
X152142857Y-87304819D01*
X152142857Y-87304819D02*
X152285714Y-87352438D01*
X152285714Y-87352438D02*
X152333333Y-87400057D01*
X152904762Y-87733390D02*
X152809524Y-87685771D01*
X152809524Y-87685771D02*
X152761905Y-87638152D01*
X152761905Y-87638152D02*
X152714286Y-87542914D01*
X152714286Y-87542914D02*
X152714286Y-87495295D01*
X152714286Y-87495295D02*
X152761905Y-87400057D01*
X152761905Y-87400057D02*
X152809524Y-87352438D01*
X152809524Y-87352438D02*
X152904762Y-87304819D01*
X152904762Y-87304819D02*
X153095238Y-87304819D01*
X153095238Y-87304819D02*
X153190476Y-87352438D01*
X153190476Y-87352438D02*
X153238095Y-87400057D01*
X153238095Y-87400057D02*
X153285714Y-87495295D01*
X153285714Y-87495295D02*
X153285714Y-87542914D01*
X153285714Y-87542914D02*
X153238095Y-87638152D01*
X153238095Y-87638152D02*
X153190476Y-87685771D01*
X153190476Y-87685771D02*
X153095238Y-87733390D01*
X153095238Y-87733390D02*
X152904762Y-87733390D01*
X152904762Y-87733390D02*
X152809524Y-87781009D01*
X152809524Y-87781009D02*
X152761905Y-87828628D01*
X152761905Y-87828628D02*
X152714286Y-87923866D01*
X152714286Y-87923866D02*
X152714286Y-88114342D01*
X152714286Y-88114342D02*
X152761905Y-88209580D01*
X152761905Y-88209580D02*
X152809524Y-88257200D01*
X152809524Y-88257200D02*
X152904762Y-88304819D01*
X152904762Y-88304819D02*
X153095238Y-88304819D01*
X153095238Y-88304819D02*
X153190476Y-88257200D01*
X153190476Y-88257200D02*
X153238095Y-88209580D01*
X153238095Y-88209580D02*
X153285714Y-88114342D01*
X153285714Y-88114342D02*
X153285714Y-87923866D01*
X153285714Y-87923866D02*
X153238095Y-87828628D01*
X153238095Y-87828628D02*
X153190476Y-87781009D01*
X153190476Y-87781009D02*
X153095238Y-87733390D01*
X160857142Y-86434819D02*
X160523809Y-85958628D01*
X160285714Y-86434819D02*
X160285714Y-85434819D01*
X160285714Y-85434819D02*
X160666666Y-85434819D01*
X160666666Y-85434819D02*
X160761904Y-85482438D01*
X160761904Y-85482438D02*
X160809523Y-85530057D01*
X160809523Y-85530057D02*
X160857142Y-85625295D01*
X160857142Y-85625295D02*
X160857142Y-85768152D01*
X160857142Y-85768152D02*
X160809523Y-85863390D01*
X160809523Y-85863390D02*
X160761904Y-85911009D01*
X160761904Y-85911009D02*
X160666666Y-85958628D01*
X160666666Y-85958628D02*
X160285714Y-85958628D01*
X161809523Y-86434819D02*
X161238095Y-86434819D01*
X161523809Y-86434819D02*
X161523809Y-85434819D01*
X161523809Y-85434819D02*
X161428571Y-85577676D01*
X161428571Y-85577676D02*
X161333333Y-85672914D01*
X161333333Y-85672914D02*
X161238095Y-85720533D01*
X162190476Y-85530057D02*
X162238095Y-85482438D01*
X162238095Y-85482438D02*
X162333333Y-85434819D01*
X162333333Y-85434819D02*
X162571428Y-85434819D01*
X162571428Y-85434819D02*
X162666666Y-85482438D01*
X162666666Y-85482438D02*
X162714285Y-85530057D01*
X162714285Y-85530057D02*
X162761904Y-85625295D01*
X162761904Y-85625295D02*
X162761904Y-85720533D01*
X162761904Y-85720533D02*
X162714285Y-85863390D01*
X162714285Y-85863390D02*
X162142857Y-86434819D01*
X162142857Y-86434819D02*
X162761904Y-86434819D01*
X123545833Y-82024819D02*
X123069643Y-82024819D01*
X123069643Y-82024819D02*
X123069643Y-81024819D01*
X124402976Y-82024819D02*
X123831548Y-82024819D01*
X124117262Y-82024819D02*
X124117262Y-81024819D01*
X124117262Y-81024819D02*
X124022024Y-81167676D01*
X124022024Y-81167676D02*
X123926786Y-81262914D01*
X123926786Y-81262914D02*
X123831548Y-81310533D01*
X120738095Y-111306819D02*
X121309523Y-111306819D01*
X121023809Y-112306819D02*
X121023809Y-111306819D01*
X121642857Y-112306819D02*
X121642857Y-111306819D01*
X121642857Y-111306819D02*
X122023809Y-111306819D01*
X122023809Y-111306819D02*
X122119047Y-111354438D01*
X122119047Y-111354438D02*
X122166666Y-111402057D01*
X122166666Y-111402057D02*
X122214285Y-111497295D01*
X122214285Y-111497295D02*
X122214285Y-111640152D01*
X122214285Y-111640152D02*
X122166666Y-111735390D01*
X122166666Y-111735390D02*
X122119047Y-111783009D01*
X122119047Y-111783009D02*
X122023809Y-111830628D01*
X122023809Y-111830628D02*
X121642857Y-111830628D01*
X122785714Y-111735390D02*
X122690476Y-111687771D01*
X122690476Y-111687771D02*
X122642857Y-111640152D01*
X122642857Y-111640152D02*
X122595238Y-111544914D01*
X122595238Y-111544914D02*
X122595238Y-111497295D01*
X122595238Y-111497295D02*
X122642857Y-111402057D01*
X122642857Y-111402057D02*
X122690476Y-111354438D01*
X122690476Y-111354438D02*
X122785714Y-111306819D01*
X122785714Y-111306819D02*
X122976190Y-111306819D01*
X122976190Y-111306819D02*
X123071428Y-111354438D01*
X123071428Y-111354438D02*
X123119047Y-111402057D01*
X123119047Y-111402057D02*
X123166666Y-111497295D01*
X123166666Y-111497295D02*
X123166666Y-111544914D01*
X123166666Y-111544914D02*
X123119047Y-111640152D01*
X123119047Y-111640152D02*
X123071428Y-111687771D01*
X123071428Y-111687771D02*
X122976190Y-111735390D01*
X122976190Y-111735390D02*
X122785714Y-111735390D01*
X122785714Y-111735390D02*
X122690476Y-111783009D01*
X122690476Y-111783009D02*
X122642857Y-111830628D01*
X122642857Y-111830628D02*
X122595238Y-111925866D01*
X122595238Y-111925866D02*
X122595238Y-112116342D01*
X122595238Y-112116342D02*
X122642857Y-112211580D01*
X122642857Y-112211580D02*
X122690476Y-112259200D01*
X122690476Y-112259200D02*
X122785714Y-112306819D01*
X122785714Y-112306819D02*
X122976190Y-112306819D01*
X122976190Y-112306819D02*
X123071428Y-112259200D01*
X123071428Y-112259200D02*
X123119047Y-112211580D01*
X123119047Y-112211580D02*
X123166666Y-112116342D01*
X123166666Y-112116342D02*
X123166666Y-111925866D01*
X123166666Y-111925866D02*
X123119047Y-111830628D01*
X123119047Y-111830628D02*
X123071428Y-111783009D01*
X123071428Y-111783009D02*
X122976190Y-111735390D01*
X125738095Y-84806819D02*
X126309523Y-84806819D01*
X126023809Y-85806819D02*
X126023809Y-84806819D01*
X126642857Y-85806819D02*
X126642857Y-84806819D01*
X126642857Y-84806819D02*
X127023809Y-84806819D01*
X127023809Y-84806819D02*
X127119047Y-84854438D01*
X127119047Y-84854438D02*
X127166666Y-84902057D01*
X127166666Y-84902057D02*
X127214285Y-84997295D01*
X127214285Y-84997295D02*
X127214285Y-85140152D01*
X127214285Y-85140152D02*
X127166666Y-85235390D01*
X127166666Y-85235390D02*
X127119047Y-85283009D01*
X127119047Y-85283009D02*
X127023809Y-85330628D01*
X127023809Y-85330628D02*
X126642857Y-85330628D01*
X128166666Y-85806819D02*
X127595238Y-85806819D01*
X127880952Y-85806819D02*
X127880952Y-84806819D01*
X127880952Y-84806819D02*
X127785714Y-84949676D01*
X127785714Y-84949676D02*
X127690476Y-85044914D01*
X127690476Y-85044914D02*
X127595238Y-85092533D01*
X160857142Y-98584819D02*
X160523809Y-98108628D01*
X160285714Y-98584819D02*
X160285714Y-97584819D01*
X160285714Y-97584819D02*
X160666666Y-97584819D01*
X160666666Y-97584819D02*
X160761904Y-97632438D01*
X160761904Y-97632438D02*
X160809523Y-97680057D01*
X160809523Y-97680057D02*
X160857142Y-97775295D01*
X160857142Y-97775295D02*
X160857142Y-97918152D01*
X160857142Y-97918152D02*
X160809523Y-98013390D01*
X160809523Y-98013390D02*
X160761904Y-98061009D01*
X160761904Y-98061009D02*
X160666666Y-98108628D01*
X160666666Y-98108628D02*
X160285714Y-98108628D01*
X161809523Y-98584819D02*
X161238095Y-98584819D01*
X161523809Y-98584819D02*
X161523809Y-97584819D01*
X161523809Y-97584819D02*
X161428571Y-97727676D01*
X161428571Y-97727676D02*
X161333333Y-97822914D01*
X161333333Y-97822914D02*
X161238095Y-97870533D01*
X162714285Y-97584819D02*
X162238095Y-97584819D01*
X162238095Y-97584819D02*
X162190476Y-98061009D01*
X162190476Y-98061009D02*
X162238095Y-98013390D01*
X162238095Y-98013390D02*
X162333333Y-97965771D01*
X162333333Y-97965771D02*
X162571428Y-97965771D01*
X162571428Y-97965771D02*
X162666666Y-98013390D01*
X162666666Y-98013390D02*
X162714285Y-98061009D01*
X162714285Y-98061009D02*
X162761904Y-98156247D01*
X162761904Y-98156247D02*
X162761904Y-98394342D01*
X162761904Y-98394342D02*
X162714285Y-98489580D01*
X162714285Y-98489580D02*
X162666666Y-98537200D01*
X162666666Y-98537200D02*
X162571428Y-98584819D01*
X162571428Y-98584819D02*
X162333333Y-98584819D01*
X162333333Y-98584819D02*
X162238095Y-98537200D01*
X162238095Y-98537200D02*
X162190476Y-98489580D01*
X160857142Y-102634819D02*
X160523809Y-102158628D01*
X160285714Y-102634819D02*
X160285714Y-101634819D01*
X160285714Y-101634819D02*
X160666666Y-101634819D01*
X160666666Y-101634819D02*
X160761904Y-101682438D01*
X160761904Y-101682438D02*
X160809523Y-101730057D01*
X160809523Y-101730057D02*
X160857142Y-101825295D01*
X160857142Y-101825295D02*
X160857142Y-101968152D01*
X160857142Y-101968152D02*
X160809523Y-102063390D01*
X160809523Y-102063390D02*
X160761904Y-102111009D01*
X160761904Y-102111009D02*
X160666666Y-102158628D01*
X160666666Y-102158628D02*
X160285714Y-102158628D01*
X161809523Y-102634819D02*
X161238095Y-102634819D01*
X161523809Y-102634819D02*
X161523809Y-101634819D01*
X161523809Y-101634819D02*
X161428571Y-101777676D01*
X161428571Y-101777676D02*
X161333333Y-101872914D01*
X161333333Y-101872914D02*
X161238095Y-101920533D01*
X162666666Y-101634819D02*
X162476190Y-101634819D01*
X162476190Y-101634819D02*
X162380952Y-101682438D01*
X162380952Y-101682438D02*
X162333333Y-101730057D01*
X162333333Y-101730057D02*
X162238095Y-101872914D01*
X162238095Y-101872914D02*
X162190476Y-102063390D01*
X162190476Y-102063390D02*
X162190476Y-102444342D01*
X162190476Y-102444342D02*
X162238095Y-102539580D01*
X162238095Y-102539580D02*
X162285714Y-102587200D01*
X162285714Y-102587200D02*
X162380952Y-102634819D01*
X162380952Y-102634819D02*
X162571428Y-102634819D01*
X162571428Y-102634819D02*
X162666666Y-102587200D01*
X162666666Y-102587200D02*
X162714285Y-102539580D01*
X162714285Y-102539580D02*
X162761904Y-102444342D01*
X162761904Y-102444342D02*
X162761904Y-102206247D01*
X162761904Y-102206247D02*
X162714285Y-102111009D01*
X162714285Y-102111009D02*
X162666666Y-102063390D01*
X162666666Y-102063390D02*
X162571428Y-102015771D01*
X162571428Y-102015771D02*
X162380952Y-102015771D01*
X162380952Y-102015771D02*
X162285714Y-102063390D01*
X162285714Y-102063390D02*
X162238095Y-102111009D01*
X162238095Y-102111009D02*
X162190476Y-102206247D01*
X106904761Y-101150057D02*
X106809523Y-101102438D01*
X106809523Y-101102438D02*
X106714285Y-101007200D01*
X106714285Y-101007200D02*
X106571428Y-100864342D01*
X106571428Y-100864342D02*
X106476190Y-100816723D01*
X106476190Y-100816723D02*
X106380952Y-100816723D01*
X106428571Y-101054819D02*
X106333333Y-101007200D01*
X106333333Y-101007200D02*
X106238095Y-100911961D01*
X106238095Y-100911961D02*
X106190476Y-100721485D01*
X106190476Y-100721485D02*
X106190476Y-100388152D01*
X106190476Y-100388152D02*
X106238095Y-100197676D01*
X106238095Y-100197676D02*
X106333333Y-100102438D01*
X106333333Y-100102438D02*
X106428571Y-100054819D01*
X106428571Y-100054819D02*
X106619047Y-100054819D01*
X106619047Y-100054819D02*
X106714285Y-100102438D01*
X106714285Y-100102438D02*
X106809523Y-100197676D01*
X106809523Y-100197676D02*
X106857142Y-100388152D01*
X106857142Y-100388152D02*
X106857142Y-100721485D01*
X106857142Y-100721485D02*
X106809523Y-100911961D01*
X106809523Y-100911961D02*
X106714285Y-101007200D01*
X106714285Y-101007200D02*
X106619047Y-101054819D01*
X106619047Y-101054819D02*
X106428571Y-101054819D01*
X107190476Y-100054819D02*
X107809523Y-100054819D01*
X107809523Y-100054819D02*
X107476190Y-100435771D01*
X107476190Y-100435771D02*
X107619047Y-100435771D01*
X107619047Y-100435771D02*
X107714285Y-100483390D01*
X107714285Y-100483390D02*
X107761904Y-100531009D01*
X107761904Y-100531009D02*
X107809523Y-100626247D01*
X107809523Y-100626247D02*
X107809523Y-100864342D01*
X107809523Y-100864342D02*
X107761904Y-100959580D01*
X107761904Y-100959580D02*
X107714285Y-101007200D01*
X107714285Y-101007200D02*
X107619047Y-101054819D01*
X107619047Y-101054819D02*
X107333333Y-101054819D01*
X107333333Y-101054819D02*
X107238095Y-101007200D01*
X107238095Y-101007200D02*
X107190476Y-100959580D01*
X141988095Y-116404819D02*
X141988095Y-117214342D01*
X141988095Y-117214342D02*
X142035714Y-117309580D01*
X142035714Y-117309580D02*
X142083333Y-117357200D01*
X142083333Y-117357200D02*
X142178571Y-117404819D01*
X142178571Y-117404819D02*
X142369047Y-117404819D01*
X142369047Y-117404819D02*
X142464285Y-117357200D01*
X142464285Y-117357200D02*
X142511904Y-117309580D01*
X142511904Y-117309580D02*
X142559523Y-117214342D01*
X142559523Y-117214342D02*
X142559523Y-116404819D01*
X142940476Y-116404819D02*
X143559523Y-116404819D01*
X143559523Y-116404819D02*
X143226190Y-116785771D01*
X143226190Y-116785771D02*
X143369047Y-116785771D01*
X143369047Y-116785771D02*
X143464285Y-116833390D01*
X143464285Y-116833390D02*
X143511904Y-116881009D01*
X143511904Y-116881009D02*
X143559523Y-116976247D01*
X143559523Y-116976247D02*
X143559523Y-117214342D01*
X143559523Y-117214342D02*
X143511904Y-117309580D01*
X143511904Y-117309580D02*
X143464285Y-117357200D01*
X143464285Y-117357200D02*
X143369047Y-117404819D01*
X143369047Y-117404819D02*
X143083333Y-117404819D01*
X143083333Y-117404819D02*
X142988095Y-117357200D01*
X142988095Y-117357200D02*
X142940476Y-117309580D01*
X94153333Y-111914819D02*
X93820000Y-111438628D01*
X93581905Y-111914819D02*
X93581905Y-110914819D01*
X93581905Y-110914819D02*
X93962857Y-110914819D01*
X93962857Y-110914819D02*
X94058095Y-110962438D01*
X94058095Y-110962438D02*
X94105714Y-111010057D01*
X94105714Y-111010057D02*
X94153333Y-111105295D01*
X94153333Y-111105295D02*
X94153333Y-111248152D01*
X94153333Y-111248152D02*
X94105714Y-111343390D01*
X94105714Y-111343390D02*
X94058095Y-111391009D01*
X94058095Y-111391009D02*
X93962857Y-111438628D01*
X93962857Y-111438628D02*
X93581905Y-111438628D01*
X94486667Y-110914819D02*
X95153333Y-110914819D01*
X95153333Y-110914819D02*
X94724762Y-111914819D01*
X114962142Y-93429580D02*
X114914523Y-93477200D01*
X114914523Y-93477200D02*
X114771666Y-93524819D01*
X114771666Y-93524819D02*
X114676428Y-93524819D01*
X114676428Y-93524819D02*
X114533571Y-93477200D01*
X114533571Y-93477200D02*
X114438333Y-93381961D01*
X114438333Y-93381961D02*
X114390714Y-93286723D01*
X114390714Y-93286723D02*
X114343095Y-93096247D01*
X114343095Y-93096247D02*
X114343095Y-92953390D01*
X114343095Y-92953390D02*
X114390714Y-92762914D01*
X114390714Y-92762914D02*
X114438333Y-92667676D01*
X114438333Y-92667676D02*
X114533571Y-92572438D01*
X114533571Y-92572438D02*
X114676428Y-92524819D01*
X114676428Y-92524819D02*
X114771666Y-92524819D01*
X114771666Y-92524819D02*
X114914523Y-92572438D01*
X114914523Y-92572438D02*
X114962142Y-92620057D01*
X115914523Y-93524819D02*
X115343095Y-93524819D01*
X115628809Y-93524819D02*
X115628809Y-92524819D01*
X115628809Y-92524819D02*
X115533571Y-92667676D01*
X115533571Y-92667676D02*
X115438333Y-92762914D01*
X115438333Y-92762914D02*
X115343095Y-92810533D01*
X116533571Y-92524819D02*
X116628809Y-92524819D01*
X116628809Y-92524819D02*
X116724047Y-92572438D01*
X116724047Y-92572438D02*
X116771666Y-92620057D01*
X116771666Y-92620057D02*
X116819285Y-92715295D01*
X116819285Y-92715295D02*
X116866904Y-92905771D01*
X116866904Y-92905771D02*
X116866904Y-93143866D01*
X116866904Y-93143866D02*
X116819285Y-93334342D01*
X116819285Y-93334342D02*
X116771666Y-93429580D01*
X116771666Y-93429580D02*
X116724047Y-93477200D01*
X116724047Y-93477200D02*
X116628809Y-93524819D01*
X116628809Y-93524819D02*
X116533571Y-93524819D01*
X116533571Y-93524819D02*
X116438333Y-93477200D01*
X116438333Y-93477200D02*
X116390714Y-93429580D01*
X116390714Y-93429580D02*
X116343095Y-93334342D01*
X116343095Y-93334342D02*
X116295476Y-93143866D01*
X116295476Y-93143866D02*
X116295476Y-92905771D01*
X116295476Y-92905771D02*
X116343095Y-92715295D01*
X116343095Y-92715295D02*
X116390714Y-92620057D01*
X116390714Y-92620057D02*
X116438333Y-92572438D01*
X116438333Y-92572438D02*
X116533571Y-92524819D01*
X105166666Y-111454819D02*
X105166666Y-112169104D01*
X105166666Y-112169104D02*
X105119047Y-112311961D01*
X105119047Y-112311961D02*
X105023809Y-112407200D01*
X105023809Y-112407200D02*
X104880952Y-112454819D01*
X104880952Y-112454819D02*
X104785714Y-112454819D01*
X106166666Y-112454819D02*
X105595238Y-112454819D01*
X105880952Y-112454819D02*
X105880952Y-111454819D01*
X105880952Y-111454819D02*
X105785714Y-111597676D01*
X105785714Y-111597676D02*
X105690476Y-111692914D01*
X105690476Y-111692914D02*
X105595238Y-111740533D01*
X110738095Y-103306819D02*
X111309523Y-103306819D01*
X111023809Y-104306819D02*
X111023809Y-103306819D01*
X111642857Y-104306819D02*
X111642857Y-103306819D01*
X111642857Y-103306819D02*
X112023809Y-103306819D01*
X112023809Y-103306819D02*
X112119047Y-103354438D01*
X112119047Y-103354438D02*
X112166666Y-103402057D01*
X112166666Y-103402057D02*
X112214285Y-103497295D01*
X112214285Y-103497295D02*
X112214285Y-103640152D01*
X112214285Y-103640152D02*
X112166666Y-103735390D01*
X112166666Y-103735390D02*
X112119047Y-103783009D01*
X112119047Y-103783009D02*
X112023809Y-103830628D01*
X112023809Y-103830628D02*
X111642857Y-103830628D01*
X113071428Y-103640152D02*
X113071428Y-104306819D01*
X112833333Y-103259200D02*
X112595238Y-103973485D01*
X112595238Y-103973485D02*
X113214285Y-103973485D01*
X94153333Y-99764819D02*
X93820000Y-99288628D01*
X93581905Y-99764819D02*
X93581905Y-98764819D01*
X93581905Y-98764819D02*
X93962857Y-98764819D01*
X93962857Y-98764819D02*
X94058095Y-98812438D01*
X94058095Y-98812438D02*
X94105714Y-98860057D01*
X94105714Y-98860057D02*
X94153333Y-98955295D01*
X94153333Y-98955295D02*
X94153333Y-99098152D01*
X94153333Y-99098152D02*
X94105714Y-99193390D01*
X94105714Y-99193390D02*
X94058095Y-99241009D01*
X94058095Y-99241009D02*
X93962857Y-99288628D01*
X93962857Y-99288628D02*
X93581905Y-99288628D01*
X95010476Y-99098152D02*
X95010476Y-99764819D01*
X94772381Y-98717200D02*
X94534286Y-99431485D01*
X94534286Y-99431485D02*
X95153333Y-99431485D01*
X120967261Y-89650057D02*
X120872023Y-89602438D01*
X120872023Y-89602438D02*
X120776785Y-89507200D01*
X120776785Y-89507200D02*
X120633928Y-89364342D01*
X120633928Y-89364342D02*
X120538690Y-89316723D01*
X120538690Y-89316723D02*
X120443452Y-89316723D01*
X120491071Y-89554819D02*
X120395833Y-89507200D01*
X120395833Y-89507200D02*
X120300595Y-89411961D01*
X120300595Y-89411961D02*
X120252976Y-89221485D01*
X120252976Y-89221485D02*
X120252976Y-88888152D01*
X120252976Y-88888152D02*
X120300595Y-88697676D01*
X120300595Y-88697676D02*
X120395833Y-88602438D01*
X120395833Y-88602438D02*
X120491071Y-88554819D01*
X120491071Y-88554819D02*
X120681547Y-88554819D01*
X120681547Y-88554819D02*
X120776785Y-88602438D01*
X120776785Y-88602438D02*
X120872023Y-88697676D01*
X120872023Y-88697676D02*
X120919642Y-88888152D01*
X120919642Y-88888152D02*
X120919642Y-89221485D01*
X120919642Y-89221485D02*
X120872023Y-89411961D01*
X120872023Y-89411961D02*
X120776785Y-89507200D01*
X120776785Y-89507200D02*
X120681547Y-89554819D01*
X120681547Y-89554819D02*
X120491071Y-89554819D01*
X121872023Y-89554819D02*
X121300595Y-89554819D01*
X121586309Y-89554819D02*
X121586309Y-88554819D01*
X121586309Y-88554819D02*
X121491071Y-88697676D01*
X121491071Y-88697676D02*
X121395833Y-88792914D01*
X121395833Y-88792914D02*
X121300595Y-88840533D01*
X142598333Y-104429580D02*
X142550714Y-104477200D01*
X142550714Y-104477200D02*
X142407857Y-104524819D01*
X142407857Y-104524819D02*
X142312619Y-104524819D01*
X142312619Y-104524819D02*
X142169762Y-104477200D01*
X142169762Y-104477200D02*
X142074524Y-104381961D01*
X142074524Y-104381961D02*
X142026905Y-104286723D01*
X142026905Y-104286723D02*
X141979286Y-104096247D01*
X141979286Y-104096247D02*
X141979286Y-103953390D01*
X141979286Y-103953390D02*
X142026905Y-103762914D01*
X142026905Y-103762914D02*
X142074524Y-103667676D01*
X142074524Y-103667676D02*
X142169762Y-103572438D01*
X142169762Y-103572438D02*
X142312619Y-103524819D01*
X142312619Y-103524819D02*
X142407857Y-103524819D01*
X142407857Y-103524819D02*
X142550714Y-103572438D01*
X142550714Y-103572438D02*
X142598333Y-103620057D01*
X142931667Y-103524819D02*
X143598333Y-103524819D01*
X143598333Y-103524819D02*
X143169762Y-104524819D01*
X134303095Y-98429819D02*
X134303095Y-99239342D01*
X134303095Y-99239342D02*
X134350714Y-99334580D01*
X134350714Y-99334580D02*
X134398333Y-99382200D01*
X134398333Y-99382200D02*
X134493571Y-99429819D01*
X134493571Y-99429819D02*
X134684047Y-99429819D01*
X134684047Y-99429819D02*
X134779285Y-99382200D01*
X134779285Y-99382200D02*
X134826904Y-99334580D01*
X134826904Y-99334580D02*
X134874523Y-99239342D01*
X134874523Y-99239342D02*
X134874523Y-98429819D01*
X135826904Y-98429819D02*
X135350714Y-98429819D01*
X135350714Y-98429819D02*
X135303095Y-98906009D01*
X135303095Y-98906009D02*
X135350714Y-98858390D01*
X135350714Y-98858390D02*
X135445952Y-98810771D01*
X135445952Y-98810771D02*
X135684047Y-98810771D01*
X135684047Y-98810771D02*
X135779285Y-98858390D01*
X135779285Y-98858390D02*
X135826904Y-98906009D01*
X135826904Y-98906009D02*
X135874523Y-99001247D01*
X135874523Y-99001247D02*
X135874523Y-99239342D01*
X135874523Y-99239342D02*
X135826904Y-99334580D01*
X135826904Y-99334580D02*
X135779285Y-99382200D01*
X135779285Y-99382200D02*
X135684047Y-99429819D01*
X135684047Y-99429819D02*
X135445952Y-99429819D01*
X135445952Y-99429819D02*
X135350714Y-99382200D01*
X135350714Y-99382200D02*
X135303095Y-99334580D01*
X151238095Y-113306819D02*
X151809523Y-113306819D01*
X151523809Y-114306819D02*
X151523809Y-113306819D01*
X152142857Y-114306819D02*
X152142857Y-113306819D01*
X152142857Y-113306819D02*
X152523809Y-113306819D01*
X152523809Y-113306819D02*
X152619047Y-113354438D01*
X152619047Y-113354438D02*
X152666666Y-113402057D01*
X152666666Y-113402057D02*
X152714285Y-113497295D01*
X152714285Y-113497295D02*
X152714285Y-113640152D01*
X152714285Y-113640152D02*
X152666666Y-113735390D01*
X152666666Y-113735390D02*
X152619047Y-113783009D01*
X152619047Y-113783009D02*
X152523809Y-113830628D01*
X152523809Y-113830628D02*
X152142857Y-113830628D01*
X153190476Y-114306819D02*
X153380952Y-114306819D01*
X153380952Y-114306819D02*
X153476190Y-114259200D01*
X153476190Y-114259200D02*
X153523809Y-114211580D01*
X153523809Y-114211580D02*
X153619047Y-114068723D01*
X153619047Y-114068723D02*
X153666666Y-113878247D01*
X153666666Y-113878247D02*
X153666666Y-113497295D01*
X153666666Y-113497295D02*
X153619047Y-113402057D01*
X153619047Y-113402057D02*
X153571428Y-113354438D01*
X153571428Y-113354438D02*
X153476190Y-113306819D01*
X153476190Y-113306819D02*
X153285714Y-113306819D01*
X153285714Y-113306819D02*
X153190476Y-113354438D01*
X153190476Y-113354438D02*
X153142857Y-113402057D01*
X153142857Y-113402057D02*
X153095238Y-113497295D01*
X153095238Y-113497295D02*
X153095238Y-113735390D01*
X153095238Y-113735390D02*
X153142857Y-113830628D01*
X153142857Y-113830628D02*
X153190476Y-113878247D01*
X153190476Y-113878247D02*
X153285714Y-113925866D01*
X153285714Y-113925866D02*
X153476190Y-113925866D01*
X153476190Y-113925866D02*
X153571428Y-113878247D01*
X153571428Y-113878247D02*
X153619047Y-113830628D01*
X153619047Y-113830628D02*
X153666666Y-113735390D01*
X134238095Y-87306819D02*
X134809523Y-87306819D01*
X134523809Y-88306819D02*
X134523809Y-87306819D01*
X135142857Y-88306819D02*
X135142857Y-87306819D01*
X135142857Y-87306819D02*
X135523809Y-87306819D01*
X135523809Y-87306819D02*
X135619047Y-87354438D01*
X135619047Y-87354438D02*
X135666666Y-87402057D01*
X135666666Y-87402057D02*
X135714285Y-87497295D01*
X135714285Y-87497295D02*
X135714285Y-87640152D01*
X135714285Y-87640152D02*
X135666666Y-87735390D01*
X135666666Y-87735390D02*
X135619047Y-87783009D01*
X135619047Y-87783009D02*
X135523809Y-87830628D01*
X135523809Y-87830628D02*
X135142857Y-87830628D01*
X136095238Y-87402057D02*
X136142857Y-87354438D01*
X136142857Y-87354438D02*
X136238095Y-87306819D01*
X136238095Y-87306819D02*
X136476190Y-87306819D01*
X136476190Y-87306819D02*
X136571428Y-87354438D01*
X136571428Y-87354438D02*
X136619047Y-87402057D01*
X136619047Y-87402057D02*
X136666666Y-87497295D01*
X136666666Y-87497295D02*
X136666666Y-87592533D01*
X136666666Y-87592533D02*
X136619047Y-87735390D01*
X136619047Y-87735390D02*
X136047619Y-88306819D01*
X136047619Y-88306819D02*
X136666666Y-88306819D01*
X150761905Y-100806819D02*
X151333333Y-100806819D01*
X151047619Y-101806819D02*
X151047619Y-100806819D01*
X151666667Y-101806819D02*
X151666667Y-100806819D01*
X151666667Y-100806819D02*
X152047619Y-100806819D01*
X152047619Y-100806819D02*
X152142857Y-100854438D01*
X152142857Y-100854438D02*
X152190476Y-100902057D01*
X152190476Y-100902057D02*
X152238095Y-100997295D01*
X152238095Y-100997295D02*
X152238095Y-101140152D01*
X152238095Y-101140152D02*
X152190476Y-101235390D01*
X152190476Y-101235390D02*
X152142857Y-101283009D01*
X152142857Y-101283009D02*
X152047619Y-101330628D01*
X152047619Y-101330628D02*
X151666667Y-101330628D01*
X153190476Y-101806819D02*
X152619048Y-101806819D01*
X152904762Y-101806819D02*
X152904762Y-100806819D01*
X152904762Y-100806819D02*
X152809524Y-100949676D01*
X152809524Y-100949676D02*
X152714286Y-101044914D01*
X152714286Y-101044914D02*
X152619048Y-101092533D01*
X153809524Y-100806819D02*
X153904762Y-100806819D01*
X153904762Y-100806819D02*
X154000000Y-100854438D01*
X154000000Y-100854438D02*
X154047619Y-100902057D01*
X154047619Y-100902057D02*
X154095238Y-100997295D01*
X154095238Y-100997295D02*
X154142857Y-101187771D01*
X154142857Y-101187771D02*
X154142857Y-101425866D01*
X154142857Y-101425866D02*
X154095238Y-101616342D01*
X154095238Y-101616342D02*
X154047619Y-101711580D01*
X154047619Y-101711580D02*
X154000000Y-101759200D01*
X154000000Y-101759200D02*
X153904762Y-101806819D01*
X153904762Y-101806819D02*
X153809524Y-101806819D01*
X153809524Y-101806819D02*
X153714286Y-101759200D01*
X153714286Y-101759200D02*
X153666667Y-101711580D01*
X153666667Y-101711580D02*
X153619048Y-101616342D01*
X153619048Y-101616342D02*
X153571429Y-101425866D01*
X153571429Y-101425866D02*
X153571429Y-101187771D01*
X153571429Y-101187771D02*
X153619048Y-100997295D01*
X153619048Y-100997295D02*
X153666667Y-100902057D01*
X153666667Y-100902057D02*
X153714286Y-100854438D01*
X153714286Y-100854438D02*
X153809524Y-100806819D01*
X93266666Y-78754819D02*
X93266666Y-79469104D01*
X93266666Y-79469104D02*
X93219047Y-79611961D01*
X93219047Y-79611961D02*
X93123809Y-79707200D01*
X93123809Y-79707200D02*
X92980952Y-79754819D01*
X92980952Y-79754819D02*
X92885714Y-79754819D01*
X93647619Y-78754819D02*
X94266666Y-78754819D01*
X94266666Y-78754819D02*
X93933333Y-79135771D01*
X93933333Y-79135771D02*
X94076190Y-79135771D01*
X94076190Y-79135771D02*
X94171428Y-79183390D01*
X94171428Y-79183390D02*
X94219047Y-79231009D01*
X94219047Y-79231009D02*
X94266666Y-79326247D01*
X94266666Y-79326247D02*
X94266666Y-79564342D01*
X94266666Y-79564342D02*
X94219047Y-79659580D01*
X94219047Y-79659580D02*
X94171428Y-79707200D01*
X94171428Y-79707200D02*
X94076190Y-79754819D01*
X94076190Y-79754819D02*
X93790476Y-79754819D01*
X93790476Y-79754819D02*
X93695238Y-79707200D01*
X93695238Y-79707200D02*
X93647619Y-79659580D01*
X146333333Y-97919580D02*
X146285714Y-97967200D01*
X146285714Y-97967200D02*
X146142857Y-98014819D01*
X146142857Y-98014819D02*
X146047619Y-98014819D01*
X146047619Y-98014819D02*
X145904762Y-97967200D01*
X145904762Y-97967200D02*
X145809524Y-97871961D01*
X145809524Y-97871961D02*
X145761905Y-97776723D01*
X145761905Y-97776723D02*
X145714286Y-97586247D01*
X145714286Y-97586247D02*
X145714286Y-97443390D01*
X145714286Y-97443390D02*
X145761905Y-97252914D01*
X145761905Y-97252914D02*
X145809524Y-97157676D01*
X145809524Y-97157676D02*
X145904762Y-97062438D01*
X145904762Y-97062438D02*
X146047619Y-97014819D01*
X146047619Y-97014819D02*
X146142857Y-97014819D01*
X146142857Y-97014819D02*
X146285714Y-97062438D01*
X146285714Y-97062438D02*
X146333333Y-97110057D01*
X147285714Y-98014819D02*
X146714286Y-98014819D01*
X147000000Y-98014819D02*
X147000000Y-97014819D01*
X147000000Y-97014819D02*
X146904762Y-97157676D01*
X146904762Y-97157676D02*
X146809524Y-97252914D01*
X146809524Y-97252914D02*
X146714286Y-97300533D01*
X161047142Y-81484819D02*
X160713809Y-81008628D01*
X160475714Y-81484819D02*
X160475714Y-80484819D01*
X160475714Y-80484819D02*
X160856666Y-80484819D01*
X160856666Y-80484819D02*
X160951904Y-80532438D01*
X160951904Y-80532438D02*
X160999523Y-80580057D01*
X160999523Y-80580057D02*
X161047142Y-80675295D01*
X161047142Y-80675295D02*
X161047142Y-80818152D01*
X161047142Y-80818152D02*
X160999523Y-80913390D01*
X160999523Y-80913390D02*
X160951904Y-80961009D01*
X160951904Y-80961009D02*
X160856666Y-81008628D01*
X160856666Y-81008628D02*
X160475714Y-81008628D01*
X161999523Y-81484819D02*
X161428095Y-81484819D01*
X161713809Y-81484819D02*
X161713809Y-80484819D01*
X161713809Y-80484819D02*
X161618571Y-80627676D01*
X161618571Y-80627676D02*
X161523333Y-80722914D01*
X161523333Y-80722914D02*
X161428095Y-80770533D01*
X162951904Y-81484819D02*
X162380476Y-81484819D01*
X162666190Y-81484819D02*
X162666190Y-80484819D01*
X162666190Y-80484819D02*
X162570952Y-80627676D01*
X162570952Y-80627676D02*
X162475714Y-80722914D01*
X162475714Y-80722914D02*
X162380476Y-80770533D01*
X103761905Y-93554819D02*
X103761905Y-94364342D01*
X103761905Y-94364342D02*
X103809524Y-94459580D01*
X103809524Y-94459580D02*
X103857143Y-94507200D01*
X103857143Y-94507200D02*
X103952381Y-94554819D01*
X103952381Y-94554819D02*
X104142857Y-94554819D01*
X104142857Y-94554819D02*
X104238095Y-94507200D01*
X104238095Y-94507200D02*
X104285714Y-94459580D01*
X104285714Y-94459580D02*
X104333333Y-94364342D01*
X104333333Y-94364342D02*
X104333333Y-93554819D01*
X105333333Y-94554819D02*
X104761905Y-94554819D01*
X105047619Y-94554819D02*
X105047619Y-93554819D01*
X105047619Y-93554819D02*
X104952381Y-93697676D01*
X104952381Y-93697676D02*
X104857143Y-93792914D01*
X104857143Y-93792914D02*
X104761905Y-93840533D01*
X105952381Y-93554819D02*
X106047619Y-93554819D01*
X106047619Y-93554819D02*
X106142857Y-93602438D01*
X106142857Y-93602438D02*
X106190476Y-93650057D01*
X106190476Y-93650057D02*
X106238095Y-93745295D01*
X106238095Y-93745295D02*
X106285714Y-93935771D01*
X106285714Y-93935771D02*
X106285714Y-94173866D01*
X106285714Y-94173866D02*
X106238095Y-94364342D01*
X106238095Y-94364342D02*
X106190476Y-94459580D01*
X106190476Y-94459580D02*
X106142857Y-94507200D01*
X106142857Y-94507200D02*
X106047619Y-94554819D01*
X106047619Y-94554819D02*
X105952381Y-94554819D01*
X105952381Y-94554819D02*
X105857143Y-94507200D01*
X105857143Y-94507200D02*
X105809524Y-94459580D01*
X105809524Y-94459580D02*
X105761905Y-94364342D01*
X105761905Y-94364342D02*
X105714286Y-94173866D01*
X105714286Y-94173866D02*
X105714286Y-93935771D01*
X105714286Y-93935771D02*
X105761905Y-93745295D01*
X105761905Y-93745295D02*
X105809524Y-93650057D01*
X105809524Y-93650057D02*
X105857143Y-93602438D01*
X105857143Y-93602438D02*
X105952381Y-93554819D01*
D11*
%TO.C,R3*%
X90920000Y-96930000D02*
X97460000Y-96930000D01*
X90920000Y-97260000D02*
X90920000Y-96930000D01*
X90920000Y-99340000D02*
X90920000Y-99670000D01*
X90920000Y-99670000D02*
X97460000Y-99670000D01*
X97460000Y-96930000D02*
X97460000Y-97260000D01*
X97460000Y-99670000D02*
X97460000Y-99340000D01*
%TO.C,TP3*%
X141950000Y-99500000D02*
G75*
G02*
X139050000Y-99500000I-1450000J0D01*
G01*
X139050000Y-99500000D02*
G75*
G02*
X141950000Y-99500000I1450000J0D01*
G01*
%TO.C,U2*%
X115362500Y-110265000D02*
X113162500Y-110265000D01*
X115362500Y-110265000D02*
X117562500Y-110265000D01*
X115362500Y-115785000D02*
X113162500Y-115785000D01*
X115362500Y-115785000D02*
X117562500Y-115785000D01*
X111452500Y-110750000D02*
X111122500Y-110990000D01*
X111122500Y-110510000D01*
X111452500Y-110750000D01*
G36*
X111452500Y-110750000D02*
G01*
X111122500Y-110990000D01*
X111122500Y-110510000D01*
X111452500Y-110750000D01*
G37*
%TO.C,R14*%
X158230000Y-95080000D02*
X164770000Y-95080000D01*
X158230000Y-95410000D02*
X158230000Y-95080000D01*
X158230000Y-97490000D02*
X158230000Y-97820000D01*
X158230000Y-97820000D02*
X164770000Y-97820000D01*
X164770000Y-95080000D02*
X164770000Y-95410000D01*
X164770000Y-97820000D02*
X164770000Y-97490000D01*
%TO.C,U7*%
X130000000Y-91940000D02*
X129200000Y-91940000D01*
X130000000Y-91940000D02*
X130800000Y-91940000D01*
X130000000Y-95060000D02*
X129200000Y-95060000D01*
X130000000Y-95060000D02*
X130800000Y-95060000D01*
X128700000Y-91990000D02*
X128460000Y-91660000D01*
X128940000Y-91660000D01*
X128700000Y-91990000D01*
G36*
X128700000Y-91990000D02*
G01*
X128460000Y-91660000D01*
X128940000Y-91660000D01*
X128700000Y-91990000D01*
G37*
%TO.C,R2*%
X90730000Y-93130000D02*
X97270000Y-93130000D01*
X90730000Y-93460000D02*
X90730000Y-93130000D01*
X90730000Y-95540000D02*
X90730000Y-95870000D01*
X90730000Y-95870000D02*
X97270000Y-95870000D01*
X97270000Y-93130000D02*
X97270000Y-93460000D01*
X97270000Y-95870000D02*
X97270000Y-95540000D01*
%TO.C,U7*%
X140990000Y-84860000D02*
X142990000Y-84860000D01*
X141000000Y-87140000D02*
X143000000Y-87140000D01*
X140630000Y-84930000D02*
X140350000Y-84930000D01*
X140630000Y-84650000D01*
X140630000Y-84930000D01*
G36*
X140630000Y-84930000D02*
G01*
X140350000Y-84930000D01*
X140630000Y-84650000D01*
X140630000Y-84930000D01*
G37*
%TO.C,U6*%
X142637500Y-79390000D02*
X141837500Y-79390000D01*
X142637500Y-79390000D02*
X143437500Y-79390000D01*
X142637500Y-82510000D02*
X141837500Y-82510000D01*
X142637500Y-82510000D02*
X143437500Y-82510000D01*
X141337500Y-79440000D02*
X141097500Y-79110000D01*
X141577500Y-79110000D01*
X141337500Y-79440000D01*
G36*
X141337500Y-79440000D02*
G01*
X141097500Y-79110000D01*
X141577500Y-79110000D01*
X141337500Y-79440000D01*
G37*
%TO.C,R1*%
X146634420Y-104990000D02*
X146915580Y-104990000D01*
X146634420Y-106010000D02*
X146915580Y-106010000D01*
%TO.C,U8*%
X106362500Y-80440000D02*
X104412500Y-80440000D01*
X106362500Y-80440000D02*
X108312500Y-80440000D01*
X106362500Y-85560000D02*
X104412500Y-85560000D01*
X106362500Y-85560000D02*
X108312500Y-85560000D01*
X103650000Y-80440000D02*
X103410000Y-80110000D01*
X103890000Y-80110000D01*
X103650000Y-80440000D01*
G36*
X103650000Y-80440000D02*
G01*
X103410000Y-80110000D01*
X103890000Y-80110000D01*
X103650000Y-80440000D01*
G37*
%TO.C,U5*%
X112160000Y-97950000D02*
X112160000Y-97440000D01*
X112160000Y-101420000D02*
X112160000Y-100670000D01*
X112160000Y-101420000D02*
X112510000Y-101420000D01*
X112510000Y-97200000D02*
X112460000Y-97200000D01*
X118030000Y-97200000D02*
X118380000Y-97200000D01*
X118030000Y-101420000D02*
X118380000Y-101420000D01*
X118380000Y-97800000D02*
X118380000Y-97200000D01*
X118380000Y-101420000D02*
X118380000Y-100820000D01*
X112160000Y-97200000D02*
X111920000Y-96870000D01*
X112400000Y-96870000D01*
X112160000Y-97200000D01*
G36*
X112160000Y-97200000D02*
G01*
X111920000Y-96870000D01*
X112400000Y-96870000D01*
X112160000Y-97200000D01*
G37*
%TO.C,R6*%
X90920000Y-109080000D02*
X97460000Y-109080000D01*
X90920000Y-109410000D02*
X90920000Y-109080000D01*
X90920000Y-111490000D02*
X90920000Y-111820000D01*
X90920000Y-111820000D02*
X97460000Y-111820000D01*
X97460000Y-109080000D02*
X97460000Y-109410000D01*
X97460000Y-111820000D02*
X97460000Y-111490000D01*
%TO.C,SW1*%
X115350000Y-104640000D02*
X125570000Y-104640000D01*
X125570000Y-107360000D01*
X115350000Y-107360000D01*
X115350000Y-104640000D01*
%TO.C,C9*%
X152634420Y-83990000D02*
X152915580Y-83990000D01*
X152634420Y-85010000D02*
X152915580Y-85010000D01*
%TO.C,R17*%
X158230000Y-107230000D02*
X164770000Y-107230000D01*
X158230000Y-107560000D02*
X158230000Y-107230000D01*
X158230000Y-109640000D02*
X158230000Y-109970000D01*
X158230000Y-109970000D02*
X164770000Y-109970000D01*
X164770000Y-107230000D02*
X164770000Y-107560000D01*
X164770000Y-109970000D02*
X164770000Y-109640000D01*
%TO.C,U9*%
X123362500Y-97440000D02*
X122562500Y-97440000D01*
X123362500Y-97440000D02*
X124162500Y-97440000D01*
X123362500Y-100560000D02*
X122562500Y-100560000D01*
X123362500Y-100560000D02*
X124162500Y-100560000D01*
X122062500Y-97490000D02*
X121822500Y-97160000D01*
X122302500Y-97160000D01*
X122062500Y-97490000D01*
G36*
X122062500Y-97490000D02*
G01*
X121822500Y-97160000D01*
X122302500Y-97160000D01*
X122062500Y-97490000D01*
G37*
%TO.C,R5*%
X90920000Y-105030000D02*
X97460000Y-105030000D01*
X90920000Y-105360000D02*
X90920000Y-105030000D01*
X90920000Y-107440000D02*
X90920000Y-107770000D01*
X90920000Y-107770000D02*
X97460000Y-107770000D01*
X97460000Y-105030000D02*
X97460000Y-105360000D01*
X97460000Y-107770000D02*
X97460000Y-107440000D01*
%TO.C,TP7*%
X109450000Y-110000000D02*
G75*
G02*
X106550000Y-110000000I-1450000J0D01*
G01*
X106550000Y-110000000D02*
G75*
G02*
X109450000Y-110000000I1450000J0D01*
G01*
%TO.C,TP5*%
X150950000Y-121000000D02*
G75*
G02*
X148050000Y-121000000I-1450000J0D01*
G01*
X148050000Y-121000000D02*
G75*
G02*
X150950000Y-121000000I1450000J0D01*
G01*
%TO.C,R13*%
X158230000Y-91030000D02*
X164770000Y-91030000D01*
X158230000Y-91360000D02*
X158230000Y-91030000D01*
X158230000Y-93440000D02*
X158230000Y-93770000D01*
X158230000Y-93770000D02*
X164770000Y-93770000D01*
X164770000Y-91030000D02*
X164770000Y-91360000D01*
X164770000Y-93770000D02*
X164770000Y-93440000D01*
%TO.C,C2*%
X114971920Y-112515000D02*
X115253080Y-112515000D01*
X114971920Y-113535000D02*
X115253080Y-113535000D01*
%TO.C,R10*%
X135960000Y-95700000D02*
X139160000Y-95700000D01*
X137840000Y-92300000D02*
X141040000Y-92300000D01*
%TO.C,U4*%
X146452500Y-92115000D02*
X146452500Y-91880000D01*
X146452500Y-94860000D02*
X146452500Y-94385000D01*
X146927500Y-91640000D02*
X146752500Y-91640000D01*
X146927500Y-94860000D02*
X146452500Y-94860000D01*
X149197500Y-91640000D02*
X149672500Y-91640000D01*
X149197500Y-94860000D02*
X149672500Y-94860000D01*
X149672500Y-91640000D02*
X149672500Y-92115000D01*
X149672500Y-94860000D02*
X149672500Y-94385000D01*
X146452500Y-91640000D02*
X146212500Y-91310000D01*
X146692500Y-91310000D01*
X146452500Y-91640000D01*
G36*
X146452500Y-91640000D02*
G01*
X146212500Y-91310000D01*
X146692500Y-91310000D01*
X146452500Y-91640000D01*
G37*
%TO.C,C6*%
X119561920Y-82490000D02*
X119843080Y-82490000D01*
X119561920Y-83510000D02*
X119843080Y-83510000D01*
%TO.C,U1*%
X142362500Y-86965000D02*
X141562500Y-86965000D01*
X142362500Y-86965000D02*
X143162500Y-86965000D01*
X142362500Y-90085000D02*
X141562500Y-90085000D01*
X142362500Y-90085000D02*
X143162500Y-90085000D01*
X141062500Y-87040000D02*
X140822500Y-86710000D01*
X141302500Y-86710000D01*
X141062500Y-87040000D01*
G36*
X141062500Y-87040000D02*
G01*
X140822500Y-86710000D01*
X141302500Y-86710000D01*
X141062500Y-87040000D01*
G37*
%TO.C,C5*%
X114971920Y-115025000D02*
X115253080Y-115025000D01*
X114971920Y-116045000D02*
X115253080Y-116045000D01*
%TO.C,R9*%
X129440000Y-84835000D02*
X132640000Y-84835000D01*
X131320000Y-81435000D02*
X134520000Y-81435000D01*
%TO.C,TP6*%
X151450000Y-111000000D02*
G75*
G02*
X148550000Y-111000000I-1450000J0D01*
G01*
X148550000Y-111000000D02*
G75*
G02*
X151450000Y-111000000I1450000J0D01*
G01*
%TO.C,J2*%
X111940000Y-119940000D02*
X144060000Y-119940000D01*
X111940000Y-122000000D02*
X111940000Y-119940000D01*
X111940000Y-124060000D02*
X111940000Y-123000000D01*
X113000000Y-124060000D02*
X111940000Y-124060000D01*
X114000000Y-122000000D02*
X111940000Y-122000000D01*
X114000000Y-124060000D02*
X114000000Y-122000000D01*
X114000000Y-124060000D02*
X144060000Y-124060000D01*
X144060000Y-124060000D02*
X144060000Y-119940000D01*
%TO.C,U6*%
X127700000Y-110640000D02*
X125750000Y-110640000D01*
X127700000Y-110640000D02*
X129650000Y-110640000D01*
X127700000Y-115760000D02*
X125750000Y-115760000D01*
X127700000Y-115760000D02*
X129650000Y-115760000D01*
X125000000Y-110735000D02*
X124760000Y-110405000D01*
X125240000Y-110405000D01*
X125000000Y-110735000D01*
G36*
X125000000Y-110735000D02*
G01*
X124760000Y-110405000D01*
X125240000Y-110405000D01*
X125000000Y-110735000D01*
G37*
%TO.C,R8*%
X90730000Y-117630000D02*
X97270000Y-117630000D01*
X90730000Y-117960000D02*
X90730000Y-117630000D01*
X90730000Y-120040000D02*
X90730000Y-120370000D01*
X90730000Y-120370000D02*
X97270000Y-120370000D01*
X97270000Y-117630000D02*
X97270000Y-117960000D01*
X97270000Y-120370000D02*
X97270000Y-120040000D01*
%TO.C,C8*%
X152359420Y-88770000D02*
X152640580Y-88770000D01*
X152359420Y-89790000D02*
X152640580Y-89790000D01*
%TO.C,R12*%
X158230000Y-86980000D02*
X164770000Y-86980000D01*
X158230000Y-87310000D02*
X158230000Y-86980000D01*
X158230000Y-89390000D02*
X158230000Y-89720000D01*
X158230000Y-89720000D02*
X164770000Y-89720000D01*
X164770000Y-86980000D02*
X164770000Y-87310000D01*
X164770000Y-89720000D02*
X164770000Y-89390000D01*
%TO.C,L1*%
X123549721Y-82490000D02*
X123875279Y-82490000D01*
X123549721Y-83510000D02*
X123875279Y-83510000D01*
%TO.C,TP8*%
X123450000Y-114000000D02*
G75*
G02*
X120550000Y-114000000I-1450000J0D01*
G01*
X120550000Y-114000000D02*
G75*
G02*
X123450000Y-114000000I1450000J0D01*
G01*
%TO.C,TP1*%
X128450000Y-87500000D02*
G75*
G02*
X125550000Y-87500000I-1450000J0D01*
G01*
X125550000Y-87500000D02*
G75*
G02*
X128450000Y-87500000I1450000J0D01*
G01*
%TO.C,R15*%
X158230000Y-99130000D02*
X164770000Y-99130000D01*
X158230000Y-99460000D02*
X158230000Y-99130000D01*
X158230000Y-101540000D02*
X158230000Y-101870000D01*
X158230000Y-101870000D02*
X164770000Y-101870000D01*
X164770000Y-99130000D02*
X164770000Y-99460000D01*
X164770000Y-101870000D02*
X164770000Y-101540000D01*
%TO.C,R16*%
X158230000Y-103180000D02*
X164770000Y-103180000D01*
X158230000Y-103510000D02*
X158230000Y-103180000D01*
X158230000Y-105590000D02*
X158230000Y-105920000D01*
X158230000Y-105920000D02*
X164770000Y-105920000D01*
X164770000Y-103180000D02*
X164770000Y-103510000D01*
X164770000Y-105920000D02*
X164770000Y-105590000D01*
%TO.C,Q3*%
X107000000Y-101440000D02*
X106350000Y-101440000D01*
X107000000Y-101440000D02*
X107650000Y-101440000D01*
X107000000Y-104560000D02*
X106350000Y-104560000D01*
X107000000Y-104560000D02*
X107650000Y-104560000D01*
X105837500Y-101490000D02*
X105597500Y-101160000D01*
X106077500Y-101160000D01*
X105837500Y-101490000D01*
G36*
X105837500Y-101490000D02*
G01*
X105597500Y-101160000D01*
X106077500Y-101160000D01*
X105837500Y-101490000D01*
G37*
%TO.C,U3*%
X142750000Y-110740000D02*
X140550000Y-110740000D01*
X142750000Y-110740000D02*
X144950000Y-110740000D01*
X142750000Y-116260000D02*
X140550000Y-116260000D01*
X142750000Y-116260000D02*
X144950000Y-116260000D01*
X146990000Y-116015000D02*
X146660000Y-115775000D01*
X146990000Y-115535000D01*
X146990000Y-116015000D01*
G36*
X146990000Y-116015000D02*
G01*
X146660000Y-115775000D01*
X146990000Y-115535000D01*
X146990000Y-116015000D01*
G37*
%TO.C,R7*%
X90920000Y-113130000D02*
X97460000Y-113130000D01*
X90920000Y-113460000D02*
X90920000Y-113130000D01*
X90920000Y-115540000D02*
X90920000Y-115870000D01*
X90920000Y-115870000D02*
X97460000Y-115870000D01*
X97460000Y-113130000D02*
X97460000Y-113460000D01*
X97460000Y-115870000D02*
X97460000Y-115540000D01*
%TO.C,C10*%
X109859420Y-93990000D02*
X110140580Y-93990000D01*
X109859420Y-95010000D02*
X110140580Y-95010000D01*
%TO.C,J1*%
X102440000Y-113090000D02*
X102440000Y-120910000D01*
X102440000Y-114690000D02*
X103360000Y-114690000D01*
X102440000Y-120910000D02*
X108560000Y-120910000D01*
X103200000Y-117050000D02*
X103200000Y-118650000D01*
X103200000Y-118650000D02*
X104200000Y-118650000D01*
X103360000Y-113090000D02*
X102440000Y-113090000D01*
X103360000Y-114690000D02*
X103360000Y-113090000D01*
X103640000Y-114690000D02*
X103360000Y-114690000D01*
X103640000Y-114690000D02*
X103640000Y-113475000D01*
X103700000Y-118650000D02*
X103700000Y-120910000D01*
X104200000Y-117050000D02*
X103200000Y-117050000D01*
X104200000Y-118650000D02*
X104200000Y-117050000D01*
X104200000Y-118650000D02*
X104200000Y-120910000D01*
X105000000Y-116550000D02*
X106000000Y-116550000D01*
X105000000Y-120910000D02*
X105000000Y-116550000D01*
X106000000Y-116550000D02*
X106000000Y-120910000D01*
X106800000Y-117050000D02*
X107800000Y-117050000D01*
X106800000Y-118650000D02*
X106800000Y-117050000D01*
X107640000Y-113090000D02*
X107640000Y-114690000D01*
X107640000Y-114690000D02*
X107360000Y-114690000D01*
X107800000Y-117050000D02*
X107800000Y-118650000D01*
X107800000Y-118650000D02*
X106800000Y-118650000D01*
X108560000Y-113090000D02*
X107640000Y-113090000D01*
X108560000Y-114690000D02*
X107640000Y-114690000D01*
X108560000Y-120910000D02*
X108560000Y-113090000D01*
%TO.C,TP4*%
X113450000Y-106000000D02*
G75*
G02*
X110550000Y-106000000I-1450000J0D01*
G01*
X110550000Y-106000000D02*
G75*
G02*
X113450000Y-106000000I1450000J0D01*
G01*
%TO.C,R4*%
X90920000Y-100980000D02*
X97460000Y-100980000D01*
X90920000Y-101310000D02*
X90920000Y-100980000D01*
X90920000Y-103390000D02*
X90920000Y-103720000D01*
X90920000Y-103720000D02*
X97460000Y-103720000D01*
X97460000Y-100980000D02*
X97460000Y-101310000D01*
X97460000Y-103720000D02*
X97460000Y-103390000D01*
%TO.C,Q1*%
X121062500Y-89940000D02*
X120412500Y-89940000D01*
X121062500Y-89940000D02*
X121712500Y-89940000D01*
X121062500Y-93060000D02*
X120412500Y-93060000D01*
X121062500Y-93060000D02*
X121712500Y-93060000D01*
X119900000Y-89990000D02*
X119660000Y-89660000D01*
X120140000Y-89660000D01*
X119900000Y-89990000D01*
G36*
X119900000Y-89990000D02*
G01*
X119660000Y-89660000D01*
X120140000Y-89660000D01*
X119900000Y-89990000D01*
G37*
%TO.C,C7*%
X142624420Y-104990000D02*
X142905580Y-104990000D01*
X142624420Y-106010000D02*
X142905580Y-106010000D01*
%TO.C,U5*%
X131755000Y-100025000D02*
X131755000Y-100295000D01*
X131755000Y-106925000D02*
X131755000Y-106655000D01*
X138175000Y-100025000D02*
X131755000Y-100025000D01*
X138175000Y-106925000D02*
X131755000Y-106925000D01*
X130025000Y-100335000D02*
X129685000Y-99865000D01*
X130365000Y-99865000D01*
X130025000Y-100335000D01*
G36*
X130025000Y-100335000D02*
G01*
X129685000Y-99865000D01*
X130365000Y-99865000D01*
X130025000Y-100335000D01*
G37*
%TO.C,TP9*%
X153950000Y-116000000D02*
G75*
G02*
X151050000Y-116000000I-1450000J0D01*
G01*
X151050000Y-116000000D02*
G75*
G02*
X153950000Y-116000000I1450000J0D01*
G01*
%TO.C,TP2*%
X136950000Y-90000000D02*
G75*
G02*
X134050000Y-90000000I-1450000J0D01*
G01*
X134050000Y-90000000D02*
G75*
G02*
X136950000Y-90000000I1450000J0D01*
G01*
%TO.C,TP10*%
X153950000Y-103500000D02*
G75*
G02*
X151050000Y-103500000I-1450000J0D01*
G01*
X151050000Y-103500000D02*
G75*
G02*
X153950000Y-103500000I1450000J0D01*
G01*
%TO.C,J3*%
X88900000Y-88350000D02*
X88900000Y-89300000D01*
X90600000Y-80000000D02*
X90850000Y-80350000D01*
X90850000Y-80350000D02*
X91100000Y-80000000D01*
X90950000Y-80580000D02*
X96250000Y-80580000D01*
X98300000Y-89300000D02*
X98300000Y-88350000D01*
%TO.C,C1*%
X146359420Y-98480000D02*
X146640580Y-98480000D01*
X146359420Y-99500000D02*
X146640580Y-99500000D01*
%TO.C,R11*%
X158420000Y-82030000D02*
X164960000Y-82030000D01*
X158420000Y-82360000D02*
X158420000Y-82030000D01*
X158420000Y-84440000D02*
X158420000Y-84770000D01*
X158420000Y-84770000D02*
X164960000Y-84770000D01*
X164960000Y-82030000D02*
X164960000Y-82360000D01*
X164960000Y-84770000D02*
X164960000Y-84440000D01*
%TO.C,U10*%
X105000000Y-94940000D02*
X104200000Y-94940000D01*
X105000000Y-94940000D02*
X105800000Y-94940000D01*
X105000000Y-98060000D02*
X104200000Y-98060000D01*
X105000000Y-98060000D02*
X105800000Y-98060000D01*
X103700000Y-94990000D02*
X103460000Y-94660000D01*
X103940000Y-94660000D01*
X103700000Y-94990000D01*
G36*
X103700000Y-94990000D02*
G01*
X103460000Y-94660000D01*
X103940000Y-94660000D01*
X103700000Y-94990000D01*
G37*
%TD*%
%LPC*%
D12*
%TO.C,U5*%
X114120000Y-97510000D02*
X114420000Y-97510000D01*
X114420000Y-97160000D01*
X114520000Y-97160000D01*
X114520000Y-97610000D01*
X114020000Y-97610000D01*
X114020000Y-97160000D01*
X114120000Y-97160000D01*
X114120000Y-97510000D01*
G36*
X114120000Y-97510000D02*
G01*
X114420000Y-97510000D01*
X114420000Y-97160000D01*
X114520000Y-97160000D01*
X114520000Y-97610000D01*
X114020000Y-97610000D01*
X114020000Y-97160000D01*
X114120000Y-97160000D01*
X114120000Y-97510000D01*
G37*
X114920000Y-97510000D02*
X115220000Y-97510000D01*
X115220000Y-97160000D01*
X115320000Y-97160000D01*
X115320000Y-97610000D01*
X114820000Y-97610000D01*
X114820000Y-97160000D01*
X114920000Y-97160000D01*
X114920000Y-97510000D01*
G36*
X114920000Y-97510000D02*
G01*
X115220000Y-97510000D01*
X115220000Y-97160000D01*
X115320000Y-97160000D01*
X115320000Y-97610000D01*
X114820000Y-97610000D01*
X114820000Y-97160000D01*
X114920000Y-97160000D01*
X114920000Y-97510000D01*
G37*
X118420000Y-98247500D02*
X118070000Y-98247500D01*
X118070000Y-98597500D01*
X118420000Y-98597500D01*
X118420000Y-98697500D01*
X118070000Y-98697500D01*
X118070000Y-99047500D01*
X118420000Y-99047500D01*
X118420000Y-99147500D01*
X117970000Y-99147500D01*
X117970000Y-98147500D01*
X118420000Y-98147500D01*
X118420000Y-98247500D01*
G36*
X118420000Y-98247500D02*
G01*
X118070000Y-98247500D01*
X118070000Y-98597500D01*
X118420000Y-98597500D01*
X118420000Y-98697500D01*
X118070000Y-98697500D01*
X118070000Y-99047500D01*
X118420000Y-99047500D01*
X118420000Y-99147500D01*
X117970000Y-99147500D01*
X117970000Y-98147500D01*
X118420000Y-98147500D01*
X118420000Y-98247500D01*
G37*
X118420000Y-99572500D02*
X118070000Y-99572500D01*
X118070000Y-99922500D01*
X118420000Y-99922500D01*
X118420000Y-100022500D01*
X118070000Y-100022500D01*
X118070000Y-100372500D01*
X118420000Y-100372500D01*
X118420000Y-100472500D01*
X117970000Y-100472500D01*
X117970000Y-99472500D01*
X118420000Y-99472500D01*
X118420000Y-99572500D01*
G36*
X118420000Y-99572500D02*
G01*
X118070000Y-99572500D01*
X118070000Y-99922500D01*
X118420000Y-99922500D01*
X118420000Y-100022500D01*
X118070000Y-100022500D01*
X118070000Y-100372500D01*
X118420000Y-100372500D01*
X118420000Y-100472500D01*
X117970000Y-100472500D01*
X117970000Y-99472500D01*
X118420000Y-99472500D01*
X118420000Y-99572500D01*
G37*
%TD*%
D13*
%TO.C,R3*%
X90380000Y-98300000D03*
D14*
X98000000Y-98300000D03*
%TD*%
D15*
%TO.C,TP3*%
X140500000Y-99500000D03*
%TD*%
D16*
%TO.C,U2*%
X115362500Y-113025000D03*
D17*
X112500000Y-110750000D03*
X112500000Y-111400000D03*
X112500000Y-112050000D03*
X112500000Y-112700000D03*
X112500000Y-113350000D03*
X112500000Y-114000000D03*
X112500000Y-114650000D03*
X112500000Y-115300000D03*
X118225000Y-115300000D03*
X118225000Y-114650000D03*
X118225000Y-114000000D03*
X118225000Y-113350000D03*
X118225000Y-112700000D03*
X118225000Y-112050000D03*
X118225000Y-111400000D03*
X118225000Y-110750000D03*
%TD*%
D13*
%TO.C,R14*%
X157690000Y-96450000D03*
D14*
X165310000Y-96450000D03*
%TD*%
D18*
%TO.C,U7*%
X128862500Y-92550000D03*
X128862500Y-93500000D03*
X128862500Y-94450000D03*
X131137500Y-94450000D03*
X131137500Y-92550000D03*
%TD*%
D13*
%TO.C,R2*%
X90190000Y-94500000D03*
D14*
X97810000Y-94500000D03*
%TD*%
D19*
%TO.C,U7*%
X141050000Y-85250000D03*
X141050000Y-85750000D03*
X141050000Y-86250000D03*
X141050000Y-86750000D03*
X142950000Y-86750000D03*
X142950000Y-86250000D03*
X142950000Y-85750000D03*
X142950000Y-85250000D03*
D20*
X142000000Y-86000000D03*
%TD*%
D18*
%TO.C,U6*%
X141500000Y-80000000D03*
X141500000Y-80950000D03*
X141500000Y-81900000D03*
X143775000Y-81900000D03*
X143775000Y-80950000D03*
X143775000Y-80000000D03*
%TD*%
D21*
%TO.C,R1*%
X146000000Y-105500000D03*
X147550000Y-105500000D03*
%TD*%
D22*
%TO.C,U8*%
X103725000Y-81000000D03*
X103725000Y-82000000D03*
X103725000Y-83000000D03*
X103725000Y-84000000D03*
X103725000Y-85000000D03*
X109000000Y-85000000D03*
X109000000Y-84000000D03*
X109000000Y-83000000D03*
X109000000Y-82000000D03*
X109000000Y-81000000D03*
D23*
X106362500Y-83000000D03*
%TD*%
D24*
%TO.C,U5*%
X112345000Y-98310000D03*
X112345000Y-98710000D03*
X112345000Y-99110000D03*
X112345000Y-99510000D03*
X112345000Y-99910000D03*
X112345000Y-100310000D03*
D25*
X112870000Y-101235000D03*
X113270000Y-101235000D03*
X113670000Y-101235000D03*
X114070000Y-101235000D03*
X114470000Y-101235000D03*
X114870000Y-101235000D03*
X115270000Y-101235000D03*
X115670000Y-101235000D03*
X116070000Y-101235000D03*
X116470000Y-101235000D03*
X116870000Y-101235000D03*
X117270000Y-101235000D03*
X117670000Y-101235000D03*
X117670000Y-97385000D03*
X117270000Y-97385000D03*
X116870000Y-97385000D03*
X116470000Y-97385000D03*
X116070000Y-97385000D03*
X115670000Y-97385000D03*
X113670000Y-97385000D03*
X113270000Y-97385000D03*
X112870000Y-97385000D03*
D26*
X114305000Y-99310000D03*
D27*
X116830000Y-99310000D03*
%TD*%
D13*
%TO.C,R6*%
X90380000Y-110450000D03*
D14*
X98000000Y-110450000D03*
%TD*%
D28*
%TO.C,SW1*%
X120460000Y-106000000D03*
D13*
X117920000Y-106000000D03*
X123000000Y-106000000D03*
%TD*%
D21*
%TO.C,C9*%
X152000000Y-84500000D03*
X153550000Y-84500000D03*
%TD*%
D13*
%TO.C,R17*%
X157690000Y-108600000D03*
D14*
X165310000Y-108600000D03*
%TD*%
D18*
%TO.C,U9*%
X122225000Y-98050000D03*
X122225000Y-99000000D03*
X122225000Y-99950000D03*
X124500000Y-99950000D03*
X124500000Y-99000000D03*
X124500000Y-98050000D03*
%TD*%
D13*
%TO.C,R5*%
X90380000Y-106400000D03*
D14*
X98000000Y-106400000D03*
%TD*%
D15*
%TO.C,TP7*%
X108000000Y-110000000D03*
%TD*%
%TO.C,TP5*%
X149500000Y-121000000D03*
%TD*%
D13*
%TO.C,R13*%
X157690000Y-92400000D03*
D14*
X165310000Y-92400000D03*
%TD*%
D21*
%TO.C,C2*%
X114337500Y-113025000D03*
X115887500Y-113025000D03*
%TD*%
D29*
%TO.C,R10*%
X136020000Y-93365000D03*
D30*
X135070000Y-95270000D03*
X141930000Y-92730000D03*
D29*
X140980000Y-94635000D03*
%TD*%
D31*
%TO.C,U4*%
X146625000Y-92500000D03*
X146625000Y-93000000D03*
X146625000Y-93500000D03*
X146625000Y-94000000D03*
D32*
X147312500Y-94687500D03*
X147812500Y-94687500D03*
X148312500Y-94687500D03*
X148812500Y-94687500D03*
D31*
X149500000Y-94000000D03*
X149500000Y-93500000D03*
X149500000Y-93000000D03*
X149500000Y-92500000D03*
D32*
X148812500Y-91812500D03*
X148312500Y-91812500D03*
X147812500Y-91812500D03*
X147312500Y-91812500D03*
D33*
X148062500Y-93250000D03*
%TD*%
D21*
%TO.C,C6*%
X118927500Y-83000000D03*
X120477500Y-83000000D03*
%TD*%
D34*
%TO.C,U1*%
X141225000Y-87550000D03*
X141225000Y-88200000D03*
X141225000Y-88850000D03*
X141225000Y-89500000D03*
X143500000Y-89500000D03*
X143500000Y-88850000D03*
X143500000Y-88200000D03*
X143500000Y-87550000D03*
%TD*%
D21*
%TO.C,C5*%
X114337500Y-115535000D03*
X115887500Y-115535000D03*
%TD*%
D29*
%TO.C,R9*%
X129500000Y-82500000D03*
D30*
X128550000Y-84405000D03*
X135410000Y-81865000D03*
D29*
X134460000Y-83770000D03*
%TD*%
D15*
%TO.C,TP6*%
X150000000Y-111000000D03*
%TD*%
D35*
%TO.C,J2*%
X113000000Y-123000000D03*
D36*
X113000000Y-121000000D03*
X115000000Y-123000000D03*
X115000000Y-121000000D03*
X117000000Y-123000000D03*
X117000000Y-121000000D03*
X119000000Y-123000000D03*
X119000000Y-121000000D03*
X121000000Y-123000000D03*
X121000000Y-121000000D03*
X123000000Y-123000000D03*
X123000000Y-121000000D03*
X125000000Y-123000000D03*
X125000000Y-121000000D03*
X127000000Y-123000000D03*
X127000000Y-121000000D03*
X129000000Y-123000000D03*
X129000000Y-121000000D03*
X131000000Y-123000000D03*
X131000000Y-121000000D03*
X133000000Y-123000000D03*
X133000000Y-121000000D03*
X135000000Y-123000000D03*
X135000000Y-121000000D03*
X137000000Y-123000000D03*
X137000000Y-121000000D03*
X139000000Y-123000000D03*
X139000000Y-121000000D03*
X141000000Y-123000000D03*
X141000000Y-121000000D03*
X143000000Y-123000000D03*
X143000000Y-121000000D03*
%TD*%
D37*
%TO.C,U6*%
X125225000Y-111295000D03*
X125225000Y-112565000D03*
X125225000Y-113835000D03*
X125225000Y-115105000D03*
X130175000Y-115105000D03*
X130175000Y-113835000D03*
X130175000Y-112565000D03*
X130175000Y-111295000D03*
D38*
X127700000Y-113200000D03*
%TD*%
D13*
%TO.C,R8*%
X90190000Y-119000000D03*
D14*
X97810000Y-119000000D03*
%TD*%
D21*
%TO.C,C8*%
X151725000Y-89280000D03*
X153275000Y-89280000D03*
%TD*%
D13*
%TO.C,R12*%
X157690000Y-88350000D03*
D14*
X165310000Y-88350000D03*
%TD*%
D39*
%TO.C,L1*%
X122925000Y-83000000D03*
X124500000Y-83000000D03*
%TD*%
D15*
%TO.C,TP8*%
X122000000Y-114000000D03*
%TD*%
%TO.C,TP1*%
X127000000Y-87500000D03*
%TD*%
D13*
%TO.C,R15*%
X157690000Y-100500000D03*
D14*
X165310000Y-100500000D03*
%TD*%
D13*
%TO.C,R16*%
X157690000Y-104550000D03*
D14*
X165310000Y-104550000D03*
%TD*%
D40*
%TO.C,Q3*%
X106062500Y-102050000D03*
X106062500Y-103950000D03*
X107937500Y-103000000D03*
%TD*%
D16*
%TO.C,U3*%
X142750000Y-113500000D03*
D41*
X145612500Y-115775000D03*
X145612500Y-115125000D03*
X145612500Y-114475000D03*
X145612500Y-113825000D03*
X145612500Y-113175000D03*
X145612500Y-112525000D03*
X145612500Y-111875000D03*
X145612500Y-111225000D03*
X139887500Y-111225000D03*
X139887500Y-111875000D03*
X139887500Y-112525000D03*
X139887500Y-113175000D03*
X139887500Y-113825000D03*
X139887500Y-114475000D03*
X139887500Y-115125000D03*
X139887500Y-115775000D03*
%TD*%
D13*
%TO.C,R7*%
X90380000Y-114500000D03*
D14*
X98000000Y-114500000D03*
%TD*%
D21*
%TO.C,C10*%
X109225000Y-94500000D03*
X110775000Y-94500000D03*
%TD*%
D42*
%TO.C,J1*%
X104500000Y-114550000D03*
D43*
X106500000Y-114550000D03*
%TD*%
D15*
%TO.C,TP4*%
X112000000Y-106000000D03*
%TD*%
D13*
%TO.C,R4*%
X90380000Y-102350000D03*
D14*
X98000000Y-102350000D03*
%TD*%
D40*
%TO.C,Q1*%
X120125000Y-90550000D03*
X120125000Y-92450000D03*
X122000000Y-91500000D03*
%TD*%
D21*
%TO.C,C7*%
X141990000Y-105500000D03*
X143540000Y-105500000D03*
%TD*%
D44*
%TO.C,U5*%
X130025000Y-101195000D03*
X130025000Y-103475000D03*
D45*
X136325000Y-103475000D03*
D44*
X130025000Y-105755000D03*
%TD*%
D15*
%TO.C,TP9*%
X152500000Y-116000000D03*
%TD*%
%TO.C,TP2*%
X135500000Y-90000000D03*
%TD*%
%TO.C,TP10*%
X152500000Y-103500000D03*
%TD*%
D46*
%TO.C,J3*%
X90850000Y-81490000D03*
X91350000Y-81490000D03*
X91850000Y-81490000D03*
X92350000Y-81490000D03*
X92850000Y-81490000D03*
X93350000Y-81490000D03*
X93850000Y-81490000D03*
X94350000Y-81490000D03*
X94850000Y-81490000D03*
X95350000Y-81490000D03*
X95850000Y-81490000D03*
X96350000Y-81490000D03*
D47*
X96400000Y-82600000D03*
X96000000Y-83500000D03*
X95200000Y-83500000D03*
X94800000Y-82600000D03*
X94400000Y-83500000D03*
X94000000Y-82600000D03*
X93200000Y-82600000D03*
X92800000Y-83500000D03*
X92400000Y-82600000D03*
X92000000Y-83500000D03*
X91200000Y-83500000D03*
X90800000Y-82600000D03*
D48*
X89025000Y-86660000D03*
D49*
X89210000Y-83750000D03*
D50*
X89305000Y-81770000D03*
D51*
X90225000Y-80705000D03*
X96975000Y-80705000D03*
D50*
X97895000Y-81770000D03*
D49*
X97990000Y-83750000D03*
D48*
X98175000Y-86660000D03*
%TD*%
D21*
%TO.C,C1*%
X145725000Y-98990000D03*
X147275000Y-98990000D03*
%TD*%
D13*
%TO.C,R11*%
X157880000Y-83400000D03*
D14*
X165500000Y-83400000D03*
%TD*%
D18*
%TO.C,U10*%
X103862500Y-95550000D03*
X103862500Y-96500000D03*
X103862500Y-97450000D03*
X106137500Y-97450000D03*
X106137500Y-95550000D03*
%TD*%
%LPD*%
M02*
