%TF.GenerationSoftware,KiCad,Pcbnew,9.0.0*%
%TF.CreationDate,2025-03-31T16:57:01+02:00*%
%TF.ProjectId,design_project,64657369-676e-45f7-9072-6f6a6563742e,rev?*%
%TF.SameCoordinates,Original*%
%TF.FileFunction,Copper,L2,Bot*%
%TF.FilePolarity,Positive*%
%FSLAX46Y46*%
G04 Gerber Fmt 4.6, Leading zero omitted, Abs format (unit mm)*
G04 Created by KiCad (PCBNEW 9.0.0) date 2025-03-31 16:57:01*
%MOMM*%
%LPD*%
G01*
G04 APERTURE LIST*
G04 Aperture macros list*
%AMRoundRect*
0 Rectangle with rounded corners*
0 $1 Rounding radius*
0 $2 $3 $4 $5 $6 $7 $8 $9 X,Y pos of 4 corners*
0 Add a 4 corners polygon primitive as box body*
4,1,4,$2,$3,$4,$5,$6,$7,$8,$9,$2,$3,0*
0 Add four circle primitives for the rounded corners*
1,1,$1+$1,$2,$3*
1,1,$1+$1,$4,$5*
1,1,$1+$1,$6,$7*
1,1,$1+$1,$8,$9*
0 Add four rect primitives between the rounded corners*
20,1,$1+$1,$2,$3,$4,$5,0*
20,1,$1+$1,$4,$5,$6,$7,0*
20,1,$1+$1,$6,$7,$8,$9,0*
20,1,$1+$1,$8,$9,$2,$3,0*%
G04 Aperture macros list end*
%TA.AperFunction,ComponentPad*%
%ADD10C,1.600000*%
%TD*%
%TA.AperFunction,ComponentPad*%
%ADD11O,1.600000X1.600000*%
%TD*%
%TA.AperFunction,HeatsinkPad*%
%ADD12C,0.500000*%
%TD*%
%TA.AperFunction,HeatsinkPad*%
%ADD13R,2.000000X3.500000*%
%TD*%
%TA.AperFunction,HeatsinkPad*%
%ADD14C,0.600000*%
%TD*%
%TA.AperFunction,SMDPad,CuDef*%
%ADD15R,0.900000X1.600000*%
%TD*%
%TA.AperFunction,HeatsinkPad*%
%ADD16RoundRect,0.250000X1.110000X1.075000X-1.110000X1.075000X-1.110000X-1.075000X1.110000X-1.075000X0*%
%TD*%
%TA.AperFunction,HeatsinkPad*%
%ADD17RoundRect,0.250000X0.515000X1.075000X-0.515000X1.075000X-0.515000X-1.075000X0.515000X-1.075000X0*%
%TD*%
%TA.AperFunction,ComponentPad*%
%ADD18R,1.500000X1.500000*%
%TD*%
%TA.AperFunction,ComponentPad*%
%ADD19R,1.350000X1.350000*%
%TD*%
%TA.AperFunction,ComponentPad*%
%ADD20O,1.350000X1.350000*%
%TD*%
%TA.AperFunction,HeatsinkPad*%
%ADD21R,1.900000X2.900000*%
%TD*%
%TA.AperFunction,ComponentPad*%
%ADD22RoundRect,0.250000X-0.350000X-0.625000X0.350000X-0.625000X0.350000X0.625000X-0.350000X0.625000X0*%
%TD*%
%TA.AperFunction,ComponentPad*%
%ADD23O,1.200000X1.750000*%
%TD*%
%TA.AperFunction,HeatsinkPad*%
%ADD24C,0.650000*%
%TD*%
%TA.AperFunction,HeatsinkPad*%
%ADD25O,0.950000X2.280000*%
%TD*%
%TA.AperFunction,HeatsinkPad*%
%ADD26O,1.330000X1.980000*%
%TD*%
%TA.AperFunction,HeatsinkPad*%
%ADD27O,0.950000X1.800000*%
%TD*%
%TA.AperFunction,Conductor*%
%ADD28C,0.200000*%
%TD*%
G04 APERTURE END LIST*
D10*
%TO.P,R3,1*%
%TO.N,GND*%
X90380000Y-98300000D03*
D11*
%TO.P,R3,2*%
%TO.N,Net-(U3-AISEN)*%
X98000000Y-98300000D03*
%TD*%
D12*
%TO.P,U2,17,GND*%
%TO.N,GND*%
X114612500Y-111525000D03*
X114612500Y-113025000D03*
X114612500Y-114525000D03*
D13*
X115362500Y-113025000D03*
D12*
X116112500Y-111525000D03*
X116112500Y-113025000D03*
X116112500Y-114525000D03*
%TD*%
D10*
%TO.P,R14,1*%
%TO.N,CTRL_EXT_LOAD2*%
X157690000Y-96450000D03*
D11*
%TO.P,R14,2*%
%TO.N,GND*%
X165310000Y-96450000D03*
%TD*%
D10*
%TO.P,R2,1*%
%TO.N,GND*%
X90190000Y-94500000D03*
D11*
%TO.P,R2,2*%
%TO.N,Net-(U2-AISEN)*%
X97810000Y-94500000D03*
%TD*%
D14*
%TO.P,U7,9,PAD*%
%TO.N,GND*%
X142000000Y-85500000D03*
D15*
X142000000Y-86000000D03*
D14*
X142000000Y-86500000D03*
%TD*%
D12*
%TO.P,U5,39,GND*%
%TO.N,Net-(U5-GND-Pad11)*%
X113195000Y-99310000D03*
X114305000Y-98235000D03*
X114305000Y-99310000D03*
D16*
X114305000Y-99310000D03*
D12*
X114305000Y-100385000D03*
X115415000Y-99310000D03*
%TO.P,U5,40,DRAIN*%
%TO.N,unconnected-(U5-DRAIN-Pad40)*%
X116830000Y-98235000D03*
X116830000Y-99310000D03*
D17*
X116830000Y-99310000D03*
D12*
X116830000Y-100385000D03*
%TD*%
D10*
%TO.P,R6,1*%
%TO.N,Net-(U8-CC1)*%
X90380000Y-110450000D03*
D11*
%TO.P,R6,2*%
%TO.N,GND*%
X98000000Y-110450000D03*
%TD*%
D18*
%TO.P,SW1,1,B*%
%TO.N,Net-(Q1-G)*%
X120460000Y-106000000D03*
D10*
%TO.P,SW1,2,C*%
%TO.N,GND*%
X117920000Y-106000000D03*
%TO.P,SW1,3,A*%
%TO.N,Net-(SW1-A)*%
X123000000Y-106000000D03*
%TD*%
%TO.P,R17,1*%
%TO.N,3.3V*%
X157690000Y-108600000D03*
D11*
%TO.P,R17,2*%
%TO.N,I2C1_SCL *%
X165310000Y-108600000D03*
%TD*%
D10*
%TO.P,R5,1*%
%TO.N,Net-(U8-CC2)*%
X90380000Y-106400000D03*
D11*
%TO.P,R5,2*%
%TO.N,GND*%
X98000000Y-106400000D03*
%TD*%
D10*
%TO.P,R13,1*%
%TO.N,Net-(U6-PROG)*%
X157690000Y-92400000D03*
D11*
%TO.P,R13,2*%
%TO.N,Net-(Q3-D)*%
X165310000Y-92400000D03*
%TD*%
D19*
%TO.P,J2,1,Pin_1*%
%TO.N,MOTOR2_B_OUT*%
X113000000Y-123000000D03*
D20*
%TO.P,J2,2,Pin_2*%
%TO.N,MOTOR2_A_OUT*%
X113000000Y-121000000D03*
%TO.P,J2,3,Pin_3*%
%TO.N,MOTOR4_A_OUT*%
X115000000Y-123000000D03*
%TO.P,J2,4,Pin_4*%
%TO.N,MOTOR2_CTRL1*%
X115000000Y-121000000D03*
%TO.P,J2,5,Pin_5*%
%TO.N,MOTOR4_B_OUT*%
X117000000Y-123000000D03*
%TO.P,J2,6,Pin_6*%
%TO.N,MOTOR2_CTRL2*%
X117000000Y-121000000D03*
%TO.P,J2,7,Pin_7*%
%TO.N,CTRL_EXT_LOAD2*%
X119000000Y-123000000D03*
%TO.P,J2,8,Pin_8*%
%TO.N,MOTOR4_CTRL1*%
X119000000Y-121000000D03*
%TO.P,J2,9,Pin_9*%
%TO.N,unconnected-(J2-Pin_9-Pad9)*%
X121000000Y-123000000D03*
%TO.P,J2,10,Pin_10*%
%TO.N,MOTOR4_CTRL2*%
X121000000Y-121000000D03*
%TO.P,J2,11,Pin_11*%
%TO.N,EXT_LOAD2_OUT*%
X123000000Y-123000000D03*
%TO.P,J2,12,Pin_12*%
%TO.N,unconnected-(J2-Pin_12-Pad12)*%
X123000000Y-121000000D03*
%TO.P,J2,13,Pin_13*%
%TO.N,FAST_CHARGE-CTRL*%
X125000000Y-123000000D03*
%TO.P,J2,14,Pin_14*%
%TO.N,Battery*%
X125000000Y-121000000D03*
%TO.P,J2,15,Pin_15*%
%TO.N,unconnected-(J2-Pin_15-Pad15)*%
X127000000Y-123000000D03*
%TO.P,J2,16,Pin_16*%
%TO.N,I2C1_SCL *%
X127000000Y-121000000D03*
%TO.P,J2,17,Pin_17*%
%TO.N,I2C1_SDA*%
X129000000Y-123000000D03*
%TO.P,J2,18,Pin_18*%
%TO.N,3.3V*%
X129000000Y-121000000D03*
%TO.P,J2,19,Pin_19*%
%TO.N,GND*%
X131000000Y-123000000D03*
%TO.P,J2,20,Pin_20*%
%TO.N,5V*%
X131000000Y-121000000D03*
%TO.P,J2,21,Pin_21*%
%TO.N,EXT_LOAD1 _OUT*%
X133000000Y-123000000D03*
%TO.P,J2,22,Pin_22*%
%TO.N,High Voltage (9V)*%
X133000000Y-121000000D03*
%TO.P,J2,23,Pin_23*%
%TO.N,GND*%
X135000000Y-123000000D03*
%TO.P,J2,24,Pin_24*%
%TO.N,MOTOR3_CTRL1*%
X135000000Y-121000000D03*
%TO.P,J2,25,Pin_25*%
%TO.N,CTRL_EXT_LOAD1 *%
X137000000Y-123000000D03*
%TO.P,J2,26,Pin_26*%
%TO.N,MOTOR3_CTRL2*%
X137000000Y-121000000D03*
%TO.P,J2,27,Pin_27*%
%TO.N,MOTOR3_A_OUT*%
X139000000Y-123000000D03*
%TO.P,J2,28,Pin_28*%
%TO.N,MOTOR1_CTRL1*%
X139000000Y-121000000D03*
%TO.P,J2,29,Pin_29*%
%TO.N,MOTOR3_B_OUT*%
X141000000Y-123000000D03*
%TO.P,J2,30,Pin_30*%
%TO.N,MOTOR1_CTRL2*%
X141000000Y-121000000D03*
%TO.P,J2,31,Pin_31*%
%TO.N,MOTOR1_B_OUT*%
X143000000Y-123000000D03*
%TO.P,J2,32,Pin_32*%
%TO.N,MOTOR1_A_OUT*%
X143000000Y-121000000D03*
%TD*%
D12*
%TO.P,U6,9,EPAD*%
%TO.N,unconnected-(U6-EPAD-Pad9)*%
X127000000Y-112000000D03*
X127000000Y-113200000D03*
X127000000Y-114400000D03*
D21*
X127700000Y-113200000D03*
D12*
X128400000Y-112000000D03*
X128400000Y-113200000D03*
X128400000Y-114400000D03*
%TD*%
D10*
%TO.P,R8,1*%
%TO.N,Net-(U9-FB)*%
X90190000Y-119000000D03*
D11*
%TO.P,R8,2*%
%TO.N,5V*%
X97810000Y-119000000D03*
%TD*%
D10*
%TO.P,R12,1*%
%TO.N,5V*%
X157690000Y-88350000D03*
D11*
%TO.P,R12,2*%
%TO.N,GND*%
X165310000Y-88350000D03*
%TD*%
D10*
%TO.P,R15,1*%
%TO.N,CTRL_EXT_LOAD1 *%
X157690000Y-100500000D03*
D11*
%TO.P,R15,2*%
%TO.N,GND*%
X165310000Y-100500000D03*
%TD*%
D10*
%TO.P,R16,1*%
%TO.N,3.3V*%
X157690000Y-104550000D03*
D11*
%TO.P,R16,2*%
%TO.N,I2C1_SDA*%
X165310000Y-104550000D03*
%TD*%
D12*
%TO.P,U3,17,GND*%
%TO.N,GND*%
X143500000Y-115000000D03*
X143500000Y-113500000D03*
X143500000Y-112000000D03*
D13*
X142750000Y-113500000D03*
D12*
X142000000Y-115000000D03*
X142000000Y-113500000D03*
X142000000Y-112000000D03*
%TD*%
D10*
%TO.P,R7,1*%
%TO.N,Net-(SW1-A)*%
X90380000Y-114500000D03*
D11*
%TO.P,R7,2*%
%TO.N,Battery*%
X98000000Y-114500000D03*
%TD*%
D22*
%TO.P,J1,1,Pin_1*%
%TO.N,Battery*%
X104500000Y-114550000D03*
D23*
%TO.P,J1,2,Pin_2*%
%TO.N,GND*%
X106500000Y-114550000D03*
%TD*%
D10*
%TO.P,R4,1*%
%TO.N,GND*%
X90380000Y-102350000D03*
D11*
%TO.P,R4,2*%
%TO.N,Net-(U3-BISEN)*%
X98000000Y-102350000D03*
%TD*%
D24*
%TO.P,J3,B1*%
%TO.N,N/C*%
X96400000Y-82600000D03*
%TO.P,J3,B2*%
X96000000Y-83500000D03*
%TO.P,J3,B3*%
X95200000Y-83500000D03*
%TO.P,J3,B4*%
X94800000Y-82600000D03*
%TO.P,J3,B5,CC2*%
%TO.N,unconnected-(J3-CC2-PadB5)*%
X94400000Y-83500000D03*
%TO.P,J3,B6*%
%TO.N,N/C*%
X94000000Y-82600000D03*
%TO.P,J3,B7*%
X93200000Y-82600000D03*
%TO.P,J3,B8*%
X92800000Y-83500000D03*
%TO.P,J3,B9,VBUS*%
%TO.N,Net-(U8-VDD)*%
X92400000Y-82600000D03*
%TO.P,J3,B10*%
%TO.N,N/C*%
X92000000Y-83500000D03*
%TO.P,J3,B11*%
X91200000Y-83500000D03*
%TO.P,J3,B12,GND*%
%TO.N,GND*%
X90800000Y-82600000D03*
D25*
%TO.P,J3,S1,SHIELD*%
%TO.N,unconnected-(J3-SHIELD-PadS1)_4*%
X89025000Y-86660000D03*
D26*
%TO.N,unconnected-(J3-SHIELD-PadS1)*%
X89210000Y-83750000D03*
D27*
%TO.N,unconnected-(J3-SHIELD-PadS1)_7*%
X89305000Y-81770000D03*
%TO.N,unconnected-(J3-SHIELD-PadS1)_5*%
X97895000Y-81770000D03*
D26*
%TO.N,unconnected-(J3-SHIELD-PadS1)_6*%
X97990000Y-83750000D03*
D25*
%TO.N,unconnected-(J3-SHIELD-PadS1)_2*%
X98175000Y-86660000D03*
%TD*%
D10*
%TO.P,R11,1*%
%TO.N,Net-(U6-PROG)*%
X157880000Y-83400000D03*
D11*
%TO.P,R11,2*%
%TO.N,GND*%
X165500000Y-83400000D03*
%TD*%
D28*
%TO.N,GND*%
X137404273Y-123976000D02*
X138024000Y-123356273D01*
X165310000Y-88350000D02*
X167000000Y-90040000D01*
X165500000Y-83400000D02*
X165500000Y-88160000D01*
X138024000Y-115976000D02*
X140000000Y-114000000D01*
X167000000Y-94760000D02*
X165310000Y-96450000D01*
X135976000Y-123976000D02*
X137404273Y-123976000D01*
X165310000Y-96450000D02*
X165310000Y-100500000D01*
X138024000Y-123356273D02*
X138024000Y-115976000D01*
X165500000Y-88160000D02*
X165310000Y-88350000D01*
X167000000Y-90040000D02*
X167000000Y-94760000D01*
X135000000Y-123000000D02*
X135976000Y-123976000D01*
%TO.N,MOTOR4_CTRL1*%
X119000000Y-116500000D02*
X118000000Y-115500000D01*
X119000000Y-121000000D02*
X119000000Y-116500000D01*
%TO.N,MOTOR4_CTRL2*%
X121000000Y-121000000D02*
X121000000Y-117000000D01*
X121000000Y-117000000D02*
X118500000Y-114500000D01*
%TO.N,MOTOR2_CTRL2*%
X118000000Y-111500000D02*
X118500000Y-111500000D01*
X117000000Y-112500000D02*
X118000000Y-111500000D01*
X117000000Y-121000000D02*
X117000000Y-112500000D01*
%TO.N,Net-(U2-AISEN)*%
X95655850Y-96654150D02*
X95655850Y-107100000D01*
X95655850Y-107100000D02*
X88878000Y-113877850D01*
X98747050Y-112000000D02*
X113000000Y-112000000D01*
X97810000Y-94500000D02*
X95655850Y-96654150D01*
X90646050Y-120101000D02*
X98747050Y-112000000D01*
X88878000Y-113877850D02*
X88878000Y-119245050D01*
X89733950Y-120101000D02*
X90646050Y-120101000D01*
X88878000Y-119245050D02*
X89733950Y-120101000D01*
%TO.N,Net-(U3-BISEN)*%
X143832200Y-88698000D02*
X146500000Y-91365800D01*
X146500000Y-112500000D02*
X145500000Y-112500000D01*
X98000000Y-102350000D02*
X111652000Y-88698000D01*
X146500000Y-91365800D02*
X146500000Y-112500000D01*
X111652000Y-88698000D02*
X143832200Y-88698000D01*
%TO.N,Net-(SW1-A)*%
X123000000Y-106000000D02*
X119651000Y-109349000D01*
X119651000Y-109349000D02*
X95531000Y-109349000D01*
X95531000Y-109349000D02*
X90380000Y-114500000D01*
%TO.N,3.3V*%
X129000000Y-121000000D02*
X128024000Y-121976000D01*
X126024000Y-121404273D02*
X126024000Y-117878000D01*
X126595727Y-121976000D02*
X126024000Y-121404273D01*
X126024000Y-107476000D02*
X130000000Y-103500000D01*
X126024000Y-121404273D02*
X126024000Y-107476000D01*
X128024000Y-121976000D02*
X126595727Y-121976000D01*
X135500000Y-108402000D02*
X135500000Y-103500000D01*
X126024000Y-117878000D02*
X135500000Y-108402000D01*
%TO.N,I2C1_SCL *%
X127000000Y-121000000D02*
X143500000Y-104500000D01*
X143500000Y-104500000D02*
X143500000Y-89500000D01*
%TO.N,5V*%
X130024000Y-123356273D02*
X129404273Y-123976000D01*
X131000000Y-121000000D02*
X130024000Y-121976000D01*
X102786000Y-123976000D02*
X97810000Y-119000000D01*
X130024000Y-121976000D02*
X130024000Y-123356273D01*
X129404273Y-123976000D02*
X102786000Y-123976000D01*
%TO.N,EXT_LOAD1 _OUT*%
X124024000Y-120595727D02*
X124595727Y-120024000D01*
X131623000Y-124377000D02*
X101629950Y-124377000D01*
X133000000Y-123000000D02*
X131623000Y-124377000D01*
X96709000Y-118543950D02*
X97353950Y-117899000D01*
X96709000Y-119456050D02*
X96709000Y-118543950D01*
X124595727Y-120024000D02*
X124595727Y-96404273D01*
X98266050Y-117899000D02*
X102343050Y-121976000D01*
X102343050Y-121976000D02*
X123452273Y-121976000D01*
X101629950Y-124377000D02*
X96709000Y-119456050D01*
X124024000Y-121404273D02*
X124024000Y-120595727D01*
X124595727Y-96404273D02*
X128500000Y-92500000D01*
X123452273Y-121976000D02*
X124024000Y-121404273D01*
X97353950Y-117899000D02*
X98266050Y-117899000D01*
%TO.N,CTRL_EXT_LOAD1 *%
X137000000Y-123000000D02*
X135976000Y-121976000D01*
X136401000Y-89099000D02*
X131000000Y-94500000D01*
X143901000Y-89333900D02*
X143666100Y-89099000D01*
X134024000Y-123404273D02*
X134024000Y-122595727D01*
X143666100Y-89099000D02*
X136401000Y-89099000D01*
X143003273Y-124377000D02*
X134996727Y-124377000D01*
X143901000Y-104666100D02*
X143901000Y-89333900D01*
X156589000Y-110791273D02*
X143003273Y-124377000D01*
X135976000Y-112591100D02*
X143901000Y-104666100D01*
X134595727Y-122024000D02*
X136024000Y-122024000D01*
X135976000Y-121976000D02*
X135976000Y-112591100D01*
X134996727Y-124377000D02*
X134024000Y-123404273D01*
X156589000Y-101601000D02*
X156589000Y-110791273D01*
X136024000Y-122024000D02*
X137000000Y-123000000D01*
X157690000Y-100500000D02*
X156589000Y-101601000D01*
X134024000Y-122595727D02*
X134595727Y-122024000D01*
%TO.N,Net-(U9-FB)*%
X114861950Y-107501000D02*
X122862950Y-99500000D01*
X90190000Y-119000000D02*
X89279000Y-118089000D01*
X89279000Y-114043950D02*
X95821950Y-107501000D01*
X95821950Y-107501000D02*
X114861950Y-107501000D01*
X89279000Y-118089000D02*
X89279000Y-114043950D01*
X122862950Y-99500000D02*
X123000000Y-99500000D01*
%TO.N,CTRL_EXT_LOAD2*%
X143169373Y-124778000D02*
X118778000Y-124778000D01*
X158791000Y-97551000D02*
X158791000Y-109156373D01*
X158791000Y-109156373D02*
X143169373Y-124778000D01*
X157690000Y-96450000D02*
X158791000Y-97551000D01*
%TD*%
M02*
