M48
; DRILL file {KiCad 9.0.0} date 2025-03-31T16:57:01+0200
; FORMAT={-:-/ absolute / inch / decimal}
; #@! TF.CreationDate,2025-03-31T16:57:01+02:00
; #@! TF.GenerationSoftware,Kicad,Pcbnew,9.0.0
; #@! TF.FileFunction,Plated,1,2,PTH
FMAT,2
INCH
; #@! TA.AperFunction,Plated,PTH,ComponentDrill
T1C0.0079
; #@! TA.AperFunction,Plated,PTH,ComponentDrill
T2C0.0098
; #@! TA.AperFunction,Plated,PTH,ComponentDrill
T3C0.0157
; #@! TA.AperFunction,Plated,PTH,ComponentDrill
T4C0.0217
; #@! TA.AperFunction,Plated,PTH,ComponentDrill
T5C0.0295
; #@! TA.AperFunction,Plated,PTH,ComponentDrill
T6C0.0315
; #@! TA.AperFunction,Plated,PTH,ComponentDrill
T7C0.0366
%
G90
G05
T1
X4.4565Y-3.9098
X4.5002Y-3.8675
X4.5002Y-3.9098
X4.5002Y-3.9522
X4.5123Y-4.3907
X4.5123Y-4.4498
X4.5123Y-4.5089
X4.5439Y-3.9098
X4.5714Y-4.3907
X4.5714Y-4.4498
X4.5714Y-4.5089
X4.5996Y-3.8675
X4.5996Y-3.9098
X4.5996Y-3.9522
X5.0Y-4.4094
X5.0Y-4.4567
X5.0Y-4.5039
X5.0551Y-4.4094
X5.0551Y-4.4567
X5.0551Y-4.5039
X5.5906Y-4.4094
X5.5906Y-4.4685
X5.5906Y-4.5276
X5.6496Y-4.4094
X5.6496Y-4.4685
X5.6496Y-4.5276
T2
X5.5906Y-3.3661
X5.5906Y-3.4055
T3
X3.5748Y-3.252
X3.5906Y-3.2874
X3.622Y-3.2874
X3.6378Y-3.252
X3.6535Y-3.2874
X3.6693Y-3.252
X3.7008Y-3.252
X3.7165Y-3.2874
X3.7323Y-3.252
X3.748Y-3.2874
X3.7795Y-3.2874
X3.7953Y-3.252
T5
X4.1142Y-4.5098
X4.1929Y-4.5098
T6
X3.5508Y-3.7205
X3.5508Y-4.685
X3.5583Y-3.8701
X3.5583Y-4.0295
X3.5583Y-4.189
X3.5583Y-4.3484
X3.5583Y-4.5079
X3.8508Y-3.7205
X3.8508Y-4.685
X3.8583Y-3.8701
X3.8583Y-4.0295
X3.8583Y-4.189
X3.8583Y-4.3484
X3.8583Y-4.5079
X4.4488Y-4.7638
X4.4488Y-4.8425
X4.5276Y-4.7638
X4.5276Y-4.8425
X4.6063Y-4.7638
X4.6063Y-4.8425
X4.6425Y-4.1732
X4.685Y-4.7638
X4.685Y-4.8425
X4.7425Y-4.1732
X4.7638Y-4.7638
X4.7638Y-4.8425
X4.8425Y-4.1732
X4.8425Y-4.7638
X4.8425Y-4.8425
X4.9213Y-4.7638
X4.9213Y-4.8425
X5.0Y-4.7638
X5.0Y-4.8425
X5.0787Y-4.7638
X5.0787Y-4.8425
X5.1575Y-4.7638
X5.1575Y-4.8425
X5.2362Y-4.7638
X5.2362Y-4.8425
X5.315Y-4.7638
X5.315Y-4.8425
X5.3937Y-4.7638
X5.3937Y-4.8425
X5.4724Y-4.7638
X5.4724Y-4.8425
X5.5512Y-4.7638
X5.5512Y-4.8425
X5.6299Y-4.7638
X5.6299Y-4.8425
X6.2083Y-3.4783
X6.2083Y-3.6378
X6.2083Y-3.7972
X6.2083Y-3.9567
X6.2083Y-4.1161
X6.2083Y-4.2756
X6.2157Y-3.2835
X6.5083Y-3.4783
X6.5083Y-3.6378
X6.5083Y-3.7972
X6.5083Y-3.9567
X6.5083Y-4.1161
X6.5083Y-4.2756
X6.5157Y-3.2835
T4
G00X3.5049Y-3.3967
M15
G01X3.5049Y-3.438
M16
G05
G00X3.5159Y-3.2026
M15
G01X3.5159Y-3.236
M16
G05
G00X3.8541Y-3.2026
M15
G01X3.8541Y-3.236
M16
G05
G00X3.8652Y-3.3967
M15
G01X3.8652Y-3.438
M16
G05
T7
G00X3.5122Y-3.2844
M15
G01X3.5122Y-3.31
M16
G05
G00X3.8579Y-3.2844
M15
G01X3.8579Y-3.31
M16
G05
M30
